<?xml version="1.0" encoding="utf-8"?>
<!-- Generator: Adobe Illustrator 24.0.0, SVG Export Plug-In . SVG Version: 6.00 Build 0)  -->
<svg version="1.1"
	 id="Layer_1" xmlns:cc="http://web.resource.org/cc/" xmlns:dc="http://purl.org/dc/elements/1.1/" xmlns:inkscape="http://www.inkscape.org/namespaces/inkscape" xmlns:ns1="http://sozi.baierouge.fr" xmlns:rdf="http://www.w3.org/1999/02/22-rdf-syntax-ns#" xmlns:sodipodi="http://sodipodi.sourceforge.net/DTD/sodipodi-0.dtd" xmlns:svg="http://www.w3.org/2000/svg"
	 xmlns="http://www.w3.org/2000/svg" xmlns:xlink="http://www.w3.org/1999/xlink" x="0px" y="0px" viewBox="0 0 534 473"
	 style="enable-background:new 0 0 534 473;" xml:space="preserve">
<style type="text/css">
	.st0{fill:#34C4EC;}
	.st1{fill:#FFE500;}
	.st2{fill:#923F93;}
	.st3{fill:#E7A6B6;}
	.st4{fill:#C6332E;}
	.st5{fill:#ACCE72;}
	.st6{fill:#F99B1F;}
	.st7{fill:#C95828;}
	.st8{fill:#5186C5;}
	.st9{fill:#B98ABA;}
	.st10{fill:#01AA95;}
	.st11{fill:#069C4D;}
	.st12{fill:#E5D33C;}
	.st13{fill:#048BBD;}
	.st14{fill:#F4AFBC;}
</style>
<g>
	<path class="st0" d="M249.2,101.1c-0.5,1.8-0.4,3.6-0.9,5.4c-0.6,2-0.3,4.1-0.4,6.2c0,1.8-0.6,3.7-0.2,5.5c0.6,3-0.2,6.1,0.4,9.1
		c0.3,5.4,1,10.9,2.2,16.2c0.7,2.9,0.9,5.9,2.1,8.7c0.7,3.3,1.8,6.5,3,9.6c0.2-2.6,0-5.3,0.3-7.9c0.1-2.1,0.4-4.2,0.6-6.4
		c0.2-3.6,1.2-7.1,1.8-10.7c0.4-2.7,1.1-5.3,1.4-8c0.5-2.1,0.5-4.3,1.2-6.4c0.2-0.9,0.6-1.8,0.7-2.7c-0.5-2.3-2.6-3.8-3.5-5.9
		c-1-2.2-2.6-4-3.6-6.1C252.5,105.5,251,103.2,249.2,101.1"/>
	<path class="st0" d="M301.9,108.7c-1.3,1.7-1.8,3.7-2.7,5.6c-0.7,1.6-1.8,3.1-2.2,4.9c-0.7,3.1-2.6,5.7-3.2,8.8
		c-2,5.8-3.5,11.8-4.5,17.8c-0.5,2.2-1,4.4-1,6.6c-0.6,3.3-0.8,6.7-0.9,10.1c1.3-2.7,2.3-5.5,3.7-8.1c2.1-4,4.1-8,6.7-11.7
		c1.9-3.2,4.2-6.1,5.9-9.4c1.4-2.2,2.6-4.6,4.4-6.5c2-2,0-4.7-0.1-7c-0.1-2.8-0.9-5.5-1.1-8.2c-0.6-2.6-1-5.2-1.9-7.7
		C303.7,105.4,303,107.2,301.9,108.7"/>
	<path class="st0" d="M196.7,119.8c0.1,1.1,0.5,2.2,0.8,3.3c0.4,1.3,0.4,2.7,0.9,4c0.5,1.6,1.4,3.2,1.9,4.8c0.5,1.5,0.8,3,1.7,4.4
		c1.6,2.6,2.1,5.7,3.8,8.2c2.6,5.5,5.8,10.8,9.3,15.8c1.2,1.9,2.3,3.8,4,5.4c2,2.7,4.1,5.4,6.5,7.8c-0.3-1-0.7-2-1.1-3
		c-1.8-4.2-3-8.6-4.3-13c-1.5-6.6-2.7-13.2-4.4-19.7c-0.5-1.8-0.4-3.7-0.8-5.5c-1.4-1.9-3.8-2.4-5.5-3.9c-1.7-1.6-3.8-2.6-5.6-4.2
		C201.6,122.6,199.2,121,196.7,119.8"/>
	<path class="st0" d="M350.6,131.2c-1.6,1-2.8,2.4-4.1,3.7c-1.4,1.5-3.3,2.5-4.4,4.2c-1.9,2.6-4.7,4.3-6.5,7
		c-5,5.5-9.1,11.8-13.2,18c-1.9,3.7-4.2,7.1-5.7,11c2.2-1.7,4-3.9,6.2-5.7c2.4-2,4.7-4,7.2-5.9c5.4-3.7,10.9-7.3,16.1-11.3
		c1.4-1.1,3.1-1.6,4.5-2.7c1.2-1.9,0.8-4.3,1.5-6.3c0.6-1.6,0.9-3.2,1.2-4.8c1-3.4,1.6-6.9,2-10.5
		C353.5,128.8,352.2,130.2,350.6,131.2"/>
	<path class="st0" d="M155.3,157c0.9,1.6,2.3,3,3.3,4.6c1.3,2.2,3.4,3.6,5,5.5c0.9,1.1,1.7,2.3,2.9,3.1c2.5,1.8,4.1,4.4,6.6,6.1
		c4.1,3.7,8.5,7,13.2,10.1c2.5,1.5,4.7,3.4,7.4,4.6c2.8,1.8,5.8,3.3,8.8,4.6c-1.7-2.2-3.9-4-5.7-6.2c-2.1-2.6-4.3-5-6.2-7.7
		c-2.3-3.4-4.6-6.7-6.8-10c-2.1-2.9-4.5-5.7-6.1-8.9c-0.6-1.7-2.7-1.9-4.2-2.1c-2.2-0.1-4.2-1.2-6.4-1.5c-1.2-0.2-2.4-0.6-3.6-0.9
		C160.7,157.8,158,157.3,155.3,157"/>
	<path class="st0" d="M387.2,170.5c-2,0.2-3.8,1.2-5.6,1.9c-1.9,0.8-4,1-5.7,2.2c-2.5,1.6-5.5,2.1-8,3.6c-5.6,2.7-11,5.9-16,9.5
		c-2,1.2-3.9,2.5-5.6,4.1c-2.7,1.9-5.2,4-7.6,6.4c1.4-0.5,2.8-1,4.1-1.5c3.3-1.4,6.8-2.3,10.2-3.4c3.8-1.1,7.7-1.7,11.6-2.6
		c4.8-0.8,9.4-2.7,14.3-2.9c0.5,0,1-0.1,1.3-0.5c1.6-1.4,2.1-3.6,3.5-5.1c1.7-1.8,2.7-4,4.4-5.8c1.5-2.3,3.1-4.5,4.3-7
		C390.7,169.5,389,170.3,387.2,170.5"/>
	<path class="st0" d="M149.8,203.8c-2.4,0.9-4.9,0.6-7.4,1.3c-3.7,0.5-7.5,1.2-11.1,2.3c0.9,0.7,1.9,1.2,2.9,1.8
		c1.2,0.7,2.2,1.6,3.4,2.2c1.5,0.8,3.2,1.2,4.7,2c1.4,0.7,2.8,1.6,4.4,2c3,0.7,5.5,2.6,8.6,3.2c5.9,2.1,12,3.6,18.2,4.6
		c2.2,0.5,4.4,0.9,6.6,1c3.2,0.6,6.5,0.7,9.7,0.8c-1.7-0.8-3.4-1.6-5.1-2.3c-3.4-1.5-6.6-3.4-9.9-5.1c-3.2-1.9-6.2-4.1-9.4-6
		c-3.8-2.7-8.1-4.5-11.5-7.6C152.9,202.8,151.1,203.4,149.8,203.8"/>
	<path class="st0" d="M391.3,220.5c-2.1,0-4.3-0.3-6.4,0.1c-5.4,0.3-10.8,1-16.2,2.2c-2.9,0.7-6,0.9-8.8,2.1c-3.3,0.7-6.5,1.8-9.6,3
		c4.4,0.1,8.8,0.2,13.2,0.7c4.5,0.2,8.9,1.4,13.4,2.1c3.1,0.7,6.3,1,9.5,1.6c2.1,0.1,4,1,6,1.4c1.5-0.3,2.7-1.3,3.8-2.2
		c1.5-1.2,3.4-1.8,4.9-3c1.1-0.8,2.3-1.4,3.5-2.1c2.2-1.5,4.5-3,6.5-4.7c-1.7-0.5-3.5-0.4-5.1-0.9c-3-0.8-6.1-0.1-9.1-0.6
		C395.1,219.9,393.2,220.6,391.3,220.5"/>
	<path class="st0" d="M144.1,252.8c-1.9,1.7-4.4,2.5-6.4,4.1c-3.2,1.8-6.3,3.9-9.1,6.2c1.8,0.5,3.6,0.5,5.4,0.9
		c2.8,0.7,5.6,0,8.4,0.5c2.4,0.5,4.7-0.4,7.1-0.2c1.7,0.1,3.5,0.2,5.2-0.1c6.2-0.3,12.3-1.2,18.4-2.6c2.2-0.4,4.5-0.7,6.6-1.6
		c3.2-0.8,6.3-1.7,9.4-3c-1.3-0.2-2.6-0.2-3.9-0.2c-3.8,0.1-7.6-0.6-11.4-0.8c-3.6-0.4-7.1-1.3-10.7-1.9c-3.2-0.7-6.5-1.1-9.7-1.6
		c-2.1-0.1-4-1-6-1.4C146,251.3,145,252,144.1,252.8"/>
	<path class="st0" d="M349.7,259.9c2.9,1.4,6,2.5,8.8,4.1c2.9,1.6,5.9,3,8.7,4.8c5,3.3,10,6.6,15.2,9.6c1.5,0.9,2.7,2.2,4.1,3.1
		c2.6,0.4,4.9-1.2,7.5-1.1c4.8-0.8,9.7-1.3,14.3-2.9c-1.5-1.2-3.3-1.9-4.8-3c-2-1.5-4.4-2-6.6-3.1c-1.4-0.7-2.7-1.5-4.2-1.8
		c-3-0.7-5.5-2.6-8.5-3.1c-5.9-2.1-12-3.5-18.1-4.6c-2.1-0.5-4.1-0.9-6.3-1C356.5,260.2,353.1,259.9,349.7,259.9"/>
	<path class="st0" d="M196.7,288.2c-3.1,1.3-6.3,2.1-9.5,3.2c-3.7,1.2-7.6,1.7-11.3,2.6c-3.4,0.6-6.7,1.5-10.1,2.3
		c-2,0.7-4.1,0.6-6.1,1c-1.2,0.9-1.9,2.2-2.5,3.4c-0.9,1.8-2.5,3-3.5,4.8c-0.7,1.2-1.6,2.2-2.4,3.2c-1.4,2.2-3,4.4-4.1,6.8
		c1.9-0.2,3.6-1,5.5-1.2c2.3-0.3,4.4-1.7,6.6-2.4c1.5-0.5,3-0.8,4.4-1.7c2.3-1.5,5.1-2,7.5-3.4c1.6-1,3.4-1.5,4.9-2.6
		c5.2-2.7,10-6.2,14.9-9.4c1-0.7,1.8-1.7,2.9-2.4c2.5-1.7,4.7-3.7,6.9-5.8C199.5,287.2,198.1,287.7,196.7,288.2"/>
	<path class="st0" d="M337.2,289.2c0.9,1.1,1.9,2.2,3,3.2c2.4,2.3,4.4,5.1,6.6,7.6c2.5,2.9,4.4,6.3,6.7,9.4c2.1,3.3,4.6,6.4,6.9,9.6
		c0.9,1.3,1.4,2.8,2.4,4c1.2,0.7,2.5,0.9,3.8,1c2.1,0.2,4,1.2,6,1.5c1.3,0.2,2.6,0.6,3.9,1c2.6,0.5,5.2,1,7.9,1.2
		c-1-1.7-2.3-3-3.3-4.7c-1-1.7-2.5-3-3.9-4.3c-1.4-1.4-2.4-3.1-4-4.3c-2.2-1.6-3.8-4-6-5.6c-1.5-1.1-2.7-2.5-4.3-3.6
		c-4.5-3.8-9.6-6.9-14.5-10.3c-1-0.6-2.2-1-3.2-1.7C342.7,291.7,340,290.4,337.2,289.2"/>
	<path class="st0" d="M219.2,313.3c-1.9,1.9-4.1,3.6-6.2,5.4c-3.6,3.1-7.7,5.5-11.6,8.3c-3.9,2.4-7.2,5.7-11.4,7.7
		c-1.3,0.5-1.5,2.1-1.8,3.4c0,2.8-1.4,5.3-1.7,8.1c-1,3.5-1.6,7.1-2.1,10.8c1.7-0.9,3-2.3,4.6-3.3c2.1-1.2,3.5-3.2,5.3-4.8
		c1.1-1,2.4-1.8,3.3-3.1c1.8-2.5,4.6-4.2,6.3-6.8c5.1-5.5,9.2-11.9,13.3-18.2c1.8-3.7,4.2-7.1,5.7-11
		C221.7,310.9,220.4,312.1,219.2,313.3"/>
	<path class="st0" d="M314.1,311.4c0.4,1.3,0.9,2.6,1.4,3.8c1.4,3.4,2.4,6.9,3.5,10.4c0.8,2.3,1.2,4.7,1.6,7.1
		c1.1,4.9,2,9.8,3.4,14.6c0.5,1.7,0.4,3.5,0.8,5.2c1.4,1.9,3.8,2.4,5.4,3.9c1.8,1.7,4,2.7,5.8,4.4c2.3,1.5,4.5,3.1,7,4.3
		c-0.2-1.8-0.9-3.5-1.2-5.3c-0.3-2.6-1.8-4.8-2.5-7.2c-0.4-1.4-0.8-2.8-1.6-4c-1.6-2.6-2.1-5.7-3.8-8.2c-2.4-4.9-5.2-9.7-8.3-14.2
		c-1.7-2.3-3-4.9-5-7C318.7,316.4,316.5,313.8,314.1,311.4"/>
	<path class="st0" d="M246.4,334.8c-1.9,3.9-4.5,7.2-6.7,10.9c-1.9,2.7-3.5,5.5-5.2,8.3c-0.9,1.9-2.5,3.3-3.6,5.1
		c-0.4,2.3,1,4.4,1.1,6.7c0.1,2.4,0.9,4.6,1,7c0.6,2.7,1.1,5.4,1.9,8.1c1.1-1.5,1.8-3.3,3-4.8c1.2-1.6,1.8-3.5,2.6-5.3
		c0.7-1.7,1.9-3.3,2.4-5.2c0.7-3.2,2.7-5.9,3.3-9.1c1.1-2.9,1.9-5.9,2.7-8.9c1-3.8,1.5-7.6,2.4-11.4c0.4-1.9,0.3-3.9,0.7-5.8
		c0.4-2.7,0.4-5.4,0.6-8.1C250.6,326.6,248.7,330.8,246.4,334.8"/>
	<path class="st0" d="M284.4,323.3c-0.2,1.2-0.2,2.3-0.2,3.5c0.1,4.1-0.6,8.1-0.8,12.1c-0.9,5.9-2.3,11.8-3.1,17.8
		c-0.4,2-0.5,4.1-1.2,6c-0.2,1-1,2.2-0.4,3.2c0.7,1.8,2.3,3,3.1,4.7c0.7,1.6,1.7,3,2.7,4.4c1.7,3.1,3.8,6,6,8.7
		c0.5-1.8,0.5-3.7,0.9-5.4c0.7-2.5,0.1-5.2,0.5-7.8c0.2-1.5,0.3-3,0-4.4c-0.3-2-0.1-4,0-6c-0.5-6.4-1.1-12.8-2.5-19.1
		c-0.7-2.8-0.9-5.8-2-8.5C286.6,329.4,285.7,326.3,284.4,323.3"/>
</g>
<g>
	<path class="st1" d="M268.7,151.4c0.9,0.2,1.8,0.5,2.6,0.7c-0.2-2.4-0.2-4.9-0.3-7.3C269.9,146.9,269.8,149.3,268.7,151.4"/>
	<path class="st1" d="M233.6,151.9c-0.3,2.3,0.5,4.6,0.4,6.9c0.9-0.1,1.8-0.2,2.7-0.3C235.6,156.3,234.8,154,233.6,151.9"/>
	<path class="st1" d="M303.6,157.9c0.7,0.5,1.5,1.1,2.2,1.6c0.7-2.3,1.8-4.4,2.4-6.7C306.4,154.2,305.4,156.4,303.6,157.9"/>
	<path class="st1" d="M201.7,172.7c0.6,2.2,2.2,4,2.9,6.2c0.8-0.5,1.6-0.9,2.4-1.4C205.2,176,203.7,174.1,201.7,172.7"/>
	<path class="st1" d="M333.4,177.2c0.4,0.8,0.9,1.6,1.3,2.4c1.5-1.8,3.3-3.4,4.8-5.3C337.3,174.9,335.6,176.6,333.4,177.2"/>
	<path class="st1" d="M180.2,204c1.4,1.9,3.6,2.9,5.1,4.6c0.5-0.7,1.1-1.4,1.7-2.2C184.7,205.8,182.5,204.7,180.2,204"/>
	<path class="st1" d="M353.5,206.5c0.1,0.9,0.2,1.8,0.4,2.7c2.1-1.1,4.4-1.9,6.5-3C358.1,205.9,355.8,206.7,353.5,206.5"/>
	<path class="st1" d="M172.4,241.2c2,1.2,4.4,1.3,6.4,2.3c0.2-0.9,0.5-1.8,0.7-2.7C177.2,241.2,174.8,240.9,172.4,241.2"/>
	<path class="st1" d="M360.8,241.3c-0.2,0.9-0.4,1.8-0.7,2.7c2.4-0.2,4.8-0.2,7.3-0.3C365.4,242.4,363,242.3,360.8,241.3"/>
	<path class="st1" d="M179.3,278.7c2.3,0.3,4.6-0.4,6.9-0.4c-0.1-0.9-0.2-1.8-0.3-2.7C183.7,276.7,181.4,277.5,179.3,278.7"/>
	<path class="st1" d="M354.3,276.2c-0.5,0.7-1.1,1.4-1.7,2.2c2.3,0.7,4.4,1.8,6.7,2.4C358,278.9,355.9,277.9,354.3,276.2"/>
	<path class="st1" d="M200.1,310.5c2.2-0.6,4-2.2,6.2-2.9c-0.5-0.8-0.9-1.6-1.4-2.4C203.4,307.1,201.5,308.6,200.1,310.5"/>
	<path class="st1" d="M332.6,307.3c1.9,1.5,3.5,3.4,5.4,4.9c-0.6-2.3-2.2-4.1-3-6.3C334.2,306.4,333.4,306.9,332.6,307.3"/>
	<path class="st1" d="M233.9,325.3c-0.7,2.3-1.8,4.5-2.4,6.8c1-0.8,1.9-1.8,2.6-2.9c0.6-0.8,1.5-1.4,1.9-2.3
		C235.3,326.3,234.6,325.8,233.9,325.3"/>
	<path class="st1" d="M303,326.4c1.1,2.1,1.9,4.5,3.1,6.6c0.2-2.3-0.4-4.6-0.4-6.9C304.8,326.2,303.9,326.3,303,326.4"/>
	<path class="st1" d="M268.3,332.7c0.3,2.4,0.1,4.9,0.3,7.3c1.2-2,1.3-4.5,2.4-6.6C270.1,333.2,269.2,333,268.3,332.7"/>
</g>
<g>
	<path class="st2" d="M280.8,126.7c-0.4,0.4-0.9,0.8-1.3,1.2c-1.6,3.1-3.2,6.1-4.8,9.2c-0.2,1,0,2,0.5,2.8c1,2,1.3,4.2,2.4,6.1
		c1.1,1.9,1.8,3.9,2.4,5.9c0.5-1.1,1.1-2.2,1.5-3.4c0.1-1.3,0-2.5,0.3-3.8c0.4-1.4-0.4-2.7-0.3-4.1c0.1-1.4-0.4-2.8-0.2-4.3
		c0.3-2.1-0.4-4.1-0.4-6.2C281,129.1,280.9,127.9,280.8,126.7"/>
	<path class="st2" d="M235.6,131.3c-0.3,0.9-1,1.7-0.9,2.7c-0.2,3.1-0.5,6.3-0.8,9.4c0.3,0.8,0.8,1.6,1.4,2.1c1.8,1.5,3,3.5,4.8,4.9
		c1.7,1.3,3.1,2.9,4.5,4.5c0-1.5,0.3-3.1-0.4-4.6c-0.8-1.5-0.6-3.3-1.7-4.7c-0.9-1.3-1.4-2.9-2.2-4.2c-0.4-0.7-0.6-1.5-0.8-2.2
		c-0.8-1.9-2.1-3.4-2.7-5.4C236.6,133,236.1,132.2,235.6,131.3"/>
	<path class="st2" d="M322.5,140.3c-2.1,2-4.5,3.7-6.6,5.7c-1.2,0.7-2.1,2-1.9,3.4c0.2,2.4-0.4,4.8-0.1,7.1c0.3,2.1,0.1,4.2,0,6.3
		c1.2-1.1,2.7-2.1,3.1-3.7c0.4-1.4,1.6-2.4,1.9-3.8c0.3-2,1.3-3.8,1.7-5.7c1.4-2,1.5-4.5,2.4-6.6c0.6-1,0.9-2.1,1.2-3.2
		C323.6,139.9,323.1,140.1,322.5,140.3"/>
	<path class="st2" d="M195.7,152.8c0.1,0.9-0.3,1.8,0.1,2.6c0.8,2.1,1.3,4.4,2.1,6.6c0.4,1,0.4,2.4,1.3,3.1c0.6,0.6,1.5,0.9,2.3,1.2
		c1.9,0.7,3.5,1.9,5.4,2.4c2.1,0.6,4.1,1.6,6.1,2.5c-0.6-1.5-0.9-3.2-2.2-4.2c-1.2-1-1.7-2.6-3-3.4c-1.6-1-2.8-2.5-4.3-3.5
		c-1.5-2.3-4.1-3.3-5.8-5.4C197.2,154,196.4,153.5,195.7,152.8"/>
	<path class="st2" d="M356.8,168.5c-2.1,0.8-4.4,1.3-6.5,2.1c-1.1,0.4-2.4,0.4-3.2,1.3c-0.6,0.6-0.9,1.4-1.2,2.2
		c-0.7,1.9-1.9,3.5-2.4,5.5c-0.6,2.1-1.5,4.1-2.5,6.1c1.5-0.6,3.2-0.9,4.2-2.2c1-1.2,2.6-1.7,3.4-3c1-1.6,2.5-2.8,3.5-4.3
		c2.1-1.3,3.1-3.6,4.8-5.3c0.9-0.7,1.7-1.7,2.4-2.6C358.5,168.4,357.6,168.1,356.8,168.5"/>
	<path class="st2" d="M167.1,188c0.2,0.6,0.4,1.1,0.5,1.7c2.3,2.6,4.4,5.3,6.7,7.9c0.8,0.6,1.9,0.7,2.8,0.6c2.3-0.2,4.5,0.5,6.8,0.1
		c2.1-0.3,4.1-0.1,6.2,0c-1-1.1-1.9-2.5-3.4-3c-1.4-0.4-2.5-1.6-4-2c-2-0.3-3.8-1.3-5.8-1.7c-2.2-1.5-5.1-1.5-7.4-2.8
		C168.8,188.5,167.9,188.3,167.1,188"/>
	<path class="st2" d="M366.7,208c-1.5,1.8-3.6,2.9-4.9,4.8c-1.3,1.7-2.9,3.1-4.5,4.5c1.6,0,3.3,0.3,4.8-0.4c1.4-0.7,3.2-0.6,4.4-1.6
		c1.3-0.9,2.8-1.3,4.2-2.2c0.7-0.5,1.6-0.6,2.4-0.9c1.9-0.8,3.5-2.2,5.5-2.8c0.8-0.3,1.6-0.8,2.3-1.2c-0.6-0.3-1.2-0.6-1.8-0.8
		c-3-0.2-5.9-0.5-8.9-0.7C368.9,206.2,367.6,207,366.7,208"/>
	<path class="st2" d="M169.9,230.6c-2.3,0.2-4.7,0.6-7,0.3c-1.9,0.1-3.8,0.7-5.8,0.5c-1-0.1-2,0.1-3.1,0.2c0.5,0.4,0.9,1,1.4,1.4
		c3.2,1.5,6.2,3.3,9.3,4.7c0.9,0,1.8-0.2,2.5-0.6c1.9-1,4.1-1.3,5.9-2.3c1.9-1.1,4-1.8,6.1-2.6c-1.4-0.6-2.8-1.6-4.4-1.4
		C173.2,230.8,171.6,230,169.9,230.6"/>
	<path class="st2" d="M372.3,247.8c-1.9,1-4,1.2-5.9,2.3c-1.9,1.1-4,1.8-6.1,2.5c1.4,0.6,2.8,1.6,4.4,1.5c1.6-0.2,3.2,0.7,4.7,0.2
		c1.8-0.4,3.6-0.2,5.4-0.5c2.3,0.4,4.5-0.1,6.8-0.4c1.3,0.1,2.5,0.1,3.8-0.1c-0.9-1.8-3-2.1-4.5-3.1c-1.6-1-3.3-1.6-4.9-2.6
		C374.9,246.9,373.4,247.2,372.3,247.8"/>
	<path class="st2" d="M177.9,267.9c-1.4,0.7-3.1,0.6-4.4,1.5c-1.6,1.1-3.4,1.7-5.1,2.7c-2.7,0.5-4.6,2.6-7.2,3.3
		c-0.8,0.3-1.6,0.8-2.3,1.2c0.6,0.3,1.1,0.6,1.7,0.9c3.4,0.1,6.8,0.6,10.2,0.8c1-0.2,1.8-0.9,2.5-1.6c1.4-1.6,3.3-2.7,4.6-4.4
		c1.3-1.8,3-3.2,4.6-4.7C180.9,267.5,179.3,267.1,177.9,267.9"/>
	<path class="st2" d="M349.4,286.5c0.9,0.9,1.6,2,2.6,2.7c1.1,0.5,2.2,0.9,3.2,1.7c1.2,0.9,2.8,0.8,4.2,1.4c1.3,0.6,2.9,0.7,4.1,1.6
		c1.9,1,4.2,1.1,6.2,2.1c0.9,0.5,1.8,0.7,2.7,1c-0.3-0.7-0.3-1.6-0.9-2.1c-1.7-1.7-3-3.8-4.7-5.4c-0.8-0.8-1.3-2.1-2.5-2.4
		c-0.5-0.2-1.1-0.3-1.7-0.3c-2.4,0.2-4.8-0.4-7.1-0.1C353.6,286.8,351.5,286.6,349.4,286.5"/>
	<path class="st2" d="M194.6,301.1c-1.2,1.4-3.2,2.1-4,3.9c-1.5,1.6-2.7,3.5-4.5,4.9c-1.4,1.5-2.4,3.3-4,4.6
		c-0.7,0.6-1.2,1.4-1.8,2.1c1,0,2,0.2,2.9-0.2c2.6-0.9,5.3-1.7,8-2.5c1.3-0.2,2-1.4,2.4-2.6c0.7-2.1,2-3.9,2.6-6
		c0.6-2.1,1.5-4.1,2.5-6.1C197.3,299.7,195.7,299.9,194.6,301.1"/>
	<path class="st2" d="M326.5,313.6c0.4,1.1,0.7,2.2,1.3,3.2c0.8,1,1.8,1.8,2.4,2.8c0.8,1.4,2.5,2,3.6,3.2c0.8,0.9,2,1.5,2.8,2.5
		c1.4,1.9,3.7,2.8,5.1,4.6c0.6,0.8,1.5,1.4,2.3,2.1c-0.1-0.9,0.3-1.9-0.1-2.7c-0.8-2.1-1.2-4.4-2.1-6.5c-0.4-1-0.4-2.4-1.4-3.1
		c-0.8-0.8-1.9-0.9-2.8-1.4c-1.6-0.7-3.2-1.7-4.9-2.2C330.5,315.5,328.5,314.6,326.5,313.6"/>
	<path class="st2" d="M222.8,325.5c-0.4,1.5-1.7,2.5-2,4.1c-0.3,2-1.2,3.8-1.7,5.7c-1.5,2.2-1.5,5.1-2.8,7.4
		c-0.4,0.8-0.5,1.7-0.9,2.5c0.6-0.3,1.1-0.4,1.7-0.6c2.6-2.3,5.3-4.4,7.9-6.7c0.6-0.8,0.7-1.9,0.6-2.9c-0.2-2.3,0.5-4.5,0.1-6.8
		c-0.3-2.1-0.1-4.2,0-6.3C224.7,323.1,223.3,323.9,222.8,325.5"/>
	<path class="st2" d="M294.9,329.9c0,1.1-0.1,2.2-0.1,3.3c0.3,1.3,1,2.4,1.2,3.7c0.2,1.6,1.6,2.8,2.1,4.3c0.4,1.1,1.3,2.1,1.6,3.2
		c0.5,2.3,2.3,4.1,3,6.4c0.3,1,0.9,1.8,1.3,2.8c0.2-0.6,0.6-1.3,0.8-1.9c0.2-3.3,0.5-6.6,0.8-10c0-1.1-0.9-2-1.7-2.7
		c-1.7-1.5-2.8-3.4-4.6-4.7C297.7,333.1,296.4,331.4,294.9,329.9"/>
	<path class="st2" d="M258.1,337.3c0,1.1-0.2,2.3-0.4,3.4c0.3,2.9,0.9,5.8,0.5,8.6c0,2,0.7,4,0.5,6.1c-0.1,0.9,0.1,1.9,0.2,2.8
		c0.4-0.5,1-0.9,1.5-1.5c1.3-2.8,2.8-5.5,4.2-8.2c0.8-1.1,0.4-2.6-0.1-3.7c-1-1.9-1.2-4.1-2.3-5.9c-1.1-1.9-1.8-4-2.6-6.1
		C259,334.3,258,335.7,258.1,337.3"/>
</g>
<g>
	<path class="st3" d="M264.1,124.6c-0.3,2.2-1.2,4.2-1.3,6.4c-0.8,4.2-1.3,8.5-2,12.8c-0.3,2.5-1,5-0.8,7.6c1.4-0.2,2.8-0.5,4.1-0.7
		c0.5-1.6,1-3.2,1.7-4.8c1.5-2.9,2.6-6,4.1-8.9c-0.6-1.4-1-2.8-1.9-4.1c-0.6-0.7-0.4-1.7-0.9-2.5C266.2,128.6,265,126.7,264.1,124.6
		"/>
	<path class="st3" d="M307.6,134.3c-3.8,5.9-7.3,12-10.9,18c-0.4,0.7-0.7,1.5-1,2.3c1.4,0.3,2.7,0.6,4.1,0.9
		c1.4-1.6,2.6-3.2,4.3-4.5c2.1-1.9,4.1-4,6.3-5.8c0-1.7,0.1-3.4-0.2-5.1c0.6-2.8-0.5-5.7-0.6-8.5C309,132.5,308.3,133.4,307.6,134.3
		"/>
	<path class="st3" d="M219.5,135.9c0.2,0.9,0.4,1.8,0.4,2.7c0.1,2.1,1.1,4.1,1.4,6.2c1.2,5,2.6,10,3.8,15c0.2,0.8,0.6,1.6,1,2.3
		c1.2-0.7,2.3-1.5,3.5-2.2c-0.1-2.1-0.4-4.3-0.1-6.4c0.1-2.8,0.1-5.7,0.3-8.5c-1.1-1-2.1-2.2-3.4-3.1c-0.8-0.5-1-1.5-1.8-2
		C222.9,138.6,221.1,137.3,219.5,135.9"/>
	<path class="st3" d="M345.8,157.1c-5,3.6-9.9,7.3-14.9,11c-1.3,0.9-2.5,1.9-3.6,3.1c1.1,0.8,2.2,1.6,3.3,2.3
		c1.5-0.3,2.7-1.4,4.1-1.8c3.3-1.1,6.5-2.5,9.8-3.6c0.6-1.5,1.3-3,1.6-4.6c1.7-2.5,1.8-5.6,2.8-8.3C348,156,346.9,156.5,345.8,157.1
		"/>
	<path class="st3" d="M182.5,163.2c1.3,1.7,2.1,3.8,3.6,5.4c3.4,4.9,7.1,9.5,10.5,14.3c0.6,0.8,1.3,1.4,2,2.1
		c0.8-1.1,1.6-2.3,2.4-3.4c-0.8-1.6-1.7-3.2-2.3-4.9c-0.7-2.4-1.9-4.7-2.6-7.2c-0.2-0.6-0.4-1.3-0.8-1.8c-1.4-0.7-2.9-1.3-4.5-1.6
		C188.4,164.4,185.3,164.3,182.5,163.2"/>
	<path class="st3" d="M369.7,193.4c-4.1,0.8-8,2-12.1,2.9c-2.5,0.8-5.1,1-7.4,2.2c0.7,1.2,1.5,2.3,2.2,3.5c2.2-0.1,4.5-0.4,6.7-0.1
		c2.7,0,5.4,0.2,8.2,0.2c1.3-1,2.4-2.2,3.3-3.5c0.5-0.6,1.3-0.9,1.8-1.5c1.3-1.8,2.6-3.5,4-5.1C374.2,192.6,371.9,192.6,369.7,193.4
		"/>
	<path class="st3" d="M159,202.7c1.5,0.9,2.7,2.2,4.3,3c1.3,0.7,2.5,1.5,3.7,2.3c4.2,2.5,8.5,5,12.7,7.6c0.8,0.4,1.6,0.7,2.4,1
		c0.3-1.4,0.6-2.7,0.9-4.1c-1.2-1.1-2.6-2.1-3.7-3.3c-2.1-2.6-4.6-4.7-6.7-7.3c-1.6,0-3.3-0.1-4.9,0.3
		C164.8,201.6,161.9,202.6,159,202.7"/>
	<path class="st3" d="M360.9,232.7c0.2,1.4,0.5,2.8,0.7,4.2c2,0.6,4.1,1.2,6,2.3c2.5,1.2,5.2,2.2,7.7,3.5c1.4-0.6,2.8-1,4.1-1.9
		c0.7-0.6,1.7-0.5,2.5-0.9c1.9-1.1,3.8-2.3,5.9-3.3c-2.2-0.2-4.2-1.3-6.4-1.3c-4.2-0.8-8.5-1.3-12.8-2
		C365.9,233.2,363.4,232.5,360.9,232.7"/>
	<path class="st3" d="M160,244.3c-2.9,0.6-5.2,2.8-7.9,3.9c2.2,0.3,4.2,1.2,6.4,1.3c5.8,1,11.6,1.7,17.4,2.6c1,0.2,2,0.1,3,0.1
		c-0.2-1.4-0.5-2.8-0.7-4.2c-1.6-0.5-3.3-1-4.8-1.7c-2.9-1.5-6-2.6-8.9-4.1C162.9,242.8,161.4,243.4,160,244.3"/>
	<path class="st3" d="M357.7,268.3c-0.3,1.4-0.6,2.7-0.9,4.1c1.6,1.3,3.2,2.6,4.5,4.3c1.9,2.1,4,4.1,5.8,6.3c1.7,0,3.4,0.1,5.1-0.2
		c2.8,0.6,5.7-0.5,8.5-0.6c-0.6-0.4-1.3-0.9-1.9-1.4c-1.7-1.5-3.9-2.3-5.7-3.7c-3-1.8-6-3.5-8.9-5.3C362,270.6,360,269,357.7,268.3"
		/>
	<path class="st3" d="M172.3,282.5c-1.1,1.1-2.2,2.1-3,3.4c-0.5,0.8-1.4,1-2,1.8c-1.3,1.7-2.6,3.4-4,5.1c0.9-0.2,1.7-0.4,2.6-0.4
		c2.2-0.1,4.1-1.1,6.3-1.4c3.4-0.8,6.8-1.7,10.1-2.6c2.4-0.7,4.9-0.9,7.1-2.1c-0.7-1.2-1.5-2.3-2.2-3.5c-2.2,0.1-4.3,0.4-6.5,0.1
		C177.9,282.7,175.1,282.7,172.3,282.5"/>
	<path class="st3" d="M338.8,303.5c0.6,1.4,1.4,2.7,1.9,4.1c1,3.2,2.4,6.3,3.5,9.6c1.3,0.5,2.6,1.2,4,1.4c1,0.1,1.7,1,2.7,1.2
		c2.1,0.5,4.2,1.1,6.2,1.7c-0.8-1-1.4-2.2-2-3.3c-3.3-4.5-6.5-8.9-9.9-13.4c-1.4-1.7-2.4-3.7-4.2-5.1
		C340.4,301.1,339.2,302.2,338.8,303.5"/>
	<path class="st3" d="M204,313.5c-2.4,0.7-4.6,1.8-6.9,2.6c-0.7,0.3-1.4,0.4-2,0.9c-1.2,1.9-1.2,4.3-2.5,6.1
		c-0.7,2.2-1.1,4.5-1.9,6.7c1.5-1.2,3.3-1.8,4.8-3.1c1.2-1.1,2.7-1.8,3.9-2.8c2.6-2.1,5.3-3.9,7.9-6c1.7-1.4,3.7-2.4,5.1-4.2
		c-1.1-0.8-2.3-1.6-3.4-2.4C207.3,312,205.8,313,204,313.5"/>
	<path class="st3" d="M310.1,325c0.1,1.6,0.3,3.2,0.2,4.8c-0.3,3.4-0.1,6.8-0.4,10.1c1.1,1,2.1,2.2,3.4,3c0.8,0.5,1,1.4,1.8,2
		c1.8,1.3,3.5,2.6,5.1,4c-0.5-1.8-0.4-3.8-1-5.6c-0.5-1.4-0.6-2.8-1-4.2c-1.3-4.7-2.4-9.4-3.6-14.1c-0.2-0.8-0.6-1.5-0.9-2.3
		C312.5,323.6,311.3,324.3,310.1,325"/>
	<path class="st3" d="M239.9,329.3c-1.2,1.4-2.3,2.8-3.7,4c-2.1,1.7-3.9,3.8-6,5.6c-0.3,0.3-0.9,0.6-0.9,1.1c-0.1,1.6,0,3.2,0.3,4.8
		c-0.6,2.8,0.5,5.7,0.6,8.5c1-1.6,2.4-2.9,3.2-4.6c0.6-1.3,1.5-2.5,2.3-3.7c2.5-4.3,5-8.5,7.6-12.7c0.3-0.7,0.6-1.4,0.9-2.1
		C242.6,329.9,241.2,329.6,239.9,329.3"/>
	<path class="st3" d="M275.5,334.1c-0.8,1.4-1,3.1-1.7,4.5c-1.6,3-2.7,6.2-4.3,9.2c0.6,1.4,1.1,2.9,2,4.2c0.4,0.7,0.4,1.5,0.7,2.3
		c1.1,2,2.3,3.9,3.3,5.9c0.3-2.2,1.2-4.2,1.3-6.4c0.8-4.2,1.3-8.5,2-12.8c0.2-2.5,1-5,0.8-7.5C278.3,333.7,276.9,333.9,275.5,334.1"
		/>
</g>
<g>
	<path class="st4" d="M287,116c-1.1,1.9-2.6,3.6-3.5,5.6c0.3,2.2,0.6,4.4,1.2,6.5c0.3,2.3,0.4,4.5,0.6,6.8c0.8-1.5,0.9-3.2,1.3-4.8
		c1-3.2,1.3-6.6,2.2-9.8c0.3-2.7,1.1-5.4,1.3-8.1C289,113.5,287.8,114.6,287,116"/>
	<path class="st4" d="M237.3,119c-0.3,2.1-0.9,4.2-1.1,6.3c1,2.2,2.5,4.2,3.8,6.2c1,2,2.1,3.9,3,5.9c0-1.9-0.6-3.8-0.8-5.7
		c-0.2-2-0.7-3.9-1.1-5.8c-0.6-3.9-1.5-7.7-2.5-11.5C238.2,116,237.5,117.4,237.3,119"/>
	<path class="st4" d="M334.3,132.1c-1.8,1.4-3.8,2.4-5.5,3.9c-0.7,2.3-1.2,4.6-1.6,7c-0.7,2-1.3,4-1.9,6c1.3-1.3,2.1-2.9,3.2-4.3
		c1.2-1.4,2.1-2.9,3.1-4.4c1-1.7,2.4-3.2,3.3-4.9c1.1-1.8,2.4-3.5,3.3-5.4C336.9,130.7,335.4,131.1,334.3,132.1"/>
	<path class="st4" d="M192,135.9c0.2,1.6,0.1,3.3,0.6,4.9c0.6,2.1,0.8,4.3,1.4,6.4c1.9,1.5,3.9,2.9,5.9,4.2c1.6,1.4,3.2,2.7,4.8,4.1
		c-0.7-1.7-1.9-3.1-2.7-4.7c-1-1.8-2.3-3.5-3.4-5.2C196.6,142.2,194.3,139.1,192,135.9"/>
	<path class="st4" d="M371.1,165.2c-2,0.5-4.1,0.7-6.1,1.4c-1.5,1.9-2.9,3.9-4.2,5.9c-1.4,1.6-2.7,3.2-4.1,4.8
		c1.8-0.8,3.4-2.1,5.2-3c2.6-1.5,4.9-3.4,7.5-4.8c2.2-1.7,4.6-3.2,6.8-4.9C374.6,164.8,372.8,164.7,371.1,165.2"/>
	<path class="st4" d="M157.3,174c0.7,1.3,1.2,2.8,2.2,4c1.4,1.8,2.4,3.8,3.9,5.5c2.3,0.7,4.6,1.2,7,1.6c2,0.7,4,1.3,6,1.9
		c-1.2-1.3-2.9-2.1-4.3-3.3c-2.6-2-5.5-3.7-8.2-5.7C161.7,176.8,159.7,175.2,157.3,174"/>
	<path class="st4" d="M386.4,209c-2,1.1-3.9,2.3-5.7,3.7c-2,1-3.9,2.1-5.9,2.9c1,0,1.9-0.1,2.9-0.3c2.2-0.5,4.5-0.6,6.7-1.1
		c2.5-0.6,5-0.8,7.5-1.5c2-0.4,4-0.8,5.9-1.4c-3.1-1.3-6.5-1.6-9.7-2.3C387.5,208.9,386.9,208.6,386.4,209"/>
	<path class="st4" d="M139.6,222.3c1.2,0.8,2.1,2,3.3,2.7c1.7,1,3.4,2.2,5,3.3c0.4,0.3,0.9,0.7,1.5,0.5c1.5-0.2,3-0.4,4.4-0.7
		c2.8-0.7,5.8-0.7,8.7-1.1c-1.6-0.4-3.2-0.8-4.8-1.1c-3.3-1-6.7-1.3-10.1-2.3C145,223.2,142.3,222.5,139.6,222.3"/>
	<path class="st4" d="M383.7,257.3c-2.1,0.2-4.3,0.4-6.4,0.5c1.4,0.7,3,0.9,4.5,1.3c3.3,1,6.7,1.3,10.1,2.3c2.7,0.3,5.4,1.1,8.1,1.2
		c-1.2-0.8-2-2-3.3-2.7c-2-1.2-3.8-2.6-5.8-3.8C388.5,256.3,386.1,256.8,383.7,257.3"/>
	<path class="st4" d="M158.1,270.1c-5.4,1.1-10.9,1.9-16.3,3.5c3.1,1.3,6.5,1.6,9.7,2.3c0.6,0.1,1.2,0.3,1.7-0.1
		c2-1.1,3.9-2.3,5.7-3.7c1.9-1,3.8-2,5.8-2.9C162.5,269.3,160.3,270,158.1,270.1"/>
	<path class="st4" d="M363.3,297.9c1.2,1.3,2.9,2.1,4.3,3.2c1.6,1.3,3.4,2.4,5.1,3.5c3.2,2.3,6.5,4.4,9.9,6.4
		c-0.9-1.3-1.3-2.8-2.2-4c-1.4-1.8-2.5-3.8-3.9-5.5c-2.3-0.9-4.8-1.3-7.2-1.7C367.2,299.1,365.2,298.5,363.3,297.9"/>
	<path class="st4" d="M178.7,310c-2.9,1.5-5.4,3.6-8.3,5.2c-2.3,1.7-4.8,3.3-7.1,5.1c1.4-0.2,2.9-0.1,4.3-0.4c2-0.5,3.9-0.8,5.9-1.2
		c0.4-0.1,1-0.1,1.3-0.5c1.4-1.8,2.7-3.6,3.9-5.5c1.4-1.7,2.8-3.4,4.2-5C181.4,308.1,180.1,309.2,178.7,310"/>
	<path class="st4" d="M334.9,329.3c0.6,1.5,1.6,2.8,2.4,4.2c1.6,3,3.7,5.6,5.4,8.5c1.7,2.3,3.2,4.6,5,6.9c-0.2-1.5-0.1-3.1-0.5-4.6
		c-0.6-2.2-0.8-4.5-1.5-6.7c-1.9-1.5-3.9-2.9-5.9-4.2C338.1,332,336.5,330.7,334.9,329.3"/>
	<path class="st4" d="M211.5,339.7c-2.1,2.6-3.7,5.5-5.7,8.1c-1.4,2.4-3.1,4.6-4.3,7.1c3-1.2,5.5-3.3,8.3-5.1
		c0.5-0.4,1.1-0.6,1.3-1.2c0.6-2.2,1.1-4.5,1.5-6.8c0.7-2,1.3-4,1.9-6C213.2,337,212.5,338.4,211.5,339.7"/>
	<path class="st4" d="M296.6,347.4c0,2.3,0.7,4.4,0.9,6.7c1.1,5.5,1.9,10.9,3.5,16.3c1.3-3.1,1.6-6.5,2.3-9.7
		c0.1-0.6,0.3-1.2-0.1-1.7c-1.1-1.9-2.2-3.8-3.5-5.5C298.7,351.5,297.6,349.5,296.6,347.4"/>
	<path class="st4" d="M253.1,354.7c-1,3.2-1.3,6.5-2.2,9.6c-0.3,2.8-1.1,5.5-1.3,8.3c0.9-1.2,2.1-2.2,2.9-3.5c1.1-2,2.6-3.7,3.6-5.7
		c-0.2-2.4-0.7-4.7-1.2-7.1c-0.2-2.2-0.4-4.3-0.5-6.5C253.7,351.4,253.5,353.1,253.1,354.7"/>
</g>
<g>
	<path class="st5" d="M269.5,107.7c1.2,3.7,2,7.5,2.9,11.3c0.1,3.7,1.1,7.2,1.5,10.9c1.8-3.5,3.9-6.9,6-10.3
		c-0.1-2.2-0.8-4.3-1.5-6.4c-0.6-2.6-1.3-5.2-2.1-7.7c-1-2.2-1.6-4.6-2.6-6.9C271.9,101.5,270.8,104.7,269.5,107.7"/>
	<path class="st5" d="M218.3,108.1c-0.5,3.1-0.2,6.3-0.4,9.5c-0.1,0.6,0.4,0.9,0.7,1.3c2.1,2.5,4,5.3,5.9,7.9
		c0.9,1.2,1.2,2.7,2.1,3.9c1.4,2,2.5,4.1,3.8,6.1c0.4-3.9,1-7.9,1.6-11.8c-1-2.1-2.6-3.8-4-5.5c-1.4-2-3-4-4.6-5.9
		C221.6,111.9,220.1,109.9,218.3,108.1"/>
	<path class="st5" d="M321.1,117.8c-0.4,3.9-1,7.8-1.8,11.7c-1.3,3.4-1.7,7-2.7,10.4c3.1-2.5,6.2-4.8,9.4-7.1c1-2.3,0.9-4.9,1.2-7.4
		c0.8-4.7,1-9.5,1-14.3C325.7,113.1,323.5,115.5,321.1,117.8"/>
	<path class="st5" d="M170.8,138.1c0.8,3.2,2.4,6.2,3.4,9.3c3.5,1.8,6.8,3.9,10.1,6c2.6,2.5,5.8,4.3,8.6,6.5
		c-1.1-3.8-2.1-7.6-3-11.4c-1.7-1.6-3.8-2.5-5.8-3.6c-2.2-1.4-4.4-2.6-6.7-3.8C175.3,140.3,173.1,139,170.8,138.1"/>
	<path class="st5" d="M365.9,146.5c-0.4,0.2-1,0.2-1.2,0.7c-1.6,3.2-3.5,6.2-5.4,9.2c-0.7,1.2-1.9,2.1-2.7,3.3c-1.3,2-2.9,4-4.3,6
		c3.8-1.1,7.6-2.1,11.4-3c2.2-2.2,3.1-5.3,4.9-7.9c0.9-1.9,2.2-3.7,3-5.7c0.8-1.9,1.9-3.7,2.6-5.7
		C371.3,144.1,368.7,145.5,365.9,146.5"/>
	<path class="st5" d="M138.5,184c2,2.6,4.5,4.8,6.7,7.2c3.8,0.4,7.6,1,11.4,1.7c1.2,0.3,2.2,0.9,3.4,1.1c2.5,0.5,4.9,1.1,7.4,1.7
		c-2.4-3.1-4.8-6.2-7.1-9.4c-2.3-0.9-4.7-0.9-7.1-1.2C148.2,184.2,143.3,184,138.5,184"/>
	<path class="st5" d="M384.7,197.6c-3.3,1.4-6.2,3.7-9.3,5.5c3.9,0.5,7.9,0.9,11.7,1.7c2.8-1.4,4.9-3.8,7.5-5.5
		c1.6-1.4,3.5-2.5,4.9-4.1c1.4-1.5,3.1-2.7,4.6-4.2c-3.2-0.5-6.5-0.3-9.8-0.4C391.2,192.9,388,195.4,384.7,197.6"/>
	<path class="st5" d="M138.2,234.6c-2.2,0.7-4.5,1.1-6.6,2.1c-1.8,0.8-3.8,1.2-5.6,2c2.9,1.7,6,2.8,9.1,4.1
		c3.7-1.1,7.5-2.1,11.3-2.8c3.6-0.1,7.2-1,10.8-1.5c-3.4-1.9-6.8-3.8-10.1-5.9C144,232.5,141.3,234.1,138.2,234.6"/>
	<path class="st5" d="M392.8,245c-3.6,0-7,1.1-10.5,1.4c3.5,1.8,6.9,3.9,10.3,6c2.6,0,5-1.2,7.6-1.8c4.6-1,9-2.7,13.4-4.4
		c-2.8-1.7-6-2.7-8.9-4.1C400.8,243.1,396.8,244.3,392.8,245"/>
	<path class="st5" d="M147.6,283.7c-2.7,2.1-5.6,4.1-8.1,6.6c-1.3,1.2-2.7,2.3-4,3.6c2.6,0.4,5.2,0.2,7.9,0.4c0.9-0.1,2,0.3,2.6-0.5
		c2.6-2.2,5.4-4.1,8.2-6.1c1.2-0.9,2.7-1.2,3.9-2.1c2-1.4,4.1-2.6,6.1-3.8c-3.9-0.4-7.9-1-11.8-1.6
		C150.7,281.1,149.1,282.4,147.6,283.7"/>
	<path class="st5" d="M372.3,289.2c2.5,3.1,4.8,6.2,7.1,9.4c2.1,0.9,4.4,0.9,6.6,1.1c2.5,0.4,5,0.7,7.6,1c2.5-0.1,5,0.3,7.6,0.2
		c-2-2.6-4.5-4.7-6.7-7.2c-2.4-0.1-4.8-0.5-7.1-0.9c-2.2-0.4-4.6-0.6-6.7-1.5C378,290.5,375.1,289.9,372.3,289.2"/>
	<path class="st5" d="M176,322.2c-2.2,2.3-3.1,5.3-4.9,7.9c-0.9,1.9-2.2,3.6-3,5.6c-0.8,1.9-1.9,3.7-2.6,5.7
		c2.9-0.7,5.5-2.1,8.3-3.1c0.5-0.2,1.1-0.3,1.3-0.9c1.6-3.1,3.5-6,5.3-9c0.7-1.2,1.9-2.1,2.7-3.3c1.4-2,2.9-4,4.3-6
		C183.6,320.3,179.8,321.3,176,322.2"/>
	<path class="st5" d="M346.6,324.9c1.1,3.8,2.1,7.6,3,11.4c1.6,1.6,3.8,2.6,5.8,3.6c2.2,1.4,4.4,2.6,6.7,3.8
		c2.3,0.9,4.5,2.2,6.8,3.1c-0.9-3.2-2.3-6.3-3.5-9.4c-3.5-1.8-6.8-3.9-10.1-6C352.6,328.9,349.5,327.1,346.6,324.9"/>
	<path class="st5" d="M213.7,352c-0.9,2.2-0.9,4.5-1.1,6.8c-0.9,4.9-1.1,9.9-1.2,14.9c2.6-2,4.8-4.5,7.2-6.7c0.5-3.9,1-7.9,1.8-11.8
		c1.3-3.3,1.7-6.9,2.7-10.4C220,347.4,216.9,349.8,213.7,352"/>
	<path class="st5" d="M309.2,348c-0.4,3.9-1,7.8-1.6,11.7c1,2.1,2.5,3.8,4,5.5c1.4,2,3,4,4.6,5.9c1.8,1.7,3.4,3.7,5.1,5.5
		c0.5-2.7,0.2-5.5,0.4-8.3c-0.1-0.7,0.2-1.5-0.3-2c-2.4-2.9-4.6-6-6.7-9.1C313.2,354,311,351.1,309.2,348"/>
	<path class="st5" d="M260,365.1c-0.2,3.1,1.5,5.9,2,8.9c0.7,2.2,1.1,4.5,2.1,6.6c0.8,1.8,1.2,3.8,2,5.6c1.6-2.6,2.5-5.6,3.9-8.3
		c0.6-1.1-0.3-2.3-0.5-3.4c-0.9-3.8-2.2-7.7-2.3-11.7c-0.5-2.6-0.9-5.2-1.3-7.8C264,358.4,262,361.8,260,365.1"/>
</g>
<g>
	<path class="st6" d="M265.7,119.1c0.9,2.3,2,4.5,3.4,6.6c-0.3-3.9-0.6-7.9-1.9-11.7C266.6,115.6,266.1,117.3,265.7,119.1"/>
	<path class="st6" d="M313.2,127c0.1,2.4,0.2,4.9,0.6,7.3c1.3-3.8,2.4-7.6,2.8-11.6C315.4,124,314.2,125.4,313.2,127"/>
	<path class="st6" d="M218.2,124.6c0.2,1.9,0.3,3.8,0.7,5.6c1.8,1.6,3.5,3.3,5.5,4.5C222.6,131.2,220.7,127.7,218.2,124.6"/>
	<path class="st6" d="M354.1,152.3c-0.9,2.3-1.7,4.5-2.2,6.9c2.6-3,5.1-6.1,7-9.6C357.2,150.5,355.6,151.3,354.1,152.3"/>
	<path class="st6" d="M177,153.4c0.8,1.6,1.6,3.1,2.5,4.6c0.2,0.4,0.8,0.5,1.2,0.7c2,0.6,3.9,1.4,5.9,1.8
		C183.7,157.8,180.6,155.2,177,153.4"/>
	<path class="st6" d="M382.1,191.5c-1.6,1.8-3.3,3.5-4.5,5.5c3.5-1.8,7-3.7,10.1-6.2C385.8,190.9,383.9,191.1,382.1,191.5"/>
	<path class="st6" d="M150,195.6c1.4,1.2,2.8,2.4,4.3,3.4c2.4-0.1,4.9-0.2,7.3-0.6C157.9,197.2,154,196,150,195.6"/>
	<path class="st6" d="M392.2,238.7c-1.9,0.9-3.8,1.8-5.5,2.9c3.9-0.3,7.9-0.7,11.7-1.9c-1.6-0.6-3.2-1-4.9-1.4
		C393,238.2,392.6,238.6,392.2,238.7"/>
	<path class="st6" d="M141.2,245.1c1.7,0.5,3.5,1.1,5.3,1.5c2.3-0.9,4.5-2.1,6.6-3.4C149,243.5,145,243.9,141.2,245.1"/>
	<path class="st6" d="M378,286.4c3.8,1.2,7.6,2.4,11.6,2.8c-1.4-1.2-2.9-2.3-4.3-3.5C382.9,285.9,380.4,286,378,286.4"/>
	<path class="st6" d="M152,294.1c1.9-0.2,3.8-0.2,5.6-0.7c1.6-1.8,3.3-3.5,4.6-5.5C158.6,289.7,155,291.6,152,294.1"/>
	<path class="st6" d="M353,324.5c3,2.6,6.1,5.1,9.6,7c-0.8-1.6-1.7-3.3-2.7-4.8C357.6,325.8,355.3,325,353,324.5"/>
	<path class="st6" d="M180.8,335.2c1.6-0.8,3.3-1.7,4.8-2.7c0.9-2.3,1.7-4.6,2.2-6.9C185.2,328.6,182.6,331.7,180.8,335.2"/>
	<path class="st6" d="M315.3,350.1c1.8,3.5,3.7,7.1,6.2,10.2c-0.1-1.5-0.3-2.9-0.5-4.4c-0.1-0.5,0-1.1-0.5-1.4
		C318.8,353,317.2,351.3,315.3,350.1"/>
	<path class="st6" d="M223,362.3c1.2-1.5,2.4-2.9,3.5-4.4c-0.1-2.4-0.2-4.9-0.6-7.3C224.6,354.4,223.4,358.3,223,362.3"/>
	<path class="st6" d="M270.6,359.2c0.4,4,0.7,8,1.9,11.9c0.4-1.3,0.8-2.7,1.2-4c0.1-0.6,0.5-1.3,0.1-1.8
		C272.7,363.2,271.8,361.1,270.6,359.2"/>
</g>
<g>
	<path class="st7" d="M243,97.8c-1.1,2.7-1.9,5.6-2.5,8.5c0.8,3.8,2,7.6,2.9,11.4c-0.3,1.8,0.6,3.5,1,5.2c0.1-2.2,0.2-4.3-0.2-6.5
		c-0.2-0.7-0.1-1.5,0.1-2.2c0.5-2.8-0.3-5.7,0.6-8.5c0.6-1.6,0.1-3.3,0.8-4.8c0.3-1.1,0.9-2.3,0.8-3.4c-0.8-0.9-1.6-2-2.2-3.1
		C243.5,95.4,243.3,96.6,243,97.8"/>
	<path class="st7" d="M300.4,98.6c-1.9,1.8-3.5,4-5.1,6.1c-0.8,0.9-0.7,2.2-0.9,3.3c-0.5,3-0.7,6.1-1.3,9.1c-0.9,1.6-0.7,3.6-1,5.3
		c0.8-2,1.8-4,2.3-6.2c0.2-0.9,0.7-1.8,1.2-2.6c1.1-1.8,1.5-3.9,2.5-5.7c0.6-1.1,1.6-2,2.1-3.1c0.7-2,2.4-3.3,3.6-5
		c-0.5-1.3-0.8-2.6-0.9-3.9C301.8,96.5,301.1,97.6,300.4,98.6"/>
	<path class="st7" d="M189.5,115.4c-0.3,1.2,0,2.4,0.1,3.6c0,2.4,0.3,4.9,0.6,7.3c0.1,0.7,0.1,1.4,0.5,2c2.2,3,4.6,5.9,6.8,9
		c0.4,1.8,1.9,2.9,2.9,4.3c-0.8-2.4-1.9-4.6-3.1-6.8c-0.5-2.2-1.4-4.2-2.3-6.3c-0.8-1.6-0.5-3.5-1.2-5.1c-0.8-1.8-0.6-3.9-0.9-5.8
		C191.7,117,190.6,116.3,189.5,115.4"/>
	<path class="st7" d="M352,121.7c-2.3,1.1-4.6,2.3-6.7,3.8c-2.1,3.3-3.9,6.8-6,10.1c-1.4,1-1.8,2.7-2.7,4.1c1.1-1,2.1-2,3.1-3
		c0.9-1,1.5-2.2,2.7-2.9c2.4-1.7,4-4.4,6.7-5.7c1.4-0.6,2.2-2.1,3.7-2.7c1.1-0.5,2.1-1.1,3.1-1.7c0.2-1.3,0.3-2.7,0.7-4
		C354.8,120,353.5,121.2,352,121.7"/>
	<path class="st7" d="M147,155.8c0.3,1.5,1.4,2.7,1.9,4.2c1,2.2,2.2,4.3,3.4,6.4c0.5,1,1.7,1.3,2.6,1.9c2.7,1.6,5.4,3.1,8,4.7
		c1,1.4,2.7,1.9,4.1,2.8c-1.5-1.6-3-3.2-4.7-4.4c-0.9-0.7-1.5-1.8-2.3-2.6c-1.6-1.8-3.6-3.2-4.7-5.4c-0.6-1.4-2.1-2.2-2.7-3.7
		c-0.5-1.1-1.1-2.1-1.7-3.2C149.6,156.5,148.3,156.2,147,155.8"/>
	<path class="st7" d="M385,163.1c-1,0.1-1.7,1-2.5,1.5c-2.5,1.9-5,3.8-7.5,5.7c-1.7,0.4-2.9,1.9-4.3,2.9c2.4-0.8,4.6-1.9,6.7-3.1
		c2.2-0.5,4.3-1.4,6.3-2.3c1.6-0.8,3.5-0.5,5.1-1.2c1.8-0.8,3.9-0.6,5.9-0.9c0.5-1.3,1.3-2.4,2.2-3.5c-1.1-0.2-2.2-0.1-3.3,0.1
		C390.7,162.2,387.9,162.7,385,163.1"/>
	<path class="st7" d="M123.2,209.4c0.8,1.3,2.3,1.9,3.3,3c1.5,1.5,3.3,2.8,4.9,4.1c0.6,0.4,1.1,1,1.9,1.1c3.7,0.6,7.4,1,11.1,1.5
		c1.6,1,3.5,0.7,5.3,1.1c-2.1-0.8-4.1-1.8-6.3-2.3c-0.8-0.2-1.6-0.6-2.3-1.1c-1.9-1.2-4-1.6-5.9-2.7c-1.1-0.6-2-1.6-3.1-2.1
		c-2-0.7-3.3-2.4-5-3.6C125.9,209,124.6,209.2,123.2,209.4"/>
	<path class="st7" d="M394.6,216c-1.8-0.3-3.4,0.7-5.2,1c2.1,0.1,4.3,0.2,6.4-0.2c1.2-0.3,2.5,0.2,3.7,0.2c2.3,0.1,4.7-0.3,7,0.4
		c0.9,0.3,1.9,0.4,2.8,0.4c1.9,0,3.6,1.3,5.5,1.2c0.9-0.9,2-1.6,3.1-2.2c-1-0.7-2.3-1-3.5-1.3c-2.3-1-4.7-1.6-7.1-2.2
		c-0.6-0.1-1.1-0.4-1.7-0.2C401.9,214,398.2,215,394.6,216"/>
	<path class="st7" d="M389.8,264.7c2,0.8,4,1.8,6.2,2.3c1.4,0.3,2.5,1.3,3.8,1.8c2,0.9,4.3,1.5,6,3c1.2,1.1,2.8,1.3,4,2.4
		c0.8,0.8,1.7,1.5,2.6,2.1c1.3-0.2,2.7-0.8,4.1-0.8c-0.7-1.1-1.8-1.7-2.8-2.5c-2.1-2.1-4.4-3.9-6.8-5.6c-3.9-0.7-7.8-1-11.7-1.7
		C393.5,264.8,391.6,265,389.8,264.7"/>
	<path class="st7" d="M121.8,268.1c1.1,0.6,2.3,0.9,3.4,1.2c2.5,1.1,5.2,1.7,7.8,2.4c1.1,0.4,2.2-0.3,3.2-0.5c3-0.7,6-1.7,9.1-2.4
		c1.7,0.2,3.3-0.7,5-1c-2.5-0.2-5,0-7.5,0.3c-3.4-0.8-6.9,0.2-10.3-0.9c-1.2-0.4-2.5,0-3.7-0.5c-1.2-0.4-2.4-0.9-3.7-1.1
		C124,266.5,123,267.4,121.8,268.1"/>
	<path class="st7" d="M372.5,309.1c1,1.1,2,2.1,3.1,3.1c1,0.9,2.2,1.5,2.9,2.7c1.6,2.4,4.4,4,5.7,6.7c0.7,1.5,2.2,2.4,2.8,3.9
		c0.6,1,0.9,2.3,1.8,3c1.3,0.1,2.5,0.3,3.8,0.6c-0.2-1.1-0.8-2-1.4-2.9c-1.3-2.9-2.7-5.7-4.5-8.3c-3.3-2.1-6.8-3.9-10.1-6
		C375.6,310.4,373.9,310,372.5,309.1"/>
	<path class="st7" d="M162,314.9c-3.2,0.6-5.9,2.7-9.2,3c-1.5,0.1-2.7,1-4.2,1.1c-1.3,0.1-2.5,0.2-3.8,0.3c-0.5,1.3-1.3,2.4-2.1,3.4
		c1.2,0.3,2.4,0,3.6-0.1c3,0,5.9-0.4,8.8-0.9c3.2-2.2,6.2-4.8,9.4-7.1c1.7-0.4,2.9-1.9,4.3-2.9C166.5,312.5,164.3,313.8,162,314.9"
		/>
	<path class="st7" d="M339.1,343.2c0.8,2.5,2,4.7,3.2,7c0.6,3.2,2.7,5.9,2.9,9.1c0.1,1.5,1,2.7,1.1,4.2c0.1,1.3,0.2,2.5,0.3,3.8
		c1.3,0.5,2.4,1.3,3.5,2.1c0.4-1.5-0.2-2.9-0.2-4.4c0.1-2.2-0.4-4.3-0.6-6.4c-0.1-0.7-0.1-1.5-0.6-2.1c-2.2-3-4.6-5.9-6.8-9
		C341.6,345.8,340.1,344.7,339.1,343.2"/>
	<path class="st7" d="M198.2,350.4c-1.9,1.3-3.5,3-5.1,4.7c-1.2,1.3-2.9,1.8-4.1,3c-1.4,1.5-3.5,2-5.1,3.2c0,1.3-0.3,2.7-0.6,3.9
		c1.5-0.2,2.6-1.3,3.9-1.8c2.1-0.9,4.1-2.1,6.1-3.3c0.4-0.3,1-0.5,1.3-1c2-3.3,3.8-6.7,5.8-9.9c1.4-1,1.9-2.7,2.7-4.1
		C201.3,346.7,199.7,348.5,198.2,350.4"/>
	<path class="st7" d="M295.3,362c-0.1,1.4-0.1,2.8,0,4.2c0,1.4,0.6,2.8,0.2,4.3c-0.7,3,0.3,6.1-0.7,9c-0.5,1.4,0,2.9-0.6,4.3
		c-0.4,1.2-0.9,2.4-0.9,3.6c0.9,1,1.6,2,2.2,3.1c1-1.3,1-3.1,1.7-4.5c0.9-2.4,1.6-4.9,2.1-7.4c-0.8-3.9-2.1-7.7-3-11.6
		C296.5,365.2,295.6,363.6,295.3,362"/>
	<path class="st7" d="M244.9,369.8c-1.2,1.9-2,4.1-2.9,6.1c-0.6,1.6-2.1,2.8-2.7,4.4c-0.7,1.9-2.4,3.1-3.5,4.8
		c0.6,1.2,0.8,2.6,0.9,3.9c1.4-1,2.2-2.6,3.5-3.7c1.7-1.8,3.2-3.8,4.6-5.9c0.8-3.9,1-7.9,1.8-11.9c0.9-1.5,0.6-3.3,0.9-4.9
		C246.5,364.9,245.6,367.3,244.9,369.8"/>
</g>
<g>
	<path class="st8" d="M280.7,88.7c-2.2,1.6-4,3.7-5.2,6.1c0.2,0.9,0.7,1.7,1.1,2.5c1.3,2.3,1.9,5,3.1,7.4c1.5,3.3,2,6.9,3.1,10.4
		c2.3-3.2,4.3-6.6,6.7-9.6c0.5-0.8,1.4-1.5,1.4-2.5c0-2.6,0.1-5.3,0-7.9c-0.8-2-1.7-4-3.1-5.7C286.1,87.3,282.9,87.5,280.7,88.7"/>
	<path class="st8" d="M221.1,96.2c-1.5,2.3-2.3,5-2.6,7.8c0.6,0.6,1.3,1.2,2,1.7c2.1,1.7,3.8,4,5.8,5.8c2.6,2.4,4.4,5.6,6.7,8.3
		c0.6-1.9,0.8-3.9,1.3-5.9c0.5-2.6,1.2-5.1,1.8-7.6c-0.8-2.5-1.8-4.9-2.9-7.3c-0.4-1-1.3-1.7-2.1-2.4c-1.2-1-2.5-2.2-4-2.7
		C224.9,93.2,222.5,94.5,221.1,96.2"/>
	<path class="st8" d="M331.4,108.3c0.1,2.1,0.6,4.1,0.3,6.2c-0.3,2.6,0.1,5.3-0.3,7.9c0,2.4-0.9,4.8-0.9,7.3
		c3.6-2.3,7.1-4.8,10.9-6.9c1.1-0.4,1.4-1.7,1.9-2.6c0.8-2,1.8-3.9,2.4-6c0-2.2-0.1-4.4-0.8-6.5c-1-2.4-4-3.4-6.4-3.1
		C335.9,105.2,333.5,106.6,331.4,108.3"/>
	<path class="st8" d="M168.8,125.9c-0.5,2.7-0.3,5.6,0.7,8.2c1,0.5,2.1,0.7,3.2,1.1c2.3,0.8,4.5,2.1,6.8,2.9
		c3.4,1.3,6.3,3.4,9.5,5.1c-0.7-4.5-1.8-9-2.3-13.6c-1.9-2.3-4-4.4-6.2-6.3c-2-0.9-4.1-1.6-6.2-1.8
		C171.6,121.4,169.6,123.6,168.8,125.9"/>
	<path class="st8" d="M378.3,142c-0.5,0.6-0.6,1.4-0.9,2.1c-0.7,2.8-2.3,5.3-3.3,8c-1.3,3.4-3.4,6.2-5,9.4c4.5-0.7,9-1.8,13.5-2.3
		c2.3-1.9,4.4-3.9,6.3-6.2c0.9-2,1.6-4.1,1.9-6.3c0-2.5-2.1-4.5-4.3-5.3C383.8,140.8,380.9,141.2,378.3,142"/>
	<path class="st8" d="M135.3,167.2c-2.6,0.8-3.7,4-3.4,6.5c0.6,2.6,2,5,3.6,7.1c2,0,4-0.5,5.9-0.3c2.7,0.2,5.5-0.1,8.2,0.3
		c2.5,0.1,4.9,0.8,7.4,0.9c-1.9-3.3-4.3-6.2-6.1-9.6c-0.6-0.9-1-2.3-2.2-2.7c-2.4-1.1-4.8-2.2-7.3-3
		C139.5,166.5,137.3,166.6,135.3,167.2"/>
	<path class="st8" d="M408.3,191.1c-0.7,0.7-1.3,1.5-1.9,2.2c-1.7,2.1-3.9,3.6-5.7,5.6c-2.4,2.6-5.5,4.4-8.2,6.7
		c2.9,0.8,6,1.2,8.9,1.9c1.6,0.3,3.2,1,4.8,1.1c2.4-0.7,4.7-1.8,7-2.8c1-0.4,1.7-1.3,2.4-2.1c1-1.2,2.2-2.5,2.7-4
		c0.6-2.2-0.6-4.5-2.1-6C413.9,192.2,411.1,191.4,408.3,191.1"/>
	<path class="st8" d="M116.8,224.4c-2.1,1.7-1.9,4.9-0.7,7.1c1.5,2.2,3.7,4,6.1,5.2c0.7,0,1.4-0.5,2-0.8c2.6-1.5,5.5-2.2,8.2-3.4
		c3.2-1.4,6.7-1.9,10.1-3c-2.2-1.7-4.6-3-6.8-4.7c-1.6-1-3-2.4-4.6-3.3c-2.8-0.3-5.7-0.1-8.5-0.1
		C120.5,222.1,118.5,223.1,116.8,224.4"/>
	<path class="st8" d="M413.2,250.1c-1.9,0.8-3.8,1.3-5.7,2.2c-3.3,1.5-6.9,2-10.3,3.1c1.9,1.6,4.1,2.8,6.1,4.2
		c1.8,1.2,3.4,2.6,5.3,3.8c2.1,0.2,4.2,0.1,6.3,0.1c1-0.1,2.2,0.2,3.1-0.4c1.9-0.9,3.9-1.7,5.4-3.3c1.4-1.8,1.2-4.4,0.3-6.4
		c-1.5-2.4-3.8-4.1-6.3-5.5C416,248.6,414.7,249.5,413.2,250.1"/>
	<path class="st8" d="M132.8,276.4c-2.4,0.9-4.8,1.8-7.1,3c-1.6,1.4-3,3.1-4.1,4.9c-1.3,2.4,0.1,5.3,2,6.9c2.3,1.5,5.1,2.3,7.8,2.6
		c2.5-3.3,5.7-5.8,8.5-8.8c2.3-2.1,4.9-3.8,7.3-5.8c-3.6-0.9-7.2-1.4-10.8-2.4C135.2,276.6,134,275.9,132.8,276.4"/>
	<path class="st8" d="M382.5,303.2c1.3,2.3,3,4.4,4.4,6.7c1.1,1.7,2,3.5,3.1,5.1c1.9,1,4,1.8,6,2.7c0.9,0.3,1.8,0.8,2.8,0.7
		c2-0.1,4.1-0.1,6.1-0.9c2.2-1.1,3-3.7,2.9-6c-0.5-2.8-2-5.3-3.8-7.5c-1,0-1.9,0.2-2.9,0.3c-2.4,0.3-4.7-0.2-7.1-0.1
		c-1.8,0.1-3.6-0.1-5.4-0.2C386.5,303.8,384.6,303.2,382.5,303.2"/>
	<path class="st8" d="M158,325.5c-1.3,0-2.1,1.2-3,1.9c-1.4,1.4-3,2.8-4.3,4.4c-0.9,2-1.6,4.1-1.8,6.2c-0.1,2.6,2.2,4.6,4.5,5.4
		c2.7,0.5,5.4,0.3,8-0.6c0.6-0.5,0.6-1.4,0.9-2.1c0.7-2.8,2.3-5.3,3.3-8c1.3-3.3,3.4-6.2,5-9.4C166.4,323.9,162.2,325.1,158,325.5"
		/>
	<path class="st8" d="M350.8,341.7c0.1,2.1,0.7,4.1,1.1,6.1c0.5,2.5,0.8,4.9,1.2,7.4c1,1.6,2.5,2.8,3.8,4.2c1,0.9,1.9,2.2,3.3,2.6
		c1.8,0.6,3.6,1.3,5.6,1.4c2.5-0.2,4.4-2.3,5.1-4.5c0.5-2.7,0.3-5.5-0.6-8c-0.6-0.5-1.4-0.6-2.1-0.8c-1.7-0.4-3.3-1.2-4.8-1.9
		c-2-1-4.3-1.6-6.2-2.8C354.9,344.3,353,342.7,350.8,341.7"/>
	<path class="st8" d="M204.5,358.2c-2.1,1.4-4.3,2.7-6.5,4c-0.9,0.4-1.1,1.4-1.5,2.2c-0.9,2.1-1.8,4.1-2.5,6.2
		c0,2.1,0.1,4.2,0.7,6.3c0.8,2.5,3.7,3.6,6.2,3.4c2.8-0.5,5.3-1.9,7.5-3.7c0-2-0.5-3.9-0.3-5.9c0.2-2.6-0.1-5.3,0.2-7.9
		c0.1-2.6,0.8-5.1,1-7.6C207.5,356,206,357.2,204.5,358.2"/>
	<path class="st8" d="M306.6,365.1c-0.9,3.1-1.2,6.4-2.1,9.5c-0.3,1.4-0.9,2.8-0.9,4.3c0.7,2.4,1.8,4.7,2.7,7
		c0.4,1.1,1.4,1.8,2.3,2.6c1.2,1,2.3,2,3.8,2.6c2.3,0.6,4.7-0.6,6.2-2.3c1.5-2.3,2.3-5.1,2.6-7.8c-1.1-1-2.4-1.9-3.4-3
		c-1.5-1.5-2.8-3.2-4.4-4.6C310.7,370.8,308.9,367.7,306.6,365.1"/>
	<path class="st8" d="M250.7,378.6c-0.7,1.2-2.1,2.1-2,3.7c-0.1,2.3,0,4.5,0,6.8c0,1.2,0.8,2.3,1.2,3.4c0.9,1.6,1.8,3.6,3.6,4.3
		c2.4,0.9,5.4,0.1,7.1-1.9c1.5-1.3,2.7-3,3.6-4.7c-0.2-0.8-0.6-1.6-1-2.3c-1.4-2.4-2-5.2-3.2-7.7c-1.5-3.3-2-6.9-3.1-10.3
		C254.7,372.6,253,375.8,250.7,378.6"/>
</g>
<g>
	<path class="st9" d="M250.4,97c1.6,2.1,3.3,4.1,4.8,6.3c0.8,1.1,1.8,2,2.4,3.3c0.9,1.7,2.5,2.9,3.3,4.6c0.5,1.2,1.3,2.2,2.1,3.3
		c0.9-2.3,1.3-4.8,2.5-7c-0.1-1.4-0.9-2.7-1.4-4c-1.2-2.6-1.5-5.6-3.2-8.1c-1.1-2.9-1.9-5.9-3.5-8.6C254,89.3,251.5,92.9,250.4,97"
		/>
	<path class="st9" d="M307.6,100.6c1,3.4,1.8,6.9,2.8,10.4c0.1,2.5,1.4,4.8,1.5,7.3c0.1,1.1,0.4,2.1,0.6,3.2c1.7-1.8,3.1-3.8,5-5.4
		c0.6-1.2,0.3-2.8,0.3-4.1c-0.1-2.9,0.8-5.8,0.2-8.7c0.1-3.1,0.6-6.2,0.1-9.3C313.9,94.9,310.1,97.3,307.6,100.6"/>
	<path class="st9" d="M196.4,115.5c2.4,1.5,4.9,2.8,7.4,4.3c1.8,0.8,3.1,2.2,4.8,3c2.2,1,3.8,2.8,5.9,4c-0.1-2.5-0.5-4.9-0.4-7.4
		c-0.5-1.4-1.9-2.2-2.9-3.3c-2-1.8-3.3-4.3-5.5-5.8c-1-0.7-1.7-1.8-2.6-2.7c-1.4-1.5-2.8-3-4.4-4.3
		C196.7,107,195.5,111.4,196.4,115.5"/>
	<path class="st9" d="M359,125.8c-0.4,3.6-1,7.3-1.4,10.9c-0.7,2-0.6,4-1.1,6c-0.5,1.4-0.8,2.8-1,4.3c2.3-1.1,4.5-2.4,6.9-3.3
		c0.9-1.3,1.3-2.9,2-4.4c0.8-1.8,1.9-3.5,2.6-5.3c0.8-3.7,3.4-6.8,4.1-10.5C366.9,123,362.6,123.8,359,125.8"/>
	<path class="st9" d="M150.9,141.2c-0.5,4.2,0.2,8.4,2.3,12.1c2.4,0.3,4.8,0.6,7.2,1c1.5,0.3,3.1,0.2,4.5,0.7c1.9,0.6,3.9,0.4,5.8,1
		c1.2,0.4,2.5,0.6,3.7,0.9c-1-2.3-2.4-4.4-3.2-6.7c-0.8-0.9-2.1-1.2-3.2-1.7c-3-1-5.5-3.1-8.7-3.7
		C156.6,143.4,153.9,141.8,150.9,141.2"/>
	<path class="st9" d="M393.8,174c-1.1,1.7-1.8,3.6-3.1,5.1c-1.2,1.4-1.7,3.2-2.9,4.6c-0.9,1-1.6,2.2-2.4,3.3
		c2.6-0.2,5.1-0.5,7.7-0.4c1.8-1.3,3-3.1,4.7-4.4c1.7-1.3,3.3-2.7,4.5-4.5c2.2-2,4.6-3.9,6.5-6.4c-3.5-2.1-7.8-3.1-11.9-2.6
		C395.7,170.4,394.9,172.4,393.8,174"/>
	<path class="st9" d="M121.2,194.3c1.1,4.1,3.4,7.8,6.8,10.4c3.3-1,6.6-1.7,9.9-2.7c0.6-0.2,1.2-0.2,1.8-0.3
		c1.8-0.2,3.4-1.1,5.2-1.2c1.3-0.1,2.7-0.4,4-0.7c-1.5-1.6-3.5-2.7-4.9-4.4c-0.8-1.2-2.3-0.8-3.5-0.8c-3.4,0.3-6.8-0.8-10.2-0.1
		C127.3,194.2,124.2,193.9,121.2,194.3"/>
	<path class="st9" d="M407.1,229.4c-1.1,0.8-2.4,1.3-3.4,2.3c-1.7,1.6-4,2.4-5.9,3.9c1.7,0.8,3.6,1.1,5.3,1.8
		c0.9,0.3,1.8,1.1,2.7,0.6c2.5-1,4.9-2.1,7.5-2.7c1.9-0.4,3.3-1.8,5.1-2.2c2.4-0.7,4.8-1.6,7-2.9c-2.5-3.4-6.1-5.9-10.2-7
		C412.6,225.2,409.8,227.2,407.1,229.4"/>
	<path class="st9" d="M130.9,248.2c-2.6,1.2-5.7,1.5-8.1,3.2c-2.9,1.1-5.9,1.9-8.5,3.5c2.5,3.4,6.1,5.9,10.2,7
		c1.8-1.4,3.6-2.8,5.4-4.2c1.4-1,2.6-2.2,4.1-3c1.7-0.9,2.9-2.5,4.6-3.3c1.2-0.5,2.2-1.3,3.2-2c-2.3-0.9-4.8-1.4-7-2.6
		C133.4,246.9,132.2,247.7,130.9,248.2"/>
	<path class="st9" d="M400.9,283c-2.3,0.1-4.3,1.3-6.6,1.4c-1.2,0.1-2.4,0.4-3.6,0.6c1.8,1.7,3.8,3.1,5.4,5c1.1,0.6,2.5,0.3,3.7,0.3
		c3.1-0.1,6.3,0.8,9.4,0.1c3,0.2,6,0.6,9.1,0.1c-1.1-4-3.4-7.9-6.9-10.3C408,281.1,404.4,282.2,400.9,283"/>
	<path class="st9" d="M146.5,298.2c-1.4,0.9-2.3,2.3-3.5,3.4c-1.2,1.2-2.6,2.2-3.8,3.3c-1,0.9-1.6,2.1-2.6,3
		c-2.1,1.7-4.1,3.5-5.7,5.6c3.6,2.2,7.9,3.2,12.1,2.6c1.8-3.2,3.6-6.3,5.4-9.5c1.7-1.8,2.3-4.3,4.1-6.1c0.7-0.8,1.2-1.7,1.8-2.6
		C151.6,297.9,149.1,298.4,146.5,298.2"/>
	<path class="st9" d="M365.3,328.1c0.8,2.1,2.2,3.9,2.9,6.1c0.3,1.3,1.8,1.5,2.8,2c2.5,0.8,4.8,2.3,7.2,3.4
		c3.7,0.8,6.8,3.4,10.6,4.1c0.5-4.2-0.2-8.5-2.3-12.1c-4.6-0.6-9.2-1-13.7-2C370.2,329.5,367.8,328.4,365.3,328.1"/>
	<path class="st9" d="M177.3,341.1c-0.9,1.1-1.2,2.6-1.8,3.9c-0.8,2-2,3.8-2.8,5.8c-0.8,3.7-3.4,6.8-4.1,10.5
		c4.1,0.5,8.4-0.2,12.1-2.3c0.7-4.5,1-9.1,2-13.6c0-2.6,1.1-5,1.5-7.5C181.8,338.9,179.7,340.3,177.3,341.1"/>
	<path class="st9" d="M325.2,358.1c0.1,2.6,0.5,5.1,0.4,7.6c1.3,1.8,3.2,3.2,4.6,4.9c1.3,1.6,2.6,3.2,4.3,4.3c2,2.2,3.9,4.6,6.4,6.5
		c2.2-3.6,3.2-7.9,2.6-12.1c-2.1-1.2-4.3-2.4-6.4-3.7c-1.2-0.8-2.6-1.3-3.7-2.3c-1.5-1.3-3.6-1.8-5-3.2
		C327.3,359.4,326.2,358.8,325.2,358.1"/>
	<path class="st9" d="M222.6,368.5c-1,0.8-0.6,2.2-0.7,3.3c0.3,3.4-0.8,6.8-0.1,10.2c-0.2,3-0.5,6.1-0.1,9.1
		c4.1-1.1,7.8-3.4,10.4-6.8c-1-3.3-1.7-6.6-2.7-9.9c-0.2-0.6-0.2-1.2-0.3-1.8c-0.2-1.8-1.1-3.4-1.2-5.2c-0.1-1.3-0.4-2.6-0.7-3.9
		C225.6,365,224.4,367,222.6,368.5"/>
	<path class="st9" d="M276.8,370.5c-0.9,2.3-1.4,4.8-2.5,7c-0.1,1.2,0.7,2.3,1.1,3.5c1.4,2.8,1.6,6,3.4,8.6c1.1,2.9,1.9,5.9,3.5,8.6
		c3.4-2.5,5.9-6.1,7-10.2c-1.6-2-3.2-4-4.7-6.1c-0.8-1.1-1.8-2-2.4-3.2c-0.9-1.8-2.6-3.1-3.4-4.9
		C278.3,372.5,277.5,371.5,276.8,370.5"/>
</g>
<g>
	<path class="st1" d="M261.6,86.2c0.6,1.2,0.9,2.6,1.6,3.8c1.1,1.9,1.6,4.1,2.7,6c1,1.7,0.9,3.9,1.8,5.7c1-2.5,2.6-4.6,3.9-6.9
		c-1.2-1.9-2.3-3.8-3.7-5.6C266.3,87.3,263.8,86.7,261.6,86.2"/>
	<path class="st1" d="M322,94.9c0.1,1.4-0.1,2.8,0,4.2c0.2,2.2-0.1,4.4,0.2,6.5c0.3,2-0.7,3.9-0.5,5.9c1.9-1.9,4.2-3.2,6.2-4.9
		c-0.3-2.2-0.7-4.4-1.3-6.5C325.9,97.8,323.8,96.3,322,94.9"/>
	<path class="st1" d="M202.5,101.2c1.1,0.9,1.9,2.1,3,3c1.6,1.3,2.8,2.9,4.4,4.2c1.8,1.2,2.5,3.4,4.1,4.8c-0.1-2.6,0.7-5.1,0.9-7.7
		c-0.4-0.6-1.1-1-1.7-1.4c-2-1.2-3.9-3-6.3-3.2C205.4,100.8,203.9,101,202.5,101.2"/>
	<path class="st1" d="M372.9,130.1c-0.6,2-1.7,3.8-2.2,5.8c-0.5,2-2.1,3.4-2.8,5.4c2.4-1,5.1-1.3,7.6-2.2c0.5-2.1,1-4.2,1.3-6.3
		c0.4-2.5-1-4.7-2.3-6.7C374,127.6,373.2,128.7,372.9,130.1"/>
	<path class="st1" d="M153.6,137.8c1.4,0.4,2.6,1.3,4,1.6c2,0.6,3.9,1.7,5.9,2.3c2,0.5,3.3,2.1,5.3,2.7c-1.1-2.4-1.3-5.1-2.2-7.6
		c-2.1-0.5-4.2-1-6.3-1.3C157.8,135.2,155.6,136.5,153.6,137.8"/>
	<path class="st1" d="M408,178.1c-1.3,1.7-3.1,3-4.4,4.6c-1.2,1.6-3.3,2.2-4.5,3.8c1.7,0.1,3.4,0.2,5,0.5c0.9,0.1,1.9,0.4,2.8,0.2
		c1.3-1.7,2.4-3.4,3.5-5.2c1.3-2.2,0.9-4.8,0.5-7.1C410.1,176.2,408.9,177,408,178.1"/>
	<path class="st1" d="M127.6,185.6c-2.4,0.6-3.8,2.7-5.2,4.6c1.4-0.1,2.8,0.2,4.2,0c2.1-0.3,4.3,0.1,6.4-0.2c2-0.3,4,0.7,6,0.5
		c-1.9-1.9-3.2-4.2-4.9-6.2C131.9,184.7,129.7,185.1,127.6,185.6"/>
	<path class="st1" d="M422.2,235.8c-1.9,1.1-4,1.6-5.9,2.7c-1.7,1-3.9,0.9-5.6,1.8c2.4,1,4.5,2.6,6.9,3.8c1.9-1.2,3.8-2.3,5.5-3.7
		c1.9-1.5,2.5-3.9,3-6.1C424.8,234.8,423.4,235.1,422.2,235.8"/>
	<path class="st1" d="M116.6,244.5c-1.9,1.5-2.4,3.9-3,6.2c1.2-0.6,2.6-0.9,3.8-1.6c1.8-1,3.9-1.6,5.7-2.6c1.8-1.1,4-1,5.9-1.9
		c-2.5-1-4.5-2.7-6.9-3.8C120.3,241.9,118.4,243.1,116.6,244.5"/>
	<path class="st1" d="M400.7,294.3c1.9,1.9,3.2,4.2,4.9,6.2c2.2-0.3,4.4-0.7,6.5-1.3c2.4-0.6,3.8-2.7,5.2-4.6
		c-1.4,0.1-2.8-0.2-4.3,0c-2.2,0.2-4.3-0.1-6.5,0.2C404.6,295.1,402.7,294.1,400.7,294.3"/>
	<path class="st1" d="M131.5,299.1c-1,1.6-2.3,3.1-2.9,5c-0.7,1.9-0.2,3.8,0.1,5.7c0.9-1.1,2.2-1.9,3-3c1.3-1.7,3.1-2.9,4.4-4.6
		c1.2-1.6,3.2-2.3,4.5-3.8c-2.3,0-4.6-0.5-6.9-0.9C132.6,297.2,132.1,298.4,131.5,299.1"/>
	<path class="st1" d="M370.9,340.5c1,2.4,1.4,5.1,2.1,7.6c2.1,0.6,4.2,1,6.3,1.3c2.5,0.4,4.8-1,6.8-2.3c-1.4-0.4-2.6-1.3-4-1.6
		c-2-0.6-3.8-1.6-5.7-2.2C374.3,342.8,372.9,341.1,370.9,340.5"/>
	<path class="st1" d="M164.2,345.7c-0.6,2.8-1.5,5.6-1.2,8.5c0.4,1.6,1.3,3.1,2.2,4.5c0.4-1.4,1.3-2.6,1.6-4c0.6-2,1.7-3.9,2.3-5.9
		c0.5-1.9,2.1-3.3,2.7-5.2C169.4,344.6,166.7,344.8,164.2,345.7"/>
	<path class="st1" d="M325.7,371.6c0,2.7-0.8,5.2-0.8,7.9c1.7,1.3,3.6,2.6,5.5,3.7c2.1,1.2,4.6,0.7,6.9,0.4c-1.1-0.9-1.9-2.2-3.1-3
		c-1.6-1.3-2.8-2.9-4.4-4.2C328,375.2,327.3,373,325.7,371.6"/>
	<path class="st1" d="M211.8,378.2c0.2,2.2,0.7,4.3,1.2,6.5c0.6,2.4,2.7,3.9,4.6,5.3c-0.1-1.4,0.2-2.8,0-4.2
		c-0.2-2.1,0.1-4.3-0.2-6.4c-0.3-2,0.6-3.9,0.5-6C216.1,375.2,213.8,376.5,211.8,378.2"/>
	<path class="st1" d="M272,383.2c-1,2.5-2.7,4.5-3.8,6.9c1.1,1.9,2.3,3.8,3.7,5.5c1.5,1.9,4,2.5,6.2,3c-0.6-1.3-0.9-2.7-1.6-3.9
		c-1-1.8-1.6-3.9-2.6-5.7C272.8,387.3,272.9,385.1,272,383.2"/>
</g>
<g>
	<path class="st10" d="M285.5,78.5c-1.7,2.2-3.4,4.4-5,6.8c1.6-0.3,3.3-1,5-0.8c1.4,0.3,2.8,0.9,3.9,1.8c2.3,2.4,4,5.3,5.3,8.4
		c0.1,1.4,0,2.8,0.1,4.3c2.2-2.4,4.2-4.9,6.5-7.3c-1.1-2-1.4-4.3-2.7-6.2c-1.3-3.5-3.1-6.7-5.2-9.8c-0.9-1.4-1.6-2.9-2.8-4
		C288.6,73.6,286.9,76,285.5,78.5"/>
	<path class="st10" d="M223.6,76.6c-1,2.6-1.7,5.4-2,8.2c-0.7,2.8-1.5,5.6-2.1,8.4c1.6-1.1,3.1-2.8,5.2-2.8c1.3,0,2.7-0.2,3.9,0.4
		c2.9,1.3,5.4,3.3,7.6,5.5c0.7,1.2,1.2,2.6,1.7,4c1.1-3.1,2-6.2,3.2-9.3c-1.8-1.3-2.9-3.4-4.8-4.6c-2.5-2.6-5.2-4.8-8.1-6.8
		C226.7,78.5,225.3,77.3,223.6,76.6"/>
	<path class="st10" d="M347.1,96.9c-2.4,1.4-4.9,2.8-7.3,4.4c1.9,0.4,4.1,0.3,5.6,1.7c0.9,0.8,1.8,1.6,2.3,2.7
		c1.2,3.1,1.6,6.4,1.7,9.7c-0.4,1.4-1,2.7-1.6,4.1c2.9-1.4,5.8-3,8.8-4.2c0-1-0.2-1.9,0-2.9c0.3-2.1-0.3-4.2-0.1-6.4
		c-0.2-4.5-0.9-9-2-13.4C351.8,93.6,349.4,95.2,347.1,96.9"/>
	<path class="st10" d="M163.7,106.9c0,2.9,0.5,5.7,1.3,8.5c0.4,2.8,0.7,5.6,1.3,8.3c1.1-1.6,1.8-3.6,3.6-4.5c1-0.5,2-0.9,3.2-1.1
		c3.4,0,6.6,0.9,9.7,2.1c1.2,0.8,2.2,2,3.2,3.1c-0.1-3.3-0.5-6.5-0.5-9.8c-2-0.5-3.7-1.9-5.7-2.3c-1.5-0.4-2.9-1.2-4.4-1.6
		C171.6,108.4,167.7,107.3,163.7,106.9"/>
	<path class="st10" d="M399.2,137c-3.5,1-7.1,1.1-10.7,1.9c1.4,0.9,3,1.6,4,2.9c0.8,1.2,1.3,2.6,1.6,4c0,2.9-0.7,5.8-1.7,8.5
		c-0.4,1.9-2.2,2.9-3.4,4.3c3.2,0,6.4-0.5,9.6-0.5c0.4-1.2,0.9-2.4,1.5-3.5c0.6-1.1,0.8-2.4,1.3-3.6c1.5-3.4,2.4-7,3.2-10.6
		c0.3-1.3,0.7-2.7,0.7-4.1C403.3,136.3,401.2,136.5,399.2,137"/>
	<path class="st10" d="M125.2,156.7c-1.8,0.4-3.6,0.5-5.3,1.2c1.2,2.6,2.7,5.1,4.5,7.3c1.5,2.4,2.8,4.9,4.4,7.3
		c0.4-1.8,0.3-3.9,1.5-5.4c1-1.2,2.2-2.5,3.8-2.9c2.8-0.9,5.7-1.2,8.6-1.3c1.4,0.3,2.8,1,4.1,1.6c-1.4-3-3-5.9-4.3-8.9
		c-2.2,0.4-4.4-0.3-6.6,0.2C132.3,155.7,128.7,156,125.2,156.7"/>
	<path class="st10" d="M419.1,192.2c0.9,1.1,1.8,2.2,2.4,3.5c0.6,1.5,0.5,3.3,0.2,4.8c-1.3,3.2-3.4,6-5.8,8.4
		c-1.2,0.7-2.5,1.1-3.8,1.7c3,1.2,6.1,2,9.1,3.2c1.2-1.7,3.1-2.6,4.2-4.4c0.8-1.1,1.9-1.9,2.7-2.9c1.5-1.8,3.1-3.7,4.4-5.7
		c1-1.5,2.3-3,3-4.7c-1.9-0.7-3.9-1.3-6-1.7C426.1,194.1,422.7,192.8,419.1,192.2"/>
	<path class="st10" d="M115.6,212.3c-1.2,0.3-2.2,1.1-3.3,1.6c-3.5,1.3-6.7,3.2-9.8,5.2c-1.2,0.8-2.5,1.5-3.6,2.5
		c1.5,1.5,3.2,2.8,5,4c3.1,1.7,5.7,4.2,8.7,6.1c-0.4-1.9-1.3-3.8-0.6-5.7c0.4-1.3,1-2.7,2-3.6c2.4-2.1,5.1-3.7,8-4.9
		c1.4-0.1,2.8,0,4.2-0.1c-2.4-2.2-4.9-4.2-7.2-6.4C117.9,211.5,116.8,212,115.6,212.3"/>
	<path class="st10" d="M427,253.1c0.3,1,0.6,2.1,0.8,3.1c0.4,2.1-0.5,4.2-1.8,5.8c-2.4,2.3-5.3,4.1-8.4,5.3c-1.4,0.1-2.8,0-4.2,0
		c2.4,2.2,5,4.2,7.3,6.5c2-1.1,4.3-1.4,6.2-2.7c3.4-1.3,6.6-3,9.6-5c1.4-1,3-1.7,4.3-3c-2-1.9-4.3-3.6-6.7-5
		C431.6,256.6,429.4,254.7,427,253.1"/>
	<path class="st10" d="M115.8,273.6c-1,0.8-1.6,1.9-2.5,2.8c-2.9,2.7-5.2,5.9-7.4,9.1c-0.7,1-1.4,2-1.9,3.1c2.6,1,5.4,1.7,8.2,2
		c2.8,0.7,5.5,1.5,8.3,2c-1.1-1.6-2.8-3.1-2.8-5.2c0-1.3-0.2-2.7,0.4-3.9c1.4-2.8,3.3-5.4,5.5-7.6c1.2-0.7,2.6-1.2,4-1.7
		c-3.1-1.1-6.2-2-9.3-3.2C117.6,272,116.8,272.9,115.8,273.6"/>
	<path class="st10" d="M410.9,312.4c-0.2,1.4-0.3,2.9-0.8,4.3c-0.7,1.5-1.9,2.6-3.2,3.5c-3.1,1.4-6.6,1.7-9.9,1.8
		c-1.4-0.4-2.8-1-4.1-1.6c1.4,3,3,5.9,4.3,8.9c2.2-0.4,4.4,0.3,6.5-0.2c5.4,0,10.8-0.7,16.1-2.1c-1.1-2.7-2.7-5.1-4.5-7.4
		C413.9,317.2,412.5,314.8,410.9,312.4"/>
	<path class="st10" d="M140.9,326.8c-0.3,1-0.7,2-1.2,2.9c-1,1.6-1.1,3.5-2,5.1c-1.2,3-2,6.1-2.7,9.3c-0.3,1.4-0.7,2.8-0.7,4.3
		c2.1,0,4.1-0.2,6.1-0.7c3.5-1,7.1-1.1,10.7-1.9c-1.5-1-3.4-1.7-4.4-3.4c-0.6-1.1-1-2.2-1.2-3.4c0-3.4,0.9-6.6,2.1-9.7
		c0.9-1.3,2-2.3,3.2-3.3C147.5,326.5,144.2,326.6,140.9,326.8"/>
	<path class="st10" d="M369.8,365.6c-1,0.5-2.1,0.9-3.2,1.1c-3.4,0-6.6-0.9-9.7-2.1c-1.2-0.8-2.2-2-3.2-3.1c0.2,3.3,0.4,6.5,0.6,9.8
		c2,0.5,3.6,1.8,5.6,2.3c1.5,0.4,2.9,1.2,4.4,1.6c3.8,1.2,7.7,2.3,11.7,2.7c0.1-2.8-0.4-5.6-1.2-8.3c-0.5-2.9-0.7-5.7-1.3-8.6
		C372.4,362.7,371.6,364.7,369.8,365.6"/>
	<path class="st10" d="M183,369.7c0.4,2.2-0.3,4.4,0.2,6.5c0,3.6,0.3,7.2,1,10.8c0.4,1.8,0.5,3.6,1.2,5.3c2.6-1.1,5.1-2.7,7.3-4.5
		c2.4-1.4,4.9-2.9,7.3-4.4c-1.9-0.3-4.1-0.3-5.7-1.7c-1-0.9-2-1.9-2.5-3.2c-1.1-2.9-1.4-6-1.5-9.1c0.3-1.4,1-2.7,1.5-4
		C188.8,366.8,185.9,368.4,183,369.7"/>
	<path class="st10" d="M301.6,384.7c-1.1,3-2,6.1-3.2,9.1c1.7,1.2,2.6,3.1,4.3,4.2c1.3,1,2.2,2.3,3.5,3.3c1.6,1.3,3.2,2.6,4.9,3.8
		c1.6,1.1,3.1,2.4,4.9,3.2c1-2.7,1.7-5.5,2-8.4c0.7-2.7,1.5-5.4,2-8.2c-1.1,0.8-2.1,1.7-3.3,2.3c-1.5,0.7-3.3,0.5-4.9,0.3
		c-3.2-1.2-6.1-3.4-8.5-5.8C302.6,387.3,302.2,386,301.6,384.7"/>
	<path class="st10" d="M238.3,393.2c0.5,1.1,1,2.3,1.4,3.5c0.3,1.2,1.1,2.2,1.6,3.3c1.3,3.5,3.2,6.7,5.2,9.8
		c0.8,1.2,1.5,2.5,2.5,3.6c1.4-1.5,2.7-3.1,3.9-4.8c1.7-3.2,4.3-5.8,6.2-8.9c-2,0.4-4,1.3-6,0.5c-1.3-0.5-2.6-1-3.5-2.1
		c-1.6-1.9-3.1-4.1-4.1-6.4c-1.1-1.6-0.5-3.7-0.7-5.5C242.5,388.4,240.6,391,238.3,393.2"/>
</g>
<g>
	<path class="st11" d="M252,77.5c-2.2,4.5-4.6,8.8-6.5,13.5c0.8,1,1.6,2,2.5,3c0.8-1.7,1.8-3.2,2.9-4.6c1.2-2,3-3.5,4.8-5
		c-1.2-2.2-2.5-4.3-3.2-6.7C252.3,77.5,252.1,77.5,252,77.5"/>
	<path class="st11" d="M305.3,93.2c0.4,1.2,0.8,2.5,1.2,3.7c3.2-2.7,6.8-4.8,10.8-6c-0.4-2.6-0.6-5.3-0.5-7.9
		C312.9,86.3,308.9,89.6,305.3,93.2"/>
	<path class="st11" d="M190.3,96.4c-0.4,5.1-1,10.3-0.9,15.4c1.2,0.6,2.3,1.1,3.4,1.7c0.1-2.6,0.9-5,1.4-7.5c0.6-1.5,1.2-3,2-4.4
		C194.1,100.1,192.1,98.3,190.3,96.4"/>
	<path class="st11" d="M359.7,118.2c-0.1,1.3-0.2,2.5-0.3,3.8c4-1.3,8.2-1.8,12.3-1.4c0.6-2.6,1.5-5.1,2.6-7.5
		C369.4,114.7,364.4,116.1,359.7,118.2"/>
	<path class="st11" d="M140.5,138c1.5,4.9,3.1,9.8,5,14.6c1.3,0.1,2.6,0.2,3.9,0.3c-1.3-4-1.8-8.2-1.4-12.3
		C145.4,140,142.9,139,140.5,138"/>
	<path class="st11" d="M400.4,162c-0.6,1.1-1.1,2.3-1.7,3.4c4.1,0.4,8.2,1.4,11.9,3.4c1.6-2.1,3.3-4.1,5.3-5.9
		c-4.7-0.5-9.3-0.7-14-1C401.3,161.9,400.9,162,400.4,162"/>
	<path class="st11" d="M110.3,195.4c3.3,3.9,6.6,7.9,10.2,11.5c1.2-0.4,2.5-0.8,3.7-1.2c-1.3-1.4-2.3-3-3.3-4.7
		c-1.3-1.8-2-4-2.7-6.1C115.7,195.4,113,195.5,110.3,195.4"/>
	<path class="st11" d="M418.3,220.6c3.7,1.9,7,4.5,9.7,7.7c2-1.1,4-2.3,6.2-3c0.5-0.1,0.6-0.3,0.5-0.7c-4.5-2.2-8.8-4.6-13.4-6.5
		C420.3,218.9,419.3,219.7,418.3,220.6"/>
	<path class="st11" d="M105.4,259.6c-0.4,0.1-0.6,0.3-0.5,0.7c4.1,2.1,8.2,4.1,12.3,6.1c0.3,0.1,0.7,0.2,1.1,0.3
		c1.1-0.6,2-1.6,3-2.4c-1.7-0.8-3.2-1.8-4.6-2.9c-2-1.2-3.5-3.1-5-4.7C109.6,257.7,107.7,259,105.4,259.6"/>
	<path class="st11" d="M415.4,279.1c1.7,1.8,2.8,4,4.1,6c0.7,1.6,1.3,3.2,1.9,4.8c2.6-0.3,5.3-0.6,7.9-0.4
		c-3.3-3.9-6.6-7.9-10.2-11.6C417.8,278.3,416.6,278.7,415.4,279.1"/>
	<path class="st11" d="M123.8,322c5.1,0.4,10.3,0.9,15.4,0.9c0.6-1.2,1.2-2.3,1.8-3.5c-2,0-3.8-0.5-5.7-1c-2.2-0.4-4.2-1.4-6.2-2.4
		C127.5,318.2,125.7,320.1,123.8,322"/>
	<path class="st11" d="M390.3,332c0.9,2.3,1.1,4.8,1.5,7.2c0,1.7-0.1,3.5-0.1,5.2c2.6,0.6,5,1.5,7.4,2.6c-1.5-4.9-3-9.9-5-14.6
		C392.8,332.2,391.6,332.1,390.3,332"/>
	<path class="st11" d="M174.8,364.1c-2.2,0.6-4.6,0.2-6.8,0.2c-0.6,2.6-1.5,5-2.6,7.4c4.9-1.5,9.8-3.1,14.6-5
		c0.1-1.3,0.2-2.6,0.3-3.9C178.5,363.6,176.6,363.8,174.8,364.1"/>
	<path class="st11" d="M346.8,371.2c0,2.5-0.8,4.9-1.3,7.3c-0.6,1.6-1.3,3.1-2.1,4.7c2.2,1.6,4.1,3.4,6,5.3
		c0.4-5.1,0.9-10.2,0.9-15.4C349.1,372.5,348,371.9,346.8,371.2"/>
	<path class="st11" d="M227.2,392.1c-1.6,0.7-3.2,1.3-4.8,1.8c0.4,2.6,0.5,5.3,0.5,7.9c4-3.3,7.9-6.6,11.6-10.2
		c-0.4-1.2-0.8-2.4-1.2-3.7C231.4,389.7,229.2,390.8,227.2,392.1"/>
	<path class="st11" d="M291.7,390.9c-1,2.3-2.6,4.1-4,6.2c-1.2,1.2-2.4,2.4-3.7,3.5c1.3,2.3,2.5,4.7,3.4,7.2
		c2.4-4.6,4.8-9.1,6.7-13.8C293.3,392.9,292.5,391.9,291.7,390.9"/>
</g>
<g>
	<path class="st5" d="M268.1,59.9c-1.1,0.5-1.9,1.4-2.9,2c-2.4,1.5-4.3,3.7-6.4,5.6c-1.9,2.1-3.8,4.3-5,6.9c2,2.6,3.9,5.2,5.6,7.9
		c1.9,0,3.9-0.3,5.6,0.6c2.2,1.1,4.4,2.3,5.9,4.2c1,1.2,1.7,2.6,2.5,3.9c1.1-1.1,1.3-2.6,2.1-3.8c1.6-2.4,2.7-5.2,4.6-7.4
		c2.1-2.7,3.3-6.1,5.9-8.3c1-0.8,1.8-1.7,2.5-2.6c-1.8-2-3.6-4-5.6-5.7c-2.6-2.4-5.7-4.2-8.7-6C272,57.7,270.1,59,268.1,59.9"/>
	<path class="st5" d="M202.9,69.7c-1.9,1.5-3.3,3.5-4.9,5.3c-1.1,1.9-2.5,3.6-3.3,5.6c-1.7,4.1-3.6,8.2-3.9,12.7
		c2.6,1.9,5.6,3.4,8.2,5.3c1.8-0.7,3.6-1.8,5.6-1.6c2.3,0.2,4.6,0.4,6.7,1.5c1.5,0.7,2.7,1.9,4,2.7c0.4-1.4,0.2-2.8,0.4-4.2
		c0.4-2.5,0.5-5,1-7.4c1.3-3.7,0.9-7.8,2.7-11.3c0.6-1.1,1-2.2,1.3-3.4c-4.3-2.2-8.9-4.1-13.8-4.8C205.6,70,204.3,69.5,202.9,69.7"
		/>
	<path class="st5" d="M332.1,74.5c-4.5,1.7-9.1,3.4-12.8,6.6c0.9,3.1,1.5,6.4,2.2,9.5c1.6,0.8,3.6,1.2,4.8,2.6
		c1.5,1.8,3.1,3.7,3.8,5.9c0.5,1.5,0.6,3.2,0.9,4.8c1.4-0.7,2.3-2,3.6-2.9c2.3-1.6,4.3-3.6,6.7-4.9c2.1-1.2,3.9-2.9,6-4.2
		c1.9-1.2,4.2-1.6,6.1-2.7c-1.8-5.9-4.7-11.4-8.6-16.1c-1.6-0.7-3.4-0.2-5-0.1C337.3,73.1,334.7,73.8,332.1,74.5"/>
	<path class="st5" d="M142.1,108.3c-1.1,1.4-1.4,3.2-2,4.8c-0.9,2.3-1.1,4.7-1.6,7.1c-0.3,4.9-0.4,10.1,1.2,14.8
		c3.2,0.4,6.4,0.9,9.6,1.6c1.3-1.3,2.5-2.9,4.4-3.6c2.1-0.7,4.4-1.4,6.6-1.2c1.7,0,3.3,0.6,5,1c0-0.5-0.1-0.9-0.2-1.4
		c-1.1-2.6-1.5-5.4-2.4-8.1c-0.5-1.6-0.5-3.2-0.9-4.8c-0.6-2.8-1.7-5.6-1.4-8.6c0.2-1.2,0-2.4-0.1-3.6
		C154.2,105.9,148,106.4,142.1,108.3"/>
	<path class="st5" d="M377.3,112.3c-0.4,3.2-0.9,6.4-1.6,9.6c1.3,1.3,2.9,2.5,3.5,4.4c0.7,2,1.3,4.1,1.2,6.3c0,1.8-0.6,3.6-1,5.4
		c1.6,0,3-1,4.5-1.3c2.7-0.6,5.4-1.7,8.2-2c3.4-0.4,6.7-2,10.2-1.7c1.2,0.2,2.4,0,3.6-0.1c0.6-6.2,0.1-12.4-1.8-18.3
		c-1.9-1.4-4.3-1.7-6.4-2.5c-2.2-0.4-4.4-0.9-6.6-1.1C386.4,110.9,381.7,110.8,377.3,112.3"/>
	<path class="st5" d="M100.4,167.5c-0.5,2.3,0.2,4.6,0.2,7c0.6,2.8,1.1,5.7,2.3,8.3c1.4,3.6,2.9,7.3,5.7,10.1
		c3.1-0.9,6.3-1.4,9.4-2.2c0.8-1.7,1.2-3.6,2.6-4.8c1.6-1.4,3.4-2.9,5.5-3.6c1.7-0.7,3.5-0.8,5.2-1c-0.5-1.3-1.8-2.1-2.6-3.3
		c-1.7-2.5-4-4.7-5.4-7.4c-1.7-2.8-4.2-5.2-5.2-8.3c-0.4-1.2-0.9-2.4-1.5-3.5C110.7,160.6,105.1,163.4,100.4,167.5"/>
	<path class="st5" d="M413.7,171.6c0.7,1.7,1.7,3.3,1.6,5.2c-0.1,1.7-0.3,3.3-0.7,4.9c-0.6,2.3-2.1,4.2-3.6,6.1
		c0.5,0.2,1.1,0.4,1.6,0.3c2.4,0,4.7,0.5,7,0.8c1.2,0.1,2.5,0.2,3.6,0.6c3.5,1.1,7.3,0.8,10.6,2.5c1.1,0.6,2.3,1,3.4,1.4
		c2.1-4.3,4-8.8,4.7-13.5c0.2-1.4,0.7-2.9,0.5-4.3c-1.2-1.7-3-2.8-4.5-4.2c-0.9-0.9-2.1-1.4-3.1-2.1c-1.7-1.3-3.7-2.2-5.7-2.9
		c-3.2-1.5-6.7-2.6-10.3-2.9C417.3,166.2,415.6,168.9,413.7,171.6"/>
	<path class="st5" d="M87.3,233.5c-0.9,1.5-1.9,2.9-2.7,4.4c0.3,2.1,1.6,3.8,2.4,5.7c0.5,1.4,1.6,2.4,2.4,3.6
		c1.5,2.4,3.6,4.1,5.5,6.1c2.1,1.9,4.3,3.8,6.9,5c2.6-2,5.2-3.9,7.9-5.6c0.1-1.8-0.3-3.7,0.5-5.4c0.7-1.6,1.6-3.1,2.7-4.5
		c1.4-1.9,3.6-3,5.6-4.1c-1.2-1.1-2.8-1.4-4.1-2.3c-2.4-1.5-5-2.6-7.2-4.4c-1.9-1.5-4.2-2.5-6.2-4c-1.8-1.3-2.9-3.2-4.8-4.5
		C93,226.6,89.7,229.8,87.3,233.5"/>
	<path class="st5" d="M429.9,232c-0.1,1.9,0.3,3.9-0.6,5.6c-0.9,1.8-1.9,3.7-3.4,5.2c-1.3,1.4-3,2.2-4.6,3.2c1,1.1,2.6,1.3,3.8,2.1
		c2.4,1.6,5.2,2.7,7.4,4.6c2.7,2.1,6.1,3.3,8.3,5.9c0.8,0.9,1.7,1.8,2.6,2.5c1.5-1.4,3.1-2.7,4.5-4.2c2.9-3,5.2-6.5,7.3-10.1
		c-0.7-2.4-2-4.5-3.1-6.7c-1.7-2.3-3.1-4.8-5.3-6.7c-2.6-2.8-5.5-5.4-8.9-7.1C435.3,228.4,432.6,230.3,429.9,232"/>
	<path class="st5" d="M102.3,291.6c-2.8,5.5-4.9,11.6-5.3,17.8c1.4,1.9,3.4,3.1,5,4.8c1.9,1.2,3.8,2.6,5.8,3.5
		c4.1,1.7,8.3,3.7,12.8,3.9c1.6-2.8,3.3-5.6,5.2-8.2c-0.7-1.8-1.8-3.6-1.6-5.6c0.2-2.3,0.5-4.6,1.6-6.7c0.7-1.5,1.8-2.6,2.7-4
		c-1.5-0.5-3.1-0.2-4.7-0.5c-2.3-0.4-4.7-0.5-7-1c-2.7-0.9-5.5-1-8.2-1.6C106.5,293.5,104.6,292.1,102.3,291.6"/>
	<path class="st5" d="M421.7,294c-0.7,1.8-1.3,3.9-2.9,5.2c-1.7,1.4-3.4,2.8-5.5,3.5c-1.6,0.6-3.3,0.7-5,1c0.6,1.4,1.9,2.2,2.7,3.4
		c1.7,2.4,3.8,4.5,5.2,7.2c1.7,2.8,4.1,5.1,5.2,8.2c0.4,1.3,0.9,2.5,1.5,3.7c2.6-0.9,5.2-1.8,7.7-3.1c3.1-1.5,5.9-3.6,8.7-5.7
		c0.2-5.5-0.6-11.1-3-16.2c-1.2-3.3-2.9-6.5-5.2-9.3C428.1,292.7,424.9,293.6,421.7,294"/>
	<path class="st5" d="M158.7,347.3c-2.4,1-5.1,1.4-7.6,2.2c-1.7,0.6-3.6,0.6-5.3,1c-1.5,0.3-3,0.8-4.6,1.1c-2.4,0.5-4.9,0-7.4,0.3
		c0,1.4-0.1,2.8-0.2,4.2c-0.1,4.8,0.6,9.5,2,14.1c0.6,0.8,1.8,1,2.7,1.4c1.9,0.5,3.7,1.5,5.8,1.6c2.5,0.5,5,0.9,7.6,0.7
		c3.6,0.2,7.3-0.2,10.7-1.3c0.4-3.2,0.9-6.4,1.6-9.6c-1.4-1.3-2.9-2.5-3.6-4.4c-0.7-2.2-1.4-4.4-1.2-6.7c0-1.7,0.6-3.3,1-4.9
		C159.7,347,159.2,347,158.7,347.3"/>
	<path class="st5" d="M390.3,348.2c-1.3,1.4-2.6,2.9-4.4,3.6c-2,0.7-4.1,1.3-6.3,1.2c-1.8,0-3.6-0.6-5.3-1c0.1,1.6,1,2.9,1.3,4.4
		c0.6,2.8,1.7,5.4,2,8.2c0.4,3.3,1.9,6.4,1.7,9.8c-0.1,1.3-0.1,2.6,0,4c6.2,0.6,12.4,0.1,18.3-1.8c1-1.3,1.4-2.9,1.9-4.5
		c1.1-2.7,1.4-5.5,1.8-8.4c0.1-4.6,0.3-9.4-1.3-13.9C396.7,349.5,393.5,348.9,390.3,348.2"/>
	<path class="st5" d="M205.4,383.5c-2,1.4-3.9,3.1-6,4.5c-2.5,1.3-4.6,3.2-6.9,4.7c-1.9,1.3-4.3,1.7-6.3,2.9
		c1.8,5.9,4.7,11.6,8.8,16.3c1.1,0.2,2.2,0.2,3.3,0.1c1.8-0.3,3.6-0.1,5.4-0.6c2.4-0.4,4.8-1,7-2.1c3.5-1.3,6.9-2.9,9.7-5.4
		c-0.5-3.2-1.6-6.3-2-9.6c-1.7-0.7-3.7-1.2-5-2.7c-1.6-1.8-3-3.7-3.8-5.9c-0.5-1.5-0.6-3.1-0.9-4.7
		C207.3,381.4,206.5,382.7,205.4,383.5"/>
	<path class="st5" d="M324.5,383.6c-0.1,0.4-0.2,0.9-0.3,1.3c-0.1,3.3-0.8,6.5-1.1,9.8c-0.9,2.7-1.1,5.6-1.6,8.4
		c-0.4,2.4-1.9,4.4-2.5,6.8c5.5,2.8,11.6,5,17.8,5.3c1.7-1.2,2.8-3,4.2-4.5c0.9-0.9,1.4-2.1,2.1-3.1c1.3-1.7,2.2-3.7,2.9-5.7
		c1.5-3.3,2.7-6.8,2.8-10.4c-2.8-1.6-5.6-3.3-8.2-5.2c-1.8,0.7-3.6,1.8-5.6,1.6c-2.3-0.2-4.6-0.4-6.7-1.5
		C326.9,385.7,325.7,384.6,324.5,383.6"/>
	<path class="st5" d="M264.1,397.6c-1.6,2.4-2.7,5.2-4.6,7.4c-1.5,1.9-2.5,4.2-4,6.2c-1.3,1.8-3.2,3-4.5,4.8
		c1.1,1.2,2.2,2.5,3.4,3.7c3.1,3.3,6.9,5.8,10.9,8c2.4-0.6,4.4-2,6.7-3c2.4-1.8,4.9-3.3,6.9-5.5c2.7-2.5,5.3-5.4,6.9-8.8
		c-2-2.6-3.9-5.2-5.6-8c-1,0-2,0-3,0c-2.2,0.1-4-1.3-5.8-2.4c-2.4-1.5-3.9-3.9-5.2-6.3C265.2,394.9,265,396.4,264.1,397.6"/>
</g>
<g>
	<path class="st12" d="M230.5,66.6c-2.2,1.9-3.7,4.4-5.2,6.8c2.8,1.9,5.7,3.7,8.1,6c3.3,2.4,6.2,5.4,9.1,8.3c1.5-5.1,4.3-9.6,7-14.1
		c-1.2-1-2.3-2.1-3.2-3.4c-3.1-3.5-7.3-5.9-11.8-7.3C233.2,64.1,231.7,65.2,230.5,66.6"/>
	<path class="st12" d="M300.5,65c-2.7,0.9-4.9,2.6-7.2,4.1c1,1.5,2,3,3,4.6c1.4,1.9,2.1,4.3,3.5,6.2c1.4,3,2.8,5.9,4,9
		c3.3-4.1,7.7-7.2,11.9-10.4c-0.7-1.3-1.2-2.7-1.6-4.2c-1.5-4.5-4.5-8.3-8.2-11.3C304.1,63.6,302.3,64.2,300.5,65"/>
	<path class="st12" d="M166.1,95.2c-1.3,2.5-1.6,5.3-2.2,8.1c3.3,0.7,6.6,1.2,9.7,2.4c4.1,1,7.9,2.7,11.8,4.2
		c-0.6-5.3,0.4-10.5,1-15.8c-1.3-0.4-2.6-0.9-3.7-1.6c-4.3-2.3-9.3-2.9-14.2-2.5C167.7,91.7,166.8,93.4,166.1,95.2"/>
	<path class="st12" d="M357.9,91.4c0.5,2.5,0.9,5,1.4,7.5c-0.1,2.6,0.8,5.2,0.6,7.8c0.1,2.3,0.2,4.7,0.1,7c4.6-2.6,9.9-3.7,14.9-5.1
		c-0.1-1.3-0.1-2.6,0-3.8c0.5-4.9-0.8-9.9-3.1-14.3c-1.9-0.1-3.7-0.3-5.6-0.2C363.4,90,360.6,90.8,357.9,91.4"/>
	<path class="st12" d="M409,136.5c-0.3,1.8-0.7,3.6-1.1,5.4c-0.3,2.5-1.6,4.7-2,7.1c-1.1,3-2.2,6.1-3.5,9c5.3-0.7,10.5,0.4,15.7,1
		c0.4-1.3,0.9-2.5,1.6-3.7c2.3-4.3,2.9-9.4,2.5-14.2c-2.3-1.2-4.7-2.2-7-3.2C413.1,137.3,411,136.9,409,136.5"/>
	<path class="st12" d="M117.9,140.6c-0.2,1.8-0.3,3.6-0.2,5.4c-0.2,2.8,0.5,5.6,1.1,8.4c2.5-0.6,5-0.9,7.5-1.4
		c1.8,0,3.7-0.3,5.5-0.5c3.1,0,6.2-0.3,9.3-0.2c-2.5-4.6-3.7-9.8-5.1-14.9c-2.8,0.2-5.6-0.5-8.3-0.1
		C124.3,137.8,120.8,138.7,117.9,140.6"/>
	<path class="st12" d="M99.2,199.3c-3.3,1.7-6.5,4.1-8.7,7.1c0.6,2.4,1.6,4.6,2.5,6.9c1,2,2.3,3.8,3.5,5.6c2.7-1.8,5.4-3.8,8.5-5.1
		c3.6-2.2,7.5-3.7,11.4-5.4c-4.1-3.3-7.2-7.7-10.4-11.8C103.8,197.8,101.3,198.1,99.2,199.3"/>
	<path class="st12" d="M434.5,204.2c-1.2,1.3-2.3,2.7-3.4,4.1c-2.2,2.3-4.2,4.6-6.5,6.8c1.8,0.7,3.6,1.2,5.4,2.1
		c2.9,1.4,5.7,3.2,8.6,4.8c0.9-0.4,1.4-1.5,2.2-2c4.2-3.2,7-7.9,8.5-12.8c-1.7-2-3.5-3.9-5.4-5.7c-1.6-1.3-3.3-2.4-5.1-3.5
		C437.5,200,436,202.1,434.5,204.2"/>
	<path class="st12" d="M97.4,266.1c-3.4,3.1-5.7,7.2-7.1,11.6c1.2,1.4,2.3,2.8,3.7,4c1.9,2.2,4.4,3.7,6.8,5.2
		c1.4-2.2,2.9-4.3,4.4-6.3c1.2-1.3,2.3-2.7,3.4-4.1c2.2-2.3,4.2-4.6,6.5-6.8c-5.1-1.5-9.6-4.3-14.1-7
		C99.9,264,98.7,265.1,97.4,266.1"/>
	<path class="st12" d="M436.4,270.3c-2.2,0.8-4,2.3-6.2,3.2c-2.3,1-4.6,2.1-6.9,3c4.1,3.3,7.2,7.7,10.4,11.8
		c1.3-0.7,2.7-1.2,4.2-1.6c4.5-1.5,8.4-4.5,11.4-8.2c-0.8-2.5-1.7-4.9-2.7-7.2c-1-1.8-2.2-3.6-3.4-5.3
		C440.9,267.5,438.7,268.9,436.4,270.3"/>
	<path class="st12" d="M120.2,329c-2.5,4.4-3.2,9.7-2.8,14.7c1.7,0.9,3.4,1.7,5.2,2.4c2.5,1.3,5.4,1.6,8.1,2.2
		c0.3-1.7,0.6-3.4,1.1-5.1c0.3-2.5,1.6-4.8,2-7.4c1.2-3,2.1-6,3.5-9c-5.3,0.5-10.5-0.4-15.8-1C121.2,326.9,120.8,328,120.2,329"/>
	<path class="st12" d="M413.4,331.8c-1.9,0-3.7,0.3-5.6,0.6c-3.1,0-6.2,0.3-9.3,0.2c2.6,4.6,3.7,9.9,5.1,14.9c1.1,0,2.2-0.1,3.3,0
		c5.1,0.6,10.3-0.7,14.9-3.1c0.2-2.7,0.4-5.4,0.2-8.1c-0.2-2-0.6-3.9-1.1-5.8C418.4,331,415.9,331.4,413.4,331.8"/>
	<path class="st12" d="M164.8,376.2c0.1,2.3-0.3,4.5-0.2,6.8c0.2,4,1.4,7.8,3.3,11.3c2.7,0.2,5.4,0.4,8.1,0.2c2-0.2,3.9-0.6,5.8-1.1
		c-0.6-3.3-1.5-6.7-1.5-10.1c-0.1-1.4-0.5-2.7-0.5-4.1c0.1-2.7-0.3-5.4-0.1-8.2C175.1,373.7,169.9,374.8,164.8,376.2"/>
	<path class="st12" d="M354.3,374.9c0.5,5.3-0.4,10.5-1,15.8c1.3,0.4,2.5,0.9,3.7,1.6c4.3,2.3,9.4,2.9,14.2,2.5
		c1.2-2.3,2.2-4.6,3.2-6.9c0.6-2.1,1-4.2,1.4-6.3c-2.5-0.4-5-1.1-7.6-1.6c-1.7-0.7-3.4-1.1-5.2-1.6
		C360.1,377.2,357.1,376.3,354.3,374.9"/>
	<path class="st12" d="M224,406.3c0.4,0.9,0.9,1.7,1.2,2.7c1.3,5.1,4.6,9.5,8.6,12.8c2.5-0.7,4.9-1.7,7.2-2.7c1.8-1,3.6-2.2,5.3-3.4
		c-1.8-2.8-3.8-5.4-5.1-8.5c-2.2-3.6-3.7-7.5-5.3-11.3C232.5,400,228.1,403.1,224,406.3"/>
	<path class="st12" d="M297.1,397.2c-1.5,5.1-4.3,9.6-7,14.1c1.1,1,2.2,2.1,3.2,3.3c3.1,3.5,7.3,5.9,11.8,7.3c1.4-1.2,2.8-2.3,4-3.7
		c2.2-1.9,3.7-4.4,5.2-6.8c-2.2-1.4-4.3-2.9-6.4-4.4c-1.3-1.3-2.7-2.3-4.1-3.4C301.6,401.5,299.3,399.5,297.1,397.2"/>
</g>
<g>
	<path class="st13" d="M258.2,54.1c-2.9,0.1-5.7,0.5-8.6,0.9c-2.8,0.7-5.3,2.1-8,3.2c-1,0.4-1.9,1-2.9,1.6c1.2,0.8,1.8,2.2,3,2.9
		c3.4,2.4,6.6,5.3,9.3,8.4c1.6-2.1,3.3-4.3,5.1-6.2c1.2-1.1,2.1-2.6,3.4-3.7c2.8-2.4,5.8-4.7,9-6.6c-2-0.9-4.2-0.5-6.3-0.9
		C260.9,53.4,259.5,54.1,258.2,54.1"/>
	<path class="st13" d="M311.1,61.8c0.7,1.2,0.8,2.7,1.6,3.9c2.2,3.6,4.1,7.3,5.4,11.3c2.7-1.6,5.5-3.2,8.4-4.4
		c3-1.8,6.4-2.5,9.7-3.4c1.5-0.4,3-0.6,4.4-0.8c-1.6-1.6-3.8-2.2-5.7-3.3c-1.5-0.9-3.3-0.7-4.9-1.5c-2.6-0.8-5.2-1.6-7.8-2.2
		C318.6,61.3,314.8,61.2,311.1,61.8"/>
	<path class="st13" d="M190.7,70.9c-1.4,0.3-2.4,1.4-3.7,2c-2.1,0.9-4.2,2.1-6.2,3.3c-2.3,1.1-3.9,3-5.6,4.8c-1.3,1.5-2.8,2.9-4,4.5
		c1.4,0.4,2.5,1.4,4,1.7c4.1,0.9,8,2.3,11.7,4.2c0.7-3,1.6-6,2.8-8.9c0.9-3.5,2.9-6.5,4.6-9.6c0.7-1.2,1.6-2.3,2.4-3.5
		C194.6,69.3,192.7,70.5,190.7,70.9"/>
	<path class="st13" d="M377.1,91.3c0.1,1.4-0.4,2.8-0.1,4.1c0.7,4.2,0.9,8.4,0.6,12.6c3.1-0.4,6.3-0.8,9.5-0.8
		c3.5-0.5,7,0.2,10.5,0.7c1.4,0.2,2.7,0.6,4.1,0.9c-0.8-2.1-2.7-3.4-3.9-5.3c-0.8-1-2-1.5-2.9-2.3c-1.8-1.6-3.6-3.2-5.5-4.6
		c-1.6-1.5-3.8-2.3-5.9-3.1C381.4,92.8,379.3,91.8,377.1,91.3"/>
	<path class="st13" d="M131.1,114.2c-1.5,1-2,2.9-3.4,4.1c-2.3,2.9-5,5.6-6.3,9.1c-0.9,2.6-2.1,5.1-2.7,7.9c1.4-0.2,2.8,0.3,4.1-0.1
		c4.2-0.7,8.4-0.9,12.6-0.6c-0.7-4-0.8-8.1-1-12.2c0.2-4,0.7-8,1.8-11.9C134.1,111.2,132.9,113,131.1,114.2"/>
	<path class="st13" d="M426.7,143.8c-0.3,1.4-1.3,2.4-1.5,3.8c-0.9,4.1-2.4,8.2-4.2,12c3.1,0.7,6.2,1.7,9.1,2.8
		c3.3,0.8,6.2,2.7,9.1,4.4c1.3,0.7,2.5,1.7,3.7,2.6c0-2.5-1.3-4.7-1.9-7.1c-1.9-2.7-3-5.9-4.8-8.7c-1-2.2-2.7-3.8-4.4-5.4
		C430.1,146.8,428.5,145.2,426.7,143.8"/>
	<path class="st13" d="M92.5,177.3c-0.7,1.1-0.7,2.5-1.1,3.8c-1.1,2.7-1.7,5.5-2.5,8.3c-0.4,2.7-0.1,5.4-0.1,8.1
		c0,1.3,0.2,2.5,0.4,3.7c1.3-0.6,2.7-0.8,3.9-1.6c3.5-2.2,7.4-4,11.3-5.4c-1.6-2.7-3.2-5.5-4.4-8.4c-1.7-2.9-2.4-6.2-3.3-9.4
		c-0.4-1.5-0.6-3.1-0.8-4.6C94.2,173.2,93.7,175.4,92.5,177.3"/>
	<path class="st13" d="M449.6,214.4c-2.4,3.4-5.2,6.5-8.4,9.3c3.3,2.4,6.3,5.2,9.4,7.9c2.7,3,5.1,6.2,7.1,9.6c0.9-2,0.5-4.2,0.9-6.3
		c0.3-1.4-0.4-2.7-0.5-4.1c-0.1-2.2-0.2-4.5-0.6-6.7c-0.1-2.4-1.1-4.6-2.1-6.8c-1-2-1.7-4.1-2.9-5.9
		C451.6,212.5,450.3,213.2,449.6,214.4"/>
	<path class="st13" d="M82,243.7c-1,2.2-0.5,4.7-1,7c0.8,4.1,0.7,8.4,1.5,12.5c0.8,2.6,2,5,3.1,7.4c0.4,1,1,2,1.6,2.9
		c0.8-1.2,2.2-1.8,2.9-3c2.4-3.4,5.2-6.6,8.4-9.3c-3.4-2.4-6.4-5.2-9.4-8C86.5,250.3,84,247.1,82,243.7"/>
	<path class="st13" d="M446.6,285.3c-3.5,2.2-7.3,4.1-11.3,5.4c2.2,3.5,3.9,7.2,5.6,10.9c1.3,3.8,2.4,7.7,2.9,11.6
		c0.8-0.8,1.5-1.7,1.9-2.8c0.7-1.8,2.1-3.3,2.2-5.3c1.2-4.5,3.3-8.8,3.1-13.5c-0.2-2.6,0-5.2-0.4-7.8
		C449.3,284.3,447.8,284.5,446.6,285.3"/>
	<path class="st13" d="M96.8,315.5c-0.2,2.2,1.1,4,1.5,6.1c0.4,1.8,1.9,3,2.5,4.7c1.7,3.2,3.1,6.6,5.9,9.1c2.1,1.9,4,3.9,6.2,5.6
		c0.4-1.4,1.5-2.6,1.7-4.1c0.9-4,2.3-8,4.2-11.7c-4-0.9-7.8-2.3-11.7-3.7C103.5,319.9,100,317.9,96.8,315.5"/>
	<path class="st13" d="M404.2,350.3c0.4,2.9,0.8,5.8,0.8,8.7c0.5,5.1-0.3,10.3-1.5,15.3c2-0.7,3.3-2.6,5-3.8c1.5-1,2-2.9,3.4-4.1
		c1.8-2.1,3.6-4.2,5.1-6.5c1.6-3.3,2.9-6.8,3.9-10.3c-1.4,0.1-2.8-0.4-4.2-0.1C412.7,350.3,408.4,350.6,404.2,350.3"/>
	<path class="st13" d="M137.9,376.1c0.8,2.1,2.7,3.4,3.9,5.2c0.8,1.1,2.1,1.6,3.1,2.5c2.1,2,4.3,3.7,6.6,5.4
		c2.4,1.5,5.2,2.3,7.8,3.3c1.1,0.4,2.2,0.7,3.3,1c-0.2-1.4,0.3-2.8-0.1-4.2c-0.7-4.2-0.9-8.4-0.6-12.6c-2.9,0.4-5.8,0.8-8.8,0.8
		C148.1,378.2,142.9,377.3,137.9,376.1"/>
	<path class="st13" d="M352.7,393.5c-0.9,4-2.3,7.8-3.7,11.7c-1.7,3.6-3.7,7.1-6.2,10.3c2.2,0.1,4.1-1.1,6.2-1.6
		c1.6-0.4,2.8-1.8,4.4-2.4c2.5-1.2,4.9-2.5,7.2-4c2.8-2.5,5.4-5.3,7.8-8.2c-1.5-0.4-2.6-1.4-4.2-1.7
		C360.3,396.8,356.4,395.3,352.7,393.5"/>
	<path class="st13" d="M210.7,413.5c-3.7,1.3-7.6,2.4-11.6,2.9c1.4,1.6,3.5,2.1,5.3,3.2c1.6,1.1,3.7,0.8,5.3,1.7
		c3.7,1.1,7.4,2.6,11.3,2.3c2.5-0.3,5,0,7.5-0.5c-0.6-1.3-0.8-2.8-1.6-3.9c-2.2-3.5-4.1-7.3-5.3-11.3
		C218.1,410.1,214.4,411.8,210.7,413.5"/>
	<path class="st13" d="M280.7,423.1c-3,2.7-6.1,5.1-9.6,7.1c1.1,0.5,2.4,0.7,3.6,0.7c1.6-0.1,3.3,0.6,4.9,0.1
		c2.7-0.7,5.5-0.3,8.2-0.9c2.5-0.1,4.9-1.1,7.1-2.1c2-1,4.1-1.7,6-3c-1.2-0.8-1.8-2.2-3.1-2.9c-3.4-2.4-6.5-5.3-9.3-8.4
		C286.2,417.1,283.4,420.1,280.7,423.1"/>
</g>
<g>
	<path class="st14" d="M279.5,55.7c4.5,2.9,8.4,6.7,11.9,10.8c2.5-1.7,4.9-3.6,7.6-4.8c1.2-0.4,2.5-0.7,3.6-1.3
		c-3.1-2.1-6.7-3.4-10.3-4.5c-2.5-0.8-5.1-0.4-7.6-0.5C283,55.4,281.2,55.3,279.5,55.7"/>
	<path class="st14" d="M215.1,62.8c-2.6,1.2-5.4,1.8-7.7,3.5c5.3,1.1,10.4,2.9,15.1,5.4c1.3-1.9,2.4-4,3.9-5.8
		c1.1-1.7,2.8-2.7,4.2-4.1c-1.2-0.2-2.3-0.4-3.5-0.5C223,61.3,218.8,61,215.1,62.8"/>
	<path class="st14" d="M350.2,73.7c2,3.2,4,6.4,5.2,10c0.5,1.5,1.3,2.9,1.6,4.5c2.3-0.4,4.6-1.2,6.9-1.4c1.9-0.4,3.9,0.1,5.8,0.1
		c-0.7-1-1.4-1.9-2.1-2.8c-2.9-2.8-5.7-6-9.5-7.4C355.6,75.7,353.1,74.1,350.2,73.7"/>
	<path class="st14" d="M159.3,92.1c-1.9,0.5-3.6,1.6-5.4,2.5c-2.3,1.2-3.9,3.4-5.8,5.1c-1.3,1.2-2.5,2.4-3.5,3.9
		c3.7-0.6,7.4-1.2,11.2-1c1.6,0.1,3.3-0.1,4.9,0.2c0.5-2.3,0.7-4.8,1.4-7.1c0.3-1.9,1.6-3.5,2.3-5.3
		C162.7,90.9,160.8,91.2,159.3,92.1"/>
	<path class="st14" d="M408.7,117.3c1,5.3,1.3,10.7,0.8,16c2.3,0.5,4.7,0.7,7,1.4c1.9,0.3,3.5,1.6,5.3,2.3c-0.4-1.6-0.6-3.2-1.4-4.6
		c-0.4-0.7-0.6-1.5-0.8-2.2c-1.3-2.3-2.2-4.8-4.2-6.6C413.1,121.5,411.3,118.9,408.7,117.3"/>
	<path class="st14" d="M110.4,145.6c-2.6,2.5-5.2,5.1-6.4,8.6c-1,2.6-2.5,5-3,7.8c3.2-2,6.5-4,10.1-5.2c1.5-0.5,2.9-1.3,4.5-1.6
		c-0.6-3-1.5-6-1.5-9.2c0.1-1.2,0.3-2.4,0.2-3.6C112.9,143.4,111.4,144.3,110.4,145.6"/>
	<path class="st14" d="M446,180c-1,5.3-2.9,10.3-5.4,15.1c2,1.4,4.2,2.5,6,4.1c1.6,1,2.6,2.8,3.9,4.1c0.3-1.8,0.8-3.6,0.5-5.4
		c0.2-2-0.2-3.9-0.3-5.8c-0.2-2.6-1.6-4.9-2.5-7.3C447.7,183,447,181.4,446,180"/>
	<path class="st14" d="M83.5,219.5c-0.9,2.7-0.5,5.5-0.6,8.3c-0.1,1.7-0.1,3.3,0.3,5c2.2-3.1,4.5-6.2,7.4-8.8c1.1-1,2.1-2.2,3.4-3.2
		c-1.2-1.9-2.8-3.7-3.8-5.7c-1.2-1.7-1.5-3.7-2.2-5.6C85.7,212.5,84.6,216,83.5,219.5"/>
	<path class="st14" d="M445.7,264c1.3,2,2.9,3.8,3.9,5.9c1.1,1.6,1.4,3.6,2.1,5.4c1.1-1.6,2.1-3.2,2.6-5.1c0.8-1.3,1.1-2.9,1.6-4.4
		c0.5-1.6,0.8-3.3,0.7-5c-0.1-2.9,0.4-5.8-0.3-8.7C453.6,256.6,449.8,260.5,445.7,264"/>
	<path class="st14" d="M89.1,281.7c-0.3,1.6-0.7,3.3-0.5,5c0,3.5,0,7.3,1.5,10.6c1.2,2.6,1.8,5.4,3.5,7.7c0.6-2.9,1.4-5.8,2.4-8.6
		c0.9-2.2,2-4.4,2.9-6.6c-2.5-1.6-5.2-3.1-7.4-5.2C90.8,283.6,90,282.6,89.1,281.7"/>
	<path class="st14" d="M428.5,328c-1.5,0.5-2.9,1.3-4.4,1.6c0.4,2.3,1.2,4.6,1.4,6.9c0.4,2-0.1,3.9-0.1,5.9c1.5-1.1,3.1-2.1,4.3-3.6
		c1.5-1.1,2.5-2.7,3.8-4.1c1.6-2,2.3-4.5,3.4-6.7c0.8-1.7,1.5-3.4,1.8-5.2C435.4,324.9,432.1,326.8,428.5,328"/>
	<path class="st14" d="M117.9,347.9c0.4,1.8,0.8,3.7,1.7,5.4c0.4,1.8,1.5,3.3,2.3,4.9c1.3,2.5,3.6,4.2,5.4,6.2
		c1.1,1.2,2.3,2.4,3.7,3.3c-1-5.3-1.3-10.7-0.8-16c-3-0.6-6-0.9-8.8-2C120.2,349,119.1,348.3,117.9,347.9"/>
	<path class="st14" d="M379,382.1c-0.5,2.3-0.7,4.7-1.4,7c-0.3,1.9-1.6,3.5-2.3,5.3c1.3-0.3,2.6-0.5,3.9-1c0.9-0.5,1.9-0.9,3-1.2
		c2.3-1.3,4.8-2.2,6.6-4.2c2-2.3,4.6-4,6.3-6.7C389.7,382.3,384.3,382.5,379,382.1"/>
	<path class="st14" d="M175.7,398.1c-1.9,0.4-3.9-0.1-5.9-0.1c0.6,1,1.3,1.9,2,2.8c2.9,2.7,5.6,6,9.5,7.4c2.7,1,5.2,2.6,8.1,3
		c-3-4.4-5.3-9.4-6.8-14.5C180.3,397.1,178,397.9,175.7,398.1"/>
	<path class="st14" d="M317.2,413.2c-1.4,2-2.5,4.2-4.1,6c-1,1.6-2.8,2.5-4.1,3.9c1.1,0.2,2.2,0.3,3.3,0.5c3,0,6,0,8.9-0.5
		c2.1-0.4,4-1.5,6-2.2c1.8-0.6,3.5-1.3,5-2.4C327,417.6,322,415.7,317.2,413.2"/>
	<path class="st14" d="M242.3,422.3c-1.6,1.1-3.6,1.4-5.4,2.1c1.4,0.9,2.8,2,4.4,2.4c3.3,1.4,6.8,2.8,10.4,2.6
		c2.8-0.1,5.6,0.4,8.4-0.3c-2.8-1.9-5.6-4-7.9-6.4c-1.3-1.5-2.8-2.8-4-4.3C246.3,419.6,244.5,421.2,242.3,422.3L242.3,422.3z"/>
</g>
</svg>
