<svg xmlns="http://www.w3.org/2000/svg" viewBox="0 0 675 384.27"><defs><style>.cls-1{font-size:154.14px;font-family:ShineTypewriterRegular, Shine Typewriter;}.cls-2{letter-spacing:-0.02em;}.cls-3{fill:#060041;}.cls-4{font-size:209.52px;font-family:CookieMonster;}</style></defs><title>Asset 1</title><g id="Layer_2" data-name="Layer 2"><g id="Layer_1-2" data-name="Layer 1"><text class="cls-1" transform="translate(164.02 337.41)">Pi<tspan class="cls-2" x="135.95" y="0">x</tspan><tspan x="213.33" y="0">el</tspan></text><path class="cls-3" d="M512.16,150.7c-.49.25-1,.48-1.48.7l-.15.07a10,10,0,0,1-7.54,0,10.82,10.82,0,0,1-1.52-.77H370c-.08.49-.17.94-.24,1.32-.43,2.21-1.4,6.52-3,13.17-1.93,8.15-2.51,10.24-2.78,11a9.64,9.64,0,0,1-4.13,5.82,9.38,9.38,0,0,1-7.69,1.28,9.21,9.21,0,0,1-5.8-3.82,9.24,9.24,0,0,1-3.93-9.9c.11-.76.54-3.13,3.84-17.06.15-.63.3-1.24.44-1.84H297.46c-.64,19.18-.74,23.49-.74,24.25a9.44,9.44,0,0,1-.79,3.9,9.94,9.94,0,0,1-3.05,5.46A9.89,9.89,0,0,1,276.2,177c0-5.35.21-13.06.63-22.92.05-1.16.1-2.29.14-3.42H195.58a34.16,34.16,0,0,0,7.88,7.19c4.79,3.17,10.87,5.3,18,6.31s15.4,0,24.47-3l.11,0a9.74,9.74,0,0,1,7.47.74,10.08,10.08,0,0,1,4.88,5.63,9.45,9.45,0,0,1-.58,7.68,10.46,10.46,0,0,1-5.45,4.91l-.3.11A82.86,82.86,0,0,1,227,184.54a65.1,65.1,0,0,1-34.57-10,52.41,52.41,0,0,1-17.51-19.24c-.72-1.36-1.37-2.73-2-4.13l-.26.41.17-.61-.09-.23H128.94a148.94,148.94,0,0,1-20.38,4.68c-.71,11.85-1.2,21.76-1.45,29.5a9.28,9.28,0,0,1-3.2,7.07,10.46,10.46,0,0,1-7,2.58,9.23,9.23,0,0,1-7.16-3.21,10.38,10.38,0,0,1-2.58-6.95v-.14c.1-3.17.71-14.21,1.86-33.53H0v60.64H675V150.7Zm17.94,17.73v.08c-.41,3.83-.76,8.13-1,12.78v.18a10.25,10.25,0,0,1-3.29,6.5,9.23,9.23,0,0,1-6.44,2.6c-.31,0-.62,0-.93,0a10.26,10.26,0,0,1-6.63-3.29,9.35,9.35,0,0,1-2.57-7.39c.27-4.72.63-9.27,1.06-13.52a9.63,9.63,0,0,1,3.6-6.59,9.83,9.83,0,0,1,14,1.34A10,10,0,0,1,530.1,168.43Z"/><text class="cls-4" transform="translate(82.5 181.02)">Pen &amp;</text></g></g></svg>