<?xml version="1.0" encoding="UTF-8"?>
<svg enable-background="new 0 0 534 473" version="1.1" viewBox="0 0 534 473" xml:space="preserve" xmlns="http://www.w3.org/2000/svg">
<style type="text/css">
	.st0{fill:#34C4EC;}
	.st1{fill:#FFE500;}
	.st2{fill:#923F93;}
	.st3{fill:#E7A6B6;}
	.st4{fill:#C6332E;}
	.st5{fill:#ACCE72;}
	.st6{fill:#F99B1F;}
	.st7{fill:#C95828;}
	.st8{fill:#5186C5;}
	.st9{fill:#B98ABA;}
	.st10{fill:#01AA95;}
	.st11{fill:#069C4D;}
	.st12{fill:#E5D33C;}
	.st13{fill:#048BBD;}
	.st14{fill:#F4AFBC;}
</style>

	<path class="st0" d="m249.2 101.1c-0.5 1.8-0.4 3.6-0.9 5.4-0.6 2-0.3 4.1-0.4 6.2 0 1.8-0.6 3.7-0.2 5.5 0.6 3-0.2 6.1 0.4 9.1 0.3 5.4 1 10.9 2.2 16.2 0.7 2.9 0.9 5.9 2.1 8.7 0.7 3.3 1.8 6.5 3 9.6 0.2-2.6 0-5.3 0.3-7.9 0.1-2.1 0.4-4.2 0.6-6.4 0.2-3.6 1.2-7.1 1.8-10.7 0.4-2.7 1.1-5.3 1.4-8 0.5-2.1 0.5-4.3 1.2-6.4 0.2-0.9 0.6-1.8 0.7-2.7-0.5-2.3-2.6-3.8-3.5-5.9-1-2.2-2.6-4-3.6-6.1-1.8-2.2-3.3-4.5-5.1-6.6"/>
	<path class="st0" d="m301.9 108.7c-1.3 1.7-1.8 3.7-2.7 5.6-0.7 1.6-1.8 3.1-2.2 4.9-0.7 3.1-2.6 5.7-3.2 8.8-2 5.8-3.5 11.8-4.5 17.8-0.5 2.2-1 4.4-1 6.6-0.6 3.3-0.8 6.7-0.9 10.1 1.3-2.7 2.3-5.5 3.7-8.1 2.1-4 4.1-8 6.7-11.7 1.9-3.2 4.2-6.1 5.9-9.4 1.4-2.2 2.6-4.6 4.4-6.5 2-2 0-4.7-0.1-7-0.1-2.8-0.9-5.5-1.1-8.2-0.6-2.6-1-5.2-1.9-7.7-1.3 1.5-2 3.3-3.1 4.8"/>
	<path class="st0" d="m196.7 119.8c0.1 1.1 0.5 2.2 0.8 3.3 0.4 1.3 0.4 2.7 0.9 4 0.5 1.6 1.4 3.2 1.9 4.8 0.5 1.5 0.8 3 1.7 4.4 1.6 2.6 2.1 5.7 3.8 8.2 2.6 5.5 5.8 10.8 9.3 15.8 1.2 1.9 2.3 3.8 4 5.4 2 2.7 4.1 5.4 6.5 7.8-0.3-1-0.7-2-1.1-3-1.8-4.2-3-8.6-4.3-13-1.5-6.6-2.7-13.2-4.4-19.7-0.5-1.8-0.4-3.7-0.8-5.5-1.4-1.9-3.8-2.4-5.5-3.9-1.7-1.6-3.8-2.6-5.6-4.2-2.3-1.6-4.7-3.2-7.2-4.4"/>
	<path class="st0" d="m350.6 131.2c-1.6 1-2.8 2.4-4.1 3.7-1.4 1.5-3.3 2.5-4.4 4.2-1.9 2.6-4.7 4.3-6.5 7-5 5.5-9.1 11.8-13.2 18-1.9 3.7-4.2 7.1-5.7 11 2.2-1.7 4-3.9 6.2-5.7 2.4-2 4.7-4 7.2-5.9 5.4-3.7 10.9-7.3 16.1-11.3 1.4-1.1 3.1-1.6 4.5-2.7 1.2-1.9 0.8-4.3 1.5-6.3 0.6-1.6 0.9-3.2 1.2-4.8 1-3.4 1.6-6.9 2-10.5-1.9 0.9-3.2 2.3-4.8 3.3"/>
	<path class="st0" d="m155.3 157c0.9 1.6 2.3 3 3.3 4.6 1.3 2.2 3.4 3.6 5 5.5 0.9 1.1 1.7 2.3 2.9 3.1 2.5 1.8 4.1 4.4 6.6 6.1 4.1 3.7 8.5 7 13.2 10.1 2.5 1.5 4.7 3.4 7.4 4.6 2.8 1.8 5.8 3.3 8.8 4.6-1.7-2.2-3.9-4-5.7-6.2-2.1-2.6-4.3-5-6.2-7.7-2.3-3.4-4.6-6.7-6.8-10-2.1-2.9-4.5-5.7-6.1-8.9-0.6-1.7-2.7-1.9-4.2-2.1-2.2-0.1-4.2-1.2-6.4-1.5-1.2-0.2-2.4-0.6-3.6-0.9-2.8-0.5-5.5-1-8.2-1.3"/>
	<path class="st0" d="m387.2 170.5c-2 0.2-3.8 1.2-5.6 1.9-1.9 0.8-4 1-5.7 2.2-2.5 1.6-5.5 2.1-8 3.6-5.6 2.7-11 5.9-16 9.5-2 1.2-3.9 2.5-5.6 4.1-2.7 1.9-5.2 4-7.6 6.4 1.4-0.5 2.8-1 4.1-1.5 3.3-1.4 6.8-2.3 10.2-3.4 3.8-1.1 7.7-1.7 11.6-2.6 4.8-0.8 9.4-2.7 14.3-2.9 0.5 0 1-0.1 1.3-0.5 1.6-1.4 2.1-3.6 3.5-5.1 1.7-1.8 2.7-4 4.4-5.8 1.5-2.3 3.1-4.5 4.3-7-1.7 0.1-3.4 0.9-5.2 1.1"/>
	<path class="st0" d="m149.8 203.8c-2.4 0.9-4.9 0.6-7.4 1.3-3.7 0.5-7.5 1.2-11.1 2.3 0.9 0.7 1.9 1.2 2.9 1.8 1.2 0.7 2.2 1.6 3.4 2.2 1.5 0.8 3.2 1.2 4.7 2 1.4 0.7 2.8 1.6 4.4 2 3 0.7 5.5 2.6 8.6 3.2 5.9 2.1 12 3.6 18.2 4.6 2.2 0.5 4.4 0.9 6.6 1 3.2 0.6 6.5 0.7 9.7 0.8-1.7-0.8-3.4-1.6-5.1-2.3-3.4-1.5-6.6-3.4-9.9-5.1-3.2-1.9-6.2-4.1-9.4-6-3.8-2.7-8.1-4.5-11.5-7.6-1-1.2-2.8-0.6-4.1-0.2"/>
	<path class="st0" d="m391.3 220.5c-2.1 0-4.3-0.3-6.4 0.1-5.4 0.3-10.8 1-16.2 2.2-2.9 0.7-6 0.9-8.8 2.1-3.3 0.7-6.5 1.8-9.6 3 4.4 0.1 8.8 0.2 13.2 0.7 4.5 0.2 8.9 1.4 13.4 2.1 3.1 0.7 6.3 1 9.5 1.6 2.1 0.1 4 1 6 1.4 1.5-0.3 2.7-1.3 3.8-2.2 1.5-1.2 3.4-1.8 4.9-3 1.1-0.8 2.3-1.4 3.5-2.1 2.2-1.5 4.5-3 6.5-4.7-1.7-0.5-3.5-0.4-5.1-0.9-3-0.8-6.1-0.1-9.1-0.6-1.8-0.3-3.7 0.4-5.6 0.3"/>
	<path class="st0" d="m144.1 252.8c-1.9 1.7-4.4 2.5-6.4 4.1-3.2 1.8-6.3 3.9-9.1 6.2 1.8 0.5 3.6 0.5 5.4 0.9 2.8 0.7 5.6 0 8.4 0.5 2.4 0.5 4.7-0.4 7.1-0.2 1.7 0.1 3.5 0.2 5.2-0.1 6.2-0.3 12.3-1.2 18.4-2.6 2.2-0.4 4.5-0.7 6.6-1.6 3.2-0.8 6.3-1.7 9.4-3-1.3-0.2-2.6-0.2-3.9-0.2-3.8 0.1-7.6-0.6-11.4-0.8-3.6-0.4-7.1-1.3-10.7-1.9-3.2-0.7-6.5-1.1-9.7-1.6-2.1-0.1-4-1-6-1.4-1.4 0.2-2.4 0.9-3.3 1.7"/>
	<path class="st0" d="m349.7 259.9c2.9 1.4 6 2.5 8.8 4.1 2.9 1.6 5.9 3 8.7 4.8 5 3.3 10 6.6 15.2 9.6 1.5 0.9 2.7 2.2 4.1 3.1 2.6 0.4 4.9-1.2 7.5-1.1 4.8-0.8 9.7-1.3 14.3-2.9-1.5-1.2-3.3-1.9-4.8-3-2-1.5-4.4-2-6.6-3.1-1.4-0.7-2.7-1.5-4.2-1.8-3-0.7-5.5-2.6-8.5-3.1-5.9-2.1-12-3.5-18.1-4.6-2.1-0.5-4.1-0.9-6.3-1-3.3-0.7-6.7-1-10.1-1"/>
	<path class="st0" d="m196.7 288.2c-3.1 1.3-6.3 2.1-9.5 3.2-3.7 1.2-7.6 1.7-11.3 2.6-3.4 0.6-6.7 1.5-10.1 2.3-2 0.7-4.1 0.6-6.1 1-1.2 0.9-1.9 2.2-2.5 3.4-0.9 1.8-2.5 3-3.5 4.8-0.7 1.2-1.6 2.2-2.4 3.2-1.4 2.2-3 4.4-4.1 6.8 1.9-0.2 3.6-1 5.5-1.2 2.3-0.3 4.4-1.7 6.6-2.4 1.5-0.5 3-0.8 4.4-1.7 2.3-1.5 5.1-2 7.5-3.4 1.6-1 3.4-1.5 4.9-2.6 5.2-2.7 10-6.2 14.9-9.4 1-0.7 1.8-1.7 2.9-2.4 2.5-1.7 4.7-3.7 6.9-5.8-1.3 0.6-2.7 1.1-4.1 1.6"/>
	<path class="st0" d="m337.2 289.2c0.9 1.1 1.9 2.2 3 3.2 2.4 2.3 4.4 5.1 6.6 7.6 2.5 2.9 4.4 6.3 6.7 9.4 2.1 3.3 4.6 6.4 6.9 9.6 0.9 1.3 1.4 2.8 2.4 4 1.2 0.7 2.5 0.9 3.8 1 2.1 0.2 4 1.2 6 1.5 1.3 0.2 2.6 0.6 3.9 1 2.6 0.5 5.2 1 7.9 1.2-1-1.7-2.3-3-3.3-4.7s-2.5-3-3.9-4.3c-1.4-1.4-2.4-3.1-4-4.3-2.2-1.6-3.8-4-6-5.6-1.5-1.1-2.7-2.5-4.3-3.6-4.5-3.8-9.6-6.9-14.5-10.3-1-0.6-2.2-1-3.2-1.7-2.5-1.5-5.2-2.8-8-4"/>
	<path class="st0" d="m219.2 313.3c-1.9 1.9-4.1 3.6-6.2 5.4-3.6 3.1-7.7 5.5-11.6 8.3-3.9 2.4-7.2 5.7-11.4 7.7-1.3 0.5-1.5 2.1-1.8 3.4 0 2.8-1.4 5.3-1.7 8.1-1 3.5-1.6 7.1-2.1 10.8 1.7-0.9 3-2.3 4.6-3.3 2.1-1.2 3.5-3.2 5.3-4.8 1.1-1 2.4-1.8 3.3-3.1 1.8-2.5 4.6-4.2 6.3-6.8 5.1-5.5 9.2-11.9 13.3-18.2 1.8-3.7 4.2-7.1 5.7-11-1.2 1.1-2.5 2.3-3.7 3.5"/>
	<path class="st0" d="m314.1 311.4c0.4 1.3 0.9 2.6 1.4 3.8 1.4 3.4 2.4 6.9 3.5 10.4 0.8 2.3 1.2 4.7 1.6 7.1 1.1 4.9 2 9.8 3.4 14.6 0.5 1.7 0.4 3.5 0.8 5.2 1.4 1.9 3.8 2.4 5.4 3.9 1.8 1.7 4 2.7 5.8 4.4 2.3 1.5 4.5 3.1 7 4.3-0.2-1.8-0.9-3.5-1.2-5.3-0.3-2.6-1.8-4.8-2.5-7.2-0.4-1.4-0.8-2.8-1.6-4-1.6-2.6-2.1-5.7-3.8-8.2-2.4-4.9-5.2-9.7-8.3-14.2-1.7-2.3-3-4.9-5-7-1.9-2.8-4.1-5.4-6.5-7.8"/>
	<path class="st0" d="m246.4 334.8c-1.9 3.9-4.5 7.2-6.7 10.9-1.9 2.7-3.5 5.5-5.2 8.3-0.9 1.9-2.5 3.3-3.6 5.1-0.4 2.3 1 4.4 1.1 6.7 0.1 2.4 0.9 4.6 1 7 0.6 2.7 1.1 5.4 1.9 8.1 1.1-1.5 1.8-3.3 3-4.8 1.2-1.6 1.8-3.5 2.6-5.3 0.7-1.7 1.9-3.3 2.4-5.2 0.7-3.2 2.7-5.9 3.3-9.1 1.1-2.9 1.9-5.9 2.7-8.9 1-3.8 1.5-7.6 2.4-11.4 0.4-1.9 0.3-3.9 0.7-5.8 0.4-2.7 0.4-5.4 0.6-8.1-2 4.3-3.9 8.5-6.2 12.5"/>
	<path class="st0" d="m284.4 323.3c-0.2 1.2-0.2 2.3-0.2 3.5 0.1 4.1-0.6 8.1-0.8 12.1-0.9 5.9-2.3 11.8-3.1 17.8-0.4 2-0.5 4.1-1.2 6-0.2 1-1 2.2-0.4 3.2 0.7 1.8 2.3 3 3.1 4.7 0.7 1.6 1.7 3 2.7 4.4 1.7 3.1 3.8 6 6 8.7 0.5-1.8 0.5-3.7 0.9-5.4 0.7-2.5 0.1-5.2 0.5-7.8 0.2-1.5 0.3-3 0-4.4-0.3-2-0.1-4 0-6-0.5-6.4-1.1-12.8-2.5-19.1-0.7-2.8-0.9-5.8-2-8.5-0.8-3.1-1.7-6.2-3-9.2"/>


	<path class="st1" d="m268.7 151.4c0.9 0.2 1.8 0.5 2.6 0.7-0.2-2.4-0.2-4.9-0.3-7.3-1.1 2.1-1.2 4.5-2.3 6.6"/>
	<path class="st1" d="m233.6 151.9c-0.3 2.3 0.5 4.6 0.4 6.9 0.9-0.1 1.8-0.2 2.7-0.3-1.1-2.2-1.9-4.5-3.1-6.6"/>
	<path class="st1" d="m303.6 157.9c0.7 0.5 1.5 1.1 2.2 1.6 0.7-2.3 1.8-4.4 2.4-6.7-1.8 1.4-2.8 3.6-4.6 5.1"/>
	<path class="st1" d="m201.7 172.7c0.6 2.2 2.2 4 2.9 6.2 0.8-0.5 1.6-0.9 2.4-1.4-1.8-1.5-3.3-3.4-5.3-4.8"/>
	<path class="st1" d="m333.4 177.2c0.4 0.8 0.9 1.6 1.3 2.4 1.5-1.8 3.3-3.4 4.8-5.3-2.2 0.6-3.9 2.3-6.1 2.9"/>
	<path class="st1" d="m180.2 204c1.4 1.9 3.6 2.9 5.1 4.6 0.5-0.7 1.1-1.4 1.7-2.2-2.3-0.6-4.5-1.7-6.8-2.4"/>
	<path class="st1" d="m353.5 206.5c0.1 0.9 0.2 1.8 0.4 2.7 2.1-1.1 4.4-1.9 6.5-3-2.3-0.3-4.6 0.5-6.9 0.3"/>
	<path class="st1" d="m172.4 241.2c2 1.2 4.4 1.3 6.4 2.3 0.2-0.9 0.5-1.8 0.7-2.7-2.3 0.4-4.7 0.1-7.1 0.4"/>
	<path class="st1" d="m360.8 241.3c-0.2 0.9-0.4 1.8-0.7 2.7 2.4-0.2 4.8-0.2 7.3-0.3-2-1.3-4.4-1.4-6.6-2.4"/>
	<path class="st1" d="m179.3 278.7c2.3 0.3 4.6-0.4 6.9-0.4l-0.3-2.7c-2.2 1.1-4.5 1.9-6.6 3.1"/>
	<path class="st1" d="m354.3 276.2c-0.5 0.7-1.1 1.4-1.7 2.2 2.3 0.7 4.4 1.8 6.7 2.4-1.3-1.9-3.4-2.9-5-4.6"/>
	<path class="st1" d="m200.1 310.5c2.2-0.6 4-2.2 6.2-2.9-0.5-0.8-0.9-1.6-1.4-2.4-1.5 1.9-3.4 3.4-4.8 5.3"/>
	<path class="st1" d="m332.6 307.3c1.9 1.5 3.5 3.4 5.4 4.9-0.6-2.3-2.2-4.1-3-6.3-0.8 0.5-1.6 1-2.4 1.4"/>
	<path class="st1" d="m233.9 325.3c-0.7 2.3-1.8 4.5-2.4 6.8 1-0.8 1.9-1.8 2.6-2.9 0.6-0.8 1.5-1.4 1.9-2.3-0.7-0.6-1.4-1.1-2.1-1.6"/>
	<path class="st1" d="m303 326.4c1.1 2.1 1.9 4.5 3.1 6.6 0.2-2.3-0.4-4.6-0.4-6.9-0.9 0.1-1.8 0.2-2.7 0.3"/>
	<path class="st1" d="m268.3 332.7c0.3 2.4 0.1 4.9 0.3 7.3 1.2-2 1.3-4.5 2.4-6.6-0.9-0.2-1.8-0.4-2.7-0.7"/>


	<path class="st2" d="m280.8 126.7c-0.4 0.4-0.9 0.8-1.3 1.2-1.6 3.1-3.2 6.1-4.8 9.2-0.2 1 0 2 0.5 2.8 1 2 1.3 4.2 2.4 6.1s1.8 3.9 2.4 5.9c0.5-1.1 1.1-2.2 1.5-3.4 0.1-1.3 0-2.5 0.3-3.8 0.4-1.4-0.4-2.7-0.3-4.1s-0.4-2.8-0.2-4.3c0.3-2.1-0.4-4.1-0.4-6.2 0.1-1 0-2.2-0.1-3.4"/>
	<path class="st2" d="m235.6 131.3c-0.3 0.9-1 1.7-0.9 2.7-0.2 3.1-0.5 6.3-0.8 9.4 0.3 0.8 0.8 1.6 1.4 2.1 1.8 1.5 3 3.5 4.8 4.9 1.7 1.3 3.1 2.9 4.5 4.5 0-1.5 0.3-3.1-0.4-4.6-0.8-1.5-0.6-3.3-1.7-4.7-0.9-1.3-1.4-2.9-2.2-4.2-0.4-0.7-0.6-1.5-0.8-2.2-0.8-1.9-2.1-3.4-2.7-5.4-0.2-0.8-0.7-1.6-1.2-2.5"/>
	<path class="st2" d="m322.5 140.3c-2.1 2-4.5 3.7-6.6 5.7-1.2 0.7-2.1 2-1.9 3.4 0.2 2.4-0.4 4.8-0.1 7.1 0.3 2.1 0.1 4.2 0 6.3 1.2-1.1 2.7-2.1 3.1-3.7 0.4-1.4 1.6-2.4 1.9-3.8 0.3-2 1.3-3.8 1.7-5.7 1.4-2 1.5-4.5 2.4-6.6 0.6-1 0.9-2.1 1.2-3.2-0.6 0.1-1.1 0.3-1.7 0.5"/>
	<path class="st2" d="m195.7 152.8c0.1 0.9-0.3 1.8 0.1 2.6 0.8 2.1 1.3 4.4 2.1 6.6 0.4 1 0.4 2.4 1.3 3.1 0.6 0.6 1.5 0.9 2.3 1.2 1.9 0.7 3.5 1.9 5.4 2.4 2.1 0.6 4.1 1.6 6.1 2.5-0.6-1.5-0.9-3.2-2.2-4.2-1.2-1-1.7-2.6-3-3.4-1.6-1-2.8-2.5-4.3-3.5-1.5-2.3-4.1-3.3-5.8-5.4-0.5-0.7-1.3-1.2-2-1.9"/>
	<path class="st2" d="m356.8 168.5c-2.1 0.8-4.4 1.3-6.5 2.1-1.1 0.4-2.4 0.4-3.2 1.3-0.6 0.6-0.9 1.4-1.2 2.2-0.7 1.9-1.9 3.5-2.4 5.5-0.6 2.1-1.5 4.1-2.5 6.1 1.5-0.6 3.2-0.9 4.2-2.2 1-1.2 2.6-1.7 3.4-3 1-1.6 2.5-2.8 3.5-4.3 2.1-1.3 3.1-3.6 4.8-5.3 0.9-0.7 1.7-1.7 2.4-2.6-0.8 0.1-1.7-0.2-2.5 0.2"/>
	<path class="st2" d="m167.1 188c0.2 0.6 0.4 1.1 0.5 1.7 2.3 2.6 4.4 5.3 6.7 7.9 0.8 0.6 1.9 0.7 2.8 0.6 2.3-0.2 4.5 0.5 6.8 0.1 2.1-0.3 4.1-0.1 6.2 0-1-1.1-1.9-2.5-3.4-3-1.4-0.4-2.5-1.6-4-2-2-0.3-3.8-1.3-5.8-1.7-2.2-1.5-5.1-1.5-7.4-2.8-0.7-0.3-1.6-0.5-2.4-0.8"/>
	<path class="st2" d="m366.7 208c-1.5 1.8-3.6 2.9-4.9 4.8-1.3 1.7-2.9 3.1-4.5 4.5 1.6 0 3.3 0.3 4.8-0.4 1.4-0.7 3.2-0.6 4.4-1.6 1.3-0.9 2.8-1.3 4.2-2.2 0.7-0.5 1.6-0.6 2.4-0.9 1.9-0.8 3.5-2.2 5.5-2.8 0.8-0.3 1.6-0.8 2.3-1.2-0.6-0.3-1.2-0.6-1.8-0.8-3-0.2-5.9-0.5-8.9-0.7-1.3-0.5-2.6 0.3-3.5 1.3"/>
	<path class="st2" d="m169.9 230.6c-2.3 0.2-4.7 0.6-7 0.3-1.9 0.1-3.8 0.7-5.8 0.5-1-0.1-2 0.1-3.1 0.2 0.5 0.4 0.9 1 1.4 1.4 3.2 1.5 6.2 3.3 9.3 4.7 0.9 0 1.8-0.2 2.5-0.6 1.9-1 4.1-1.3 5.9-2.3 1.9-1.1 4-1.8 6.1-2.6-1.4-0.6-2.8-1.6-4.4-1.4-1.6 0-3.2-0.8-4.9-0.2"/>
	<path class="st2" d="m372.3 247.8c-1.9 1-4 1.2-5.9 2.3s-4 1.8-6.1 2.5c1.4 0.6 2.8 1.6 4.4 1.5 1.6-0.2 3.2 0.7 4.7 0.2 1.8-0.4 3.6-0.2 5.4-0.5 2.3 0.4 4.5-0.1 6.8-0.4 1.3 0.1 2.5 0.1 3.8-0.1-0.9-1.8-3-2.1-4.5-3.1-1.6-1-3.3-1.6-4.9-2.6-1.1-0.7-2.6-0.4-3.7 0.2"/>
	<path class="st2" d="m177.9 267.9c-1.4 0.7-3.1 0.6-4.4 1.5-1.6 1.1-3.4 1.7-5.1 2.7-2.7 0.5-4.6 2.6-7.2 3.3-0.8 0.3-1.6 0.8-2.3 1.2 0.6 0.3 1.1 0.6 1.7 0.9 3.4 0.1 6.8 0.6 10.2 0.8 1-0.2 1.8-0.9 2.5-1.6 1.4-1.6 3.3-2.7 4.6-4.4 1.3-1.8 3-3.2 4.6-4.7-1.6-0.1-3.2-0.5-4.6 0.3"/>
	<path class="st2" d="m349.4 286.5c0.9 0.9 1.6 2 2.6 2.7 1.1 0.5 2.2 0.9 3.2 1.7 1.2 0.9 2.8 0.8 4.2 1.4 1.3 0.6 2.9 0.7 4.1 1.6 1.9 1 4.2 1.1 6.2 2.1 0.9 0.5 1.8 0.7 2.7 1-0.3-0.7-0.3-1.6-0.9-2.1-1.7-1.7-3-3.8-4.7-5.4-0.8-0.8-1.3-2.1-2.5-2.4-0.5-0.2-1.1-0.3-1.7-0.3-2.4 0.2-4.8-0.4-7.1-0.1-1.9 0.1-4-0.1-6.1-0.2"/>
	<path class="st2" d="m194.6 301.1c-1.2 1.4-3.2 2.1-4 3.9-1.5 1.6-2.7 3.5-4.5 4.9-1.4 1.5-2.4 3.3-4 4.6-0.7 0.6-1.2 1.4-1.8 2.1 1 0 2 0.2 2.9-0.2 2.6-0.9 5.3-1.7 8-2.5 1.3-0.2 2-1.4 2.4-2.6 0.7-2.1 2-3.9 2.6-6s1.5-4.1 2.5-6.1c-1.4 0.5-3 0.7-4.1 1.9"/>
	<path class="st2" d="m326.5 313.6c0.4 1.1 0.7 2.2 1.3 3.2 0.8 1 1.8 1.8 2.4 2.8 0.8 1.4 2.5 2 3.6 3.2 0.8 0.9 2 1.5 2.8 2.5 1.4 1.9 3.7 2.8 5.1 4.6 0.6 0.8 1.5 1.4 2.3 2.1-0.1-0.9 0.3-1.9-0.1-2.7-0.8-2.1-1.2-4.4-2.1-6.5-0.4-1-0.4-2.4-1.4-3.1-0.8-0.8-1.9-0.9-2.8-1.4-1.6-0.7-3.2-1.7-4.9-2.2-2.2-0.6-4.2-1.5-6.2-2.5"/>
	<path class="st2" d="m222.8 325.5c-0.4 1.5-1.7 2.5-2 4.1-0.3 2-1.2 3.8-1.7 5.7-1.5 2.2-1.5 5.1-2.8 7.4-0.4 0.8-0.5 1.7-0.9 2.5 0.6-0.3 1.1-0.4 1.7-0.6 2.6-2.3 5.3-4.4 7.9-6.7 0.6-0.8 0.7-1.9 0.6-2.9-0.2-2.3 0.5-4.5 0.1-6.8-0.3-2.1-0.1-4.2 0-6.3-1 1.2-2.4 2-2.9 3.6"/>
	<path class="st2" d="m294.9 329.9c0 1.1-0.1 2.2-0.1 3.3 0.3 1.3 1 2.4 1.2 3.7 0.2 1.6 1.6 2.8 2.1 4.3 0.4 1.1 1.3 2.1 1.6 3.2 0.5 2.3 2.3 4.1 3 6.4 0.3 1 0.9 1.8 1.3 2.8 0.2-0.6 0.6-1.3 0.8-1.9 0.2-3.3 0.5-6.6 0.8-10 0-1.1-0.9-2-1.7-2.7-1.7-1.5-2.8-3.4-4.6-4.7-1.6-1.2-2.9-2.9-4.4-4.4"/>
	<path class="st2" d="m258.1 337.3c0 1.1-0.2 2.3-0.4 3.4 0.3 2.9 0.9 5.8 0.5 8.6 0 2 0.7 4 0.5 6.1-0.1 0.9 0.1 1.9 0.2 2.8 0.4-0.5 1-0.9 1.5-1.5 1.3-2.8 2.8-5.5 4.2-8.2 0.8-1.1 0.4-2.6-0.1-3.7-1-1.9-1.2-4.1-2.3-5.9-1.1-1.9-1.8-4-2.6-6.1-0.6 1.5-1.6 2.9-1.5 4.5"/>


	<path class="st3" d="m264.1 124.6c-0.3 2.2-1.2 4.2-1.3 6.4-0.8 4.2-1.3 8.5-2 12.8-0.3 2.5-1 5-0.8 7.6 1.4-0.2 2.8-0.5 4.1-0.7 0.5-1.6 1-3.2 1.7-4.8 1.5-2.9 2.6-6 4.1-8.9-0.6-1.4-1-2.8-1.9-4.1-0.6-0.7-0.4-1.7-0.9-2.5-0.9-1.8-2.1-3.7-3-5.8"/>
	<path class="st3" d="m307.6 134.3c-3.8 5.9-7.3 12-10.9 18-0.4 0.7-0.7 1.5-1 2.3 1.4 0.3 2.7 0.6 4.1 0.9 1.4-1.6 2.6-3.2 4.3-4.5 2.1-1.9 4.1-4 6.3-5.8 0-1.7 0.1-3.4-0.2-5.1 0.6-2.8-0.5-5.7-0.6-8.5-0.6 0.9-1.3 1.8-2 2.7"/>
	<path class="st3" d="m219.5 135.9c0.2 0.9 0.4 1.8 0.4 2.7 0.1 2.1 1.1 4.1 1.4 6.2 1.2 5 2.6 10 3.8 15 0.2 0.8 0.6 1.6 1 2.3 1.2-0.7 2.3-1.5 3.5-2.2-0.1-2.1-0.4-4.3-0.1-6.4 0.1-2.8 0.1-5.7 0.3-8.5-1.1-1-2.1-2.2-3.4-3.1-0.8-0.5-1-1.5-1.8-2-1.7-1.3-3.5-2.6-5.1-4"/>
	<path class="st3" d="m345.8 157.1c-5 3.6-9.9 7.3-14.9 11-1.3 0.9-2.5 1.9-3.6 3.1 1.1 0.8 2.2 1.6 3.3 2.3 1.5-0.3 2.7-1.4 4.1-1.8 3.3-1.1 6.5-2.5 9.8-3.6 0.6-1.5 1.3-3 1.6-4.6 1.7-2.5 1.8-5.6 2.8-8.3-0.9 0.8-2 1.3-3.1 1.9"/>
	<path class="st3" d="m182.5 163.2c1.3 1.7 2.1 3.8 3.6 5.4 3.4 4.9 7.1 9.5 10.5 14.3 0.6 0.8 1.3 1.4 2 2.1 0.8-1.1 1.6-2.3 2.4-3.4-0.8-1.6-1.7-3.2-2.3-4.9-0.7-2.4-1.9-4.7-2.6-7.2-0.2-0.6-0.4-1.3-0.8-1.8-1.4-0.7-2.9-1.3-4.5-1.6-2.4-1.7-5.5-1.8-8.3-2.9"/>
	<path class="st3" d="m369.7 193.4c-4.1 0.8-8 2-12.1 2.9-2.5 0.8-5.1 1-7.4 2.2 0.7 1.2 1.5 2.3 2.2 3.5 2.2-0.1 4.5-0.4 6.7-0.1 2.7 0 5.4 0.2 8.2 0.2 1.3-1 2.4-2.2 3.3-3.5 0.5-0.6 1.3-0.9 1.8-1.5 1.3-1.8 2.6-3.5 4-5.1-2.2 0.6-4.5 0.6-6.7 1.4"/>
	<path class="st3" d="m159 202.7c1.5 0.9 2.7 2.2 4.3 3 1.3 0.7 2.5 1.5 3.7 2.3 4.2 2.5 8.5 5 12.7 7.6 0.8 0.4 1.6 0.7 2.4 1 0.3-1.4 0.6-2.7 0.9-4.1-1.2-1.1-2.6-2.1-3.7-3.3-2.1-2.6-4.6-4.7-6.7-7.3-1.6 0-3.3-0.1-4.9 0.3-2.9-0.6-5.8 0.4-8.7 0.5"/>
	<path class="st3" d="m360.9 232.7c0.2 1.4 0.5 2.8 0.7 4.2 2 0.6 4.1 1.2 6 2.3 2.5 1.2 5.2 2.2 7.7 3.5 1.4-0.6 2.8-1 4.1-1.9 0.7-0.6 1.7-0.5 2.5-0.9 1.9-1.1 3.8-2.3 5.9-3.3-2.2-0.2-4.2-1.3-6.4-1.3-4.2-0.8-8.5-1.3-12.8-2-2.7-0.1-5.2-0.8-7.7-0.6"/>
	<path class="st3" d="m160 244.3c-2.9 0.6-5.2 2.8-7.9 3.9 2.2 0.3 4.2 1.2 6.4 1.3 5.8 1 11.6 1.7 17.4 2.6 1 0.2 2 0.1 3 0.1-0.2-1.4-0.5-2.8-0.7-4.2-1.6-0.5-3.3-1-4.8-1.7-2.9-1.5-6-2.6-8.9-4.1-1.6 0.6-3.1 1.2-4.5 2.1"/>
	<path class="st3" d="m357.7 268.3c-0.3 1.4-0.6 2.7-0.9 4.1 1.6 1.3 3.2 2.6 4.5 4.3 1.9 2.1 4 4.1 5.8 6.3 1.7 0 3.4 0.1 5.1-0.2 2.8 0.6 5.7-0.5 8.5-0.6-0.6-0.4-1.3-0.9-1.9-1.4-1.7-1.5-3.9-2.3-5.7-3.7-3-1.8-6-3.5-8.9-5.3-2.2-1.2-4.2-2.8-6.5-3.5"/>
	<path class="st3" d="m172.3 282.5c-1.1 1.1-2.2 2.1-3 3.4-0.5 0.8-1.4 1-2 1.8-1.3 1.7-2.6 3.4-4 5.1 0.9-0.2 1.7-0.4 2.6-0.4 2.2-0.1 4.1-1.1 6.3-1.4 3.4-0.8 6.8-1.7 10.1-2.6 2.4-0.7 4.9-0.9 7.1-2.1-0.7-1.2-1.5-2.3-2.2-3.5-2.2 0.1-4.3 0.4-6.5 0.1-2.8-0.2-5.6-0.2-8.4-0.4"/>
	<path class="st3" d="m338.8 303.5c0.6 1.4 1.4 2.7 1.9 4.1 1 3.2 2.4 6.3 3.5 9.6 1.3 0.5 2.6 1.2 4 1.4 1 0.1 1.7 1 2.7 1.2 2.1 0.5 4.2 1.1 6.2 1.7-0.8-1-1.4-2.2-2-3.3-3.3-4.5-6.5-8.9-9.9-13.4-1.4-1.7-2.4-3.7-4.2-5.1-0.6 1.4-1.8 2.5-2.2 3.8"/>
	<path class="st3" d="m204 313.5c-2.4 0.7-4.6 1.8-6.9 2.6-0.7 0.3-1.4 0.4-2 0.9-1.2 1.9-1.2 4.3-2.5 6.1-0.7 2.2-1.1 4.5-1.9 6.7 1.5-1.2 3.3-1.8 4.8-3.1 1.2-1.1 2.7-1.8 3.9-2.8 2.6-2.1 5.3-3.9 7.9-6 1.7-1.4 3.7-2.4 5.1-4.2-1.1-0.8-2.3-1.6-3.4-2.4-1.7 0.7-3.2 1.7-5 2.2"/>
	<path class="st3" d="m310.1 325c0.1 1.6 0.3 3.2 0.2 4.8-0.3 3.4-0.1 6.8-0.4 10.1 1.1 1 2.1 2.2 3.4 3 0.8 0.5 1 1.4 1.8 2 1.8 1.3 3.5 2.6 5.1 4-0.5-1.8-0.4-3.8-1-5.6-0.5-1.4-0.6-2.8-1-4.2-1.3-4.7-2.4-9.4-3.6-14.1-0.2-0.8-0.6-1.5-0.9-2.3-1.2 0.9-2.4 1.6-3.6 2.3"/>
	<path class="st3" d="m239.9 329.3c-1.2 1.4-2.3 2.8-3.7 4-2.1 1.7-3.9 3.8-6 5.6-0.3 0.3-0.9 0.6-0.9 1.1-0.1 1.6 0 3.2 0.3 4.8-0.6 2.8 0.5 5.7 0.6 8.5 1-1.6 2.4-2.9 3.2-4.6 0.6-1.3 1.5-2.5 2.3-3.7 2.5-4.3 5-8.5 7.6-12.7 0.3-0.7 0.6-1.4 0.9-2.1-1.6-0.3-3-0.6-4.3-0.9"/>
	<path class="st3" d="m275.5 334.1c-0.8 1.4-1 3.1-1.7 4.5-1.6 3-2.7 6.2-4.3 9.2 0.6 1.4 1.1 2.9 2 4.2 0.4 0.7 0.4 1.5 0.7 2.3 1.1 2 2.3 3.9 3.3 5.9 0.3-2.2 1.2-4.2 1.3-6.4 0.8-4.2 1.3-8.5 2-12.8 0.2-2.5 1-5 0.8-7.5-1.3 0.2-2.7 0.4-4.1 0.6"/>


	<path class="st4" d="m287 116c-1.1 1.9-2.6 3.6-3.5 5.6 0.3 2.2 0.6 4.4 1.2 6.5 0.3 2.3 0.4 4.5 0.6 6.8 0.8-1.5 0.9-3.2 1.3-4.8 1-3.2 1.3-6.6 2.2-9.8 0.3-2.7 1.1-5.4 1.3-8.1-1.1 1.3-2.3 2.4-3.1 3.8"/>
	<path class="st4" d="m237.3 119c-0.3 2.1-0.9 4.2-1.1 6.3 1 2.2 2.5 4.2 3.8 6.2 1 2 2.1 3.9 3 5.9 0-1.9-0.6-3.8-0.8-5.7-0.2-2-0.7-3.9-1.1-5.8-0.6-3.9-1.5-7.7-2.5-11.5-0.4 1.6-1.1 3-1.3 4.6"/>
	<path class="st4" d="m334.3 132.1c-1.8 1.4-3.8 2.4-5.5 3.9-0.7 2.3-1.2 4.6-1.6 7-0.7 2-1.3 4-1.9 6 1.3-1.3 2.1-2.9 3.2-4.3 1.2-1.4 2.1-2.9 3.1-4.4 1-1.7 2.4-3.2 3.3-4.9 1.1-1.8 2.4-3.5 3.3-5.4-1.3 0.7-2.8 1.1-3.9 2.1"/>
	<path class="st4" d="m192 135.9c0.2 1.6 0.1 3.3 0.6 4.9 0.6 2.1 0.8 4.3 1.4 6.4 1.9 1.5 3.9 2.9 5.9 4.2 1.6 1.4 3.2 2.7 4.8 4.1-0.7-1.7-1.9-3.1-2.7-4.7-1-1.8-2.3-3.5-3.4-5.2-2-3.4-4.3-6.5-6.6-9.7"/>
	<path class="st4" d="m371.1 165.2c-2 0.5-4.1 0.7-6.1 1.4-1.5 1.9-2.9 3.9-4.2 5.9-1.4 1.6-2.7 3.2-4.1 4.8 1.8-0.8 3.4-2.1 5.2-3 2.6-1.5 4.9-3.4 7.5-4.8 2.2-1.7 4.6-3.2 6.8-4.9-1.6 0.2-3.4 0.1-5.1 0.6"/>
	<path class="st4" d="m157.3 174c0.7 1.3 1.2 2.8 2.2 4 1.4 1.8 2.4 3.8 3.9 5.5 2.3 0.7 4.6 1.2 7 1.6 2 0.7 4 1.3 6 1.9-1.2-1.3-2.9-2.1-4.3-3.3-2.6-2-5.5-3.7-8.2-5.7-2.2-1.2-4.2-2.8-6.6-4"/>
	<path class="st4" d="m386.4 209c-2 1.1-3.9 2.3-5.7 3.7-2 1-3.9 2.1-5.9 2.9 1 0 1.9-0.1 2.9-0.3 2.2-0.5 4.5-0.6 6.7-1.1 2.5-0.6 5-0.8 7.5-1.5 2-0.4 4-0.8 5.9-1.4-3.1-1.3-6.5-1.6-9.7-2.3-0.6-0.1-1.2-0.4-1.7 0"/>
	<path class="st4" d="m139.6 222.3c1.2 0.8 2.1 2 3.3 2.7 1.7 1 3.4 2.2 5 3.3 0.4 0.3 0.9 0.7 1.5 0.5 1.5-0.2 3-0.4 4.4-0.7 2.8-0.7 5.8-0.7 8.7-1.1-1.6-0.4-3.2-0.8-4.8-1.1-3.3-1-6.7-1.3-10.1-2.3-2.6-0.4-5.3-1.1-8-1.3"/>
	<path class="st4" d="m383.7 257.3c-2.1 0.2-4.3 0.4-6.4 0.5 1.4 0.7 3 0.9 4.5 1.3 3.3 1 6.7 1.3 10.1 2.3 2.7 0.3 5.4 1.1 8.1 1.2-1.2-0.8-2-2-3.3-2.7-2-1.2-3.8-2.6-5.8-3.8-2.4 0.2-4.8 0.7-7.2 1.2"/>
	<path class="st4" d="m158.1 270.1c-5.4 1.1-10.9 1.9-16.3 3.5 3.1 1.3 6.5 1.6 9.7 2.3 0.6 0.1 1.2 0.3 1.7-0.1 2-1.1 3.9-2.3 5.7-3.7 1.9-1 3.8-2 5.8-2.9-2.2 0.1-4.4 0.8-6.6 0.9"/>
	<path class="st4" d="m363.3 297.9c1.2 1.3 2.9 2.1 4.3 3.2 1.6 1.3 3.4 2.4 5.1 3.5 3.2 2.3 6.5 4.4 9.9 6.4-0.9-1.3-1.3-2.8-2.2-4-1.4-1.8-2.5-3.8-3.9-5.5-2.3-0.9-4.8-1.3-7.2-1.7-2.1-0.7-4.1-1.3-6-1.9"/>
	<path class="st4" d="m178.7 310c-2.9 1.5-5.4 3.6-8.3 5.2-2.3 1.7-4.8 3.3-7.1 5.1 1.4-0.2 2.9-0.1 4.3-0.4 2-0.5 3.9-0.8 5.9-1.2 0.4-0.1 1-0.1 1.3-0.5 1.4-1.8 2.7-3.6 3.9-5.5 1.4-1.7 2.8-3.4 4.2-5-1.5 0.4-2.8 1.5-4.2 2.3"/>
	<path class="st4" d="m334.9 329.3c0.6 1.5 1.6 2.8 2.4 4.2 1.6 3 3.7 5.6 5.4 8.5 1.7 2.3 3.2 4.6 5 6.9-0.2-1.5-0.1-3.1-0.5-4.6-0.6-2.2-0.8-4.5-1.5-6.7-1.9-1.5-3.9-2.9-5.9-4.2-1.7-1.4-3.3-2.7-4.9-4.1"/>
	<path class="st4" d="m211.5 339.7c-2.1 2.6-3.7 5.5-5.7 8.1-1.4 2.4-3.1 4.6-4.3 7.1 3-1.2 5.5-3.3 8.3-5.1 0.5-0.4 1.1-0.6 1.3-1.2 0.6-2.2 1.1-4.5 1.5-6.8 0.7-2 1.3-4 1.9-6-1.3 1.2-2 2.6-3 3.9"/>
	<path class="st4" d="m296.6 347.4c0 2.3 0.7 4.4 0.9 6.7 1.1 5.5 1.9 10.9 3.5 16.3 1.3-3.1 1.6-6.5 2.3-9.7 0.1-0.6 0.3-1.2-0.1-1.7-1.1-1.9-2.2-3.8-3.5-5.5-1-2-2.1-4-3.1-6.1"/>
	<path class="st4" d="m253.1 354.7c-1 3.2-1.3 6.5-2.2 9.6-0.3 2.8-1.1 5.5-1.3 8.3 0.9-1.2 2.1-2.2 2.9-3.5 1.1-2 2.6-3.7 3.6-5.7-0.2-2.4-0.7-4.7-1.2-7.1-0.2-2.2-0.4-4.3-0.5-6.5-0.7 1.6-0.9 3.3-1.3 4.9"/>


	<path class="st5" d="m269.5 107.7c1.2 3.7 2 7.5 2.9 11.3 0.1 3.7 1.1 7.2 1.5 10.9 1.8-3.5 3.9-6.9 6-10.3-0.1-2.2-0.8-4.3-1.5-6.4-0.6-2.6-1.3-5.2-2.1-7.7-1-2.2-1.6-4.6-2.6-6.9-1.8 2.9-2.9 6.1-4.2 9.1"/>
	<path class="st5" d="m218.3 108.1c-0.5 3.1-0.2 6.3-0.4 9.5-0.1 0.6 0.4 0.9 0.7 1.3 2.1 2.5 4 5.3 5.9 7.9 0.9 1.2 1.2 2.7 2.1 3.9 1.4 2 2.5 4.1 3.8 6.1 0.4-3.9 1-7.9 1.6-11.8-1-2.1-2.6-3.8-4-5.5-1.4-2-3-4-4.6-5.9-1.8-1.7-3.3-3.7-5.1-5.5"/>
	<path class="st5" d="m321.1 117.8c-0.4 3.9-1 7.8-1.8 11.7-1.3 3.4-1.7 7-2.7 10.4 3.1-2.5 6.2-4.8 9.4-7.1 1-2.3 0.9-4.9 1.2-7.4 0.8-4.7 1-9.5 1-14.3-2.5 2-4.7 4.4-7.1 6.7"/>
	<path class="st5" d="m170.8 138.1c0.8 3.2 2.4 6.2 3.4 9.3 3.5 1.8 6.8 3.9 10.1 6 2.6 2.5 5.8 4.3 8.6 6.5-1.1-3.8-2.1-7.6-3-11.4-1.7-1.6-3.8-2.5-5.8-3.6-2.2-1.4-4.4-2.6-6.7-3.8-2.1-0.8-4.3-2.1-6.6-3"/>
	<path class="st5" d="m365.9 146.5c-0.4 0.2-1 0.2-1.2 0.7-1.6 3.2-3.5 6.2-5.4 9.2-0.7 1.2-1.9 2.1-2.7 3.3-1.3 2-2.9 4-4.3 6 3.8-1.1 7.6-2.1 11.4-3 2.2-2.2 3.1-5.3 4.9-7.9 0.9-1.9 2.2-3.7 3-5.7 0.8-1.9 1.9-3.7 2.6-5.7-2.9 0.7-5.5 2.1-8.3 3.1"/>
	<path class="st5" d="m138.5 184c2 2.6 4.5 4.8 6.7 7.2 3.8 0.4 7.6 1 11.4 1.7 1.2 0.3 2.2 0.9 3.4 1.1 2.5 0.5 4.9 1.1 7.4 1.7-2.4-3.1-4.8-6.2-7.1-9.4-2.3-0.9-4.7-0.9-7.1-1.2-5-0.9-9.9-1.1-14.7-1.1"/>
	<path class="st5" d="m384.7 197.6c-3.3 1.4-6.2 3.7-9.3 5.5 3.9 0.5 7.9 0.9 11.7 1.7 2.8-1.4 4.9-3.8 7.5-5.5 1.6-1.4 3.5-2.5 4.9-4.1 1.4-1.5 3.1-2.7 4.6-4.2-3.2-0.5-6.5-0.3-9.8-0.4-3.1 2.3-6.3 4.8-9.6 7"/>
	<path class="st5" d="m138.2 234.6c-2.2 0.7-4.5 1.1-6.6 2.1-1.8 0.8-3.8 1.2-5.6 2 2.9 1.7 6 2.8 9.1 4.1 3.7-1.1 7.5-2.1 11.3-2.8 3.6-0.1 7.2-1 10.8-1.5-3.4-1.9-6.8-3.8-10.1-5.9-3.1-0.1-5.8 1.5-8.9 2"/>
	<path class="st5" d="m392.8 245c-3.6 0-7 1.1-10.5 1.4 3.5 1.8 6.9 3.9 10.3 6 2.6 0 5-1.2 7.6-1.8 4.6-1 9-2.7 13.4-4.4-2.8-1.7-6-2.7-8.9-4.1-3.9 1-7.9 2.2-11.9 2.9"/>
	<path class="st5" d="m147.6 283.7c-2.7 2.1-5.6 4.1-8.1 6.6-1.3 1.2-2.7 2.3-4 3.6 2.6 0.4 5.2 0.2 7.9 0.4 0.9-0.1 2 0.3 2.6-0.5 2.6-2.2 5.4-4.1 8.2-6.1 1.2-0.9 2.7-1.2 3.9-2.1 2-1.4 4.1-2.6 6.1-3.8-3.9-0.4-7.9-1-11.8-1.6-1.7 0.9-3.3 2.2-4.8 3.5"/>
	<path class="st5" d="m372.3 289.2c2.5 3.1 4.8 6.2 7.1 9.4 2.1 0.9 4.4 0.9 6.6 1.1 2.5 0.4 5 0.7 7.6 1 2.5-0.1 5 0.3 7.6 0.2-2-2.6-4.5-4.7-6.7-7.2-2.4-0.1-4.8-0.5-7.1-0.9-2.2-0.4-4.6-0.6-6.7-1.5-2.7-0.8-5.6-1.4-8.4-2.1"/>
	<path class="st5" d="m176 322.2c-2.2 2.3-3.1 5.3-4.9 7.9-0.9 1.9-2.2 3.6-3 5.6-0.8 1.9-1.9 3.7-2.6 5.7 2.9-0.7 5.5-2.1 8.3-3.1 0.5-0.2 1.1-0.3 1.3-0.9 1.6-3.1 3.5-6 5.3-9 0.7-1.2 1.9-2.1 2.7-3.3 1.4-2 2.9-4 4.3-6-3.8 1.2-7.6 2.2-11.4 3.1"/>
	<path class="st5" d="m346.6 324.9c1.1 3.8 2.1 7.6 3 11.4 1.6 1.6 3.8 2.6 5.8 3.6 2.2 1.4 4.4 2.6 6.7 3.8 2.3 0.9 4.5 2.2 6.8 3.1-0.9-3.2-2.3-6.3-3.5-9.4-3.5-1.8-6.8-3.9-10.1-6-2.7-2.5-5.8-4.3-8.7-6.5"/>
	<path class="st5" d="m213.7 352c-0.9 2.2-0.9 4.5-1.1 6.8-0.9 4.9-1.1 9.9-1.2 14.9 2.6-2 4.8-4.5 7.2-6.7 0.5-3.9 1-7.9 1.8-11.8 1.3-3.3 1.7-6.9 2.7-10.4-3.1 2.6-6.2 5-9.4 7.2"/>
	<path class="st5" d="m309.2 348c-0.4 3.9-1 7.8-1.6 11.7 1 2.1 2.5 3.8 4 5.5 1.4 2 3 4 4.6 5.9 1.8 1.7 3.4 3.7 5.1 5.5 0.5-2.7 0.2-5.5 0.4-8.3-0.1-0.7 0.2-1.5-0.3-2-2.4-2.9-4.6-6-6.7-9.1-1.5-3.2-3.7-6.1-5.5-9.2"/>
	<path class="st5" d="m260 365.1c-0.2 3.1 1.5 5.9 2 8.9 0.7 2.2 1.1 4.5 2.1 6.6 0.8 1.8 1.2 3.8 2 5.6 1.6-2.6 2.5-5.6 3.9-8.3 0.6-1.1-0.3-2.3-0.5-3.4-0.9-3.8-2.2-7.7-2.3-11.7-0.5-2.6-0.9-5.2-1.3-7.8-1.9 3.4-3.9 6.8-5.9 10.1"/>


	<path class="st6" d="m265.7 119.1c0.9 2.3 2 4.5 3.4 6.6-0.3-3.9-0.6-7.9-1.9-11.7-0.6 1.6-1.1 3.3-1.5 5.1"/>
	<path class="st6" d="m313.2 127c0.1 2.4 0.2 4.9 0.6 7.3 1.3-3.8 2.4-7.6 2.8-11.6-1.2 1.3-2.4 2.7-3.4 4.3"/>
	<path class="st6" d="m218.2 124.6c0.2 1.9 0.3 3.8 0.7 5.6 1.8 1.6 3.5 3.3 5.5 4.5-1.8-3.5-3.7-7-6.2-10.1"/>
	<path class="st6" d="m354.1 152.3c-0.9 2.3-1.7 4.5-2.2 6.9 2.6-3 5.1-6.1 7-9.6-1.7 0.9-3.3 1.7-4.8 2.7"/>
	<path class="st6" d="m177 153.4c0.8 1.6 1.6 3.1 2.5 4.6 0.2 0.4 0.8 0.5 1.2 0.7 2 0.6 3.9 1.4 5.9 1.8-2.9-2.7-6-5.3-9.6-7.1"/>
	<path class="st6" d="m382.1 191.5c-1.6 1.8-3.3 3.5-4.5 5.5 3.5-1.8 7-3.7 10.1-6.2-1.9 0.1-3.8 0.3-5.6 0.7"/>
	<path class="st6" d="m150 195.6c1.4 1.2 2.8 2.4 4.3 3.4 2.4-0.1 4.9-0.2 7.3-0.6-3.7-1.2-7.6-2.4-11.6-2.8"/>
	<path class="st6" d="m392.2 238.7c-1.9 0.9-3.8 1.8-5.5 2.9 3.9-0.3 7.9-0.7 11.7-1.9-1.6-0.6-3.2-1-4.9-1.4-0.5-0.1-0.9 0.3-1.3 0.4"/>
	<path class="st6" d="m141.2 245.1c1.7 0.5 3.5 1.1 5.3 1.5 2.3-0.9 4.5-2.1 6.6-3.4-4.1 0.3-8.1 0.7-11.9 1.9"/>
	<path class="st6" d="m378 286.4c3.8 1.2 7.6 2.4 11.6 2.8-1.4-1.2-2.9-2.3-4.3-3.5-2.4 0.2-4.9 0.3-7.3 0.7"/>
	<path class="st6" d="m152 294.1c1.9-0.2 3.8-0.2 5.6-0.7 1.6-1.8 3.3-3.5 4.6-5.5-3.6 1.8-7.2 3.7-10.2 6.2"/>
	<path class="st6" d="m353 324.5c3 2.6 6.1 5.1 9.6 7-0.8-1.6-1.7-3.3-2.7-4.8-2.3-0.9-4.6-1.7-6.9-2.2"/>
	<path class="st6" d="m180.8 335.2c1.6-0.8 3.3-1.7 4.8-2.7 0.9-2.3 1.7-4.6 2.2-6.9-2.6 3-5.2 6.1-7 9.6"/>
	<path class="st6" d="m315.3 350.1c1.8 3.5 3.7 7.1 6.2 10.2-0.1-1.5-0.3-2.9-0.5-4.4-0.1-0.5 0-1.1-0.5-1.4-1.7-1.5-3.3-3.2-5.2-4.4"/>
	<path class="st6" d="m223 362.3c1.2-1.5 2.4-2.9 3.5-4.4-0.1-2.4-0.2-4.9-0.6-7.3-1.3 3.8-2.5 7.7-2.9 11.7"/>
	<path class="st6" d="m270.6 359.2c0.4 4 0.7 8 1.9 11.9 0.4-1.3 0.8-2.7 1.2-4 0.1-0.6 0.5-1.3 0.1-1.8-1.1-2.1-2-4.2-3.2-6.1"/>


	<path class="st7" d="m243 97.8c-1.1 2.7-1.9 5.6-2.5 8.5 0.8 3.8 2 7.6 2.9 11.4-0.3 1.8 0.6 3.5 1 5.2 0.1-2.2 0.2-4.3-0.2-6.5-0.2-0.7-0.1-1.5 0.1-2.2 0.5-2.8-0.3-5.7 0.6-8.5 0.6-1.6 0.1-3.3 0.8-4.8 0.3-1.1 0.9-2.3 0.8-3.4-0.8-0.9-1.6-2-2.2-3.1-0.8 1-1 2.2-1.3 3.4"/>
	<path class="st7" d="m300.4 98.6c-1.9 1.8-3.5 4-5.1 6.1-0.8 0.9-0.7 2.2-0.9 3.3-0.5 3-0.7 6.1-1.3 9.1-0.9 1.6-0.7 3.6-1 5.3 0.8-2 1.8-4 2.3-6.2 0.2-0.9 0.7-1.8 1.2-2.6 1.1-1.8 1.5-3.9 2.5-5.7 0.6-1.1 1.6-2 2.1-3.1 0.7-2 2.4-3.3 3.6-5-0.5-1.3-0.8-2.6-0.9-3.9-1.1 0.6-1.8 1.7-2.5 2.7"/>
	<path class="st7" d="m189.5 115.4c-0.3 1.2 0 2.4 0.1 3.6 0 2.4 0.3 4.9 0.6 7.3 0.1 0.7 0.1 1.4 0.5 2 2.2 3 4.6 5.9 6.8 9 0.4 1.8 1.9 2.9 2.9 4.3-0.8-2.4-1.9-4.6-3.1-6.8-0.5-2.2-1.4-4.2-2.3-6.3-0.8-1.6-0.5-3.5-1.2-5.1-0.8-1.8-0.6-3.9-0.9-5.8-1.2-0.6-2.3-1.3-3.4-2.2"/>
	<path class="st7" d="m352 121.7c-2.3 1.1-4.6 2.3-6.7 3.8-2.1 3.3-3.9 6.8-6 10.1-1.4 1-1.8 2.7-2.7 4.1 1.1-1 2.1-2 3.1-3 0.9-1 1.5-2.2 2.7-2.9 2.4-1.7 4-4.4 6.7-5.7 1.4-0.6 2.2-2.1 3.7-2.7 1.1-0.5 2.1-1.1 3.1-1.7 0.2-1.3 0.3-2.7 0.7-4-1.8 0.3-3.1 1.5-4.6 2"/>
	<path class="st7" d="m147 155.8c0.3 1.5 1.4 2.7 1.9 4.2 1 2.2 2.2 4.3 3.4 6.4 0.5 1 1.7 1.3 2.6 1.9 2.7 1.6 5.4 3.1 8 4.7 1 1.4 2.7 1.9 4.1 2.8-1.5-1.6-3-3.2-4.7-4.4-0.9-0.7-1.5-1.8-2.3-2.6-1.6-1.8-3.6-3.2-4.7-5.4-0.6-1.4-2.1-2.2-2.7-3.7-0.5-1.1-1.1-2.1-1.7-3.2-1.3 0-2.6-0.3-3.9-0.7"/>
	<path class="st7" d="m385 163.1c-1 0.1-1.7 1-2.5 1.5l-7.5 5.7c-1.7 0.4-2.9 1.9-4.3 2.9 2.4-0.8 4.6-1.9 6.7-3.1 2.2-0.5 4.3-1.4 6.3-2.3 1.6-0.8 3.5-0.5 5.1-1.2 1.8-0.8 3.9-0.6 5.9-0.9 0.5-1.3 1.3-2.4 2.2-3.5-1.1-0.2-2.2-0.1-3.3 0.1-2.9-0.1-5.7 0.4-8.6 0.8"/>
	<path class="st7" d="m123.2 209.4c0.8 1.3 2.3 1.9 3.3 3 1.5 1.5 3.3 2.8 4.9 4.1 0.6 0.4 1.1 1 1.9 1.1 3.7 0.6 7.4 1 11.1 1.5 1.6 1 3.5 0.7 5.3 1.1-2.1-0.8-4.1-1.8-6.3-2.3-0.8-0.2-1.6-0.6-2.3-1.1-1.9-1.2-4-1.6-5.9-2.7-1.1-0.6-2-1.6-3.1-2.1-2-0.7-3.3-2.4-5-3.6-1.2 0.6-2.5 0.8-3.9 1"/>
	<path class="st7" d="m394.6 216c-1.8-0.3-3.4 0.7-5.2 1 2.1 0.1 4.3 0.2 6.4-0.2 1.2-0.3 2.5 0.2 3.7 0.2 2.3 0.1 4.7-0.3 7 0.4 0.9 0.3 1.9 0.4 2.8 0.4 1.9 0 3.6 1.3 5.5 1.2 0.9-0.9 2-1.6 3.1-2.2-1-0.7-2.3-1-3.5-1.3-2.3-1-4.7-1.6-7.1-2.2-0.6-0.1-1.1-0.4-1.7-0.2-3.7 0.9-7.4 1.9-11 2.9"/>
	<path class="st7" d="m389.8 264.7c2 0.8 4 1.8 6.2 2.3 1.4 0.3 2.5 1.3 3.8 1.8 2 0.9 4.3 1.5 6 3 1.2 1.1 2.8 1.3 4 2.4 0.8 0.8 1.7 1.5 2.6 2.1 1.3-0.2 2.7-0.8 4.1-0.8-0.7-1.1-1.8-1.7-2.8-2.5-2.1-2.1-4.4-3.9-6.8-5.6-3.9-0.7-7.8-1-11.7-1.7-1.7-0.9-3.6-0.7-5.4-1"/>
	<path class="st7" d="m121.8 268.1c1.1 0.6 2.3 0.9 3.4 1.2 2.5 1.1 5.2 1.7 7.8 2.4 1.1 0.4 2.2-0.3 3.2-0.5 3-0.7 6-1.7 9.1-2.4 1.7 0.2 3.3-0.7 5-1-2.5-0.2-5 0-7.5 0.3-3.4-0.8-6.9 0.2-10.3-0.9-1.2-0.4-2.5 0-3.7-0.5-1.2-0.4-2.4-0.9-3.7-1.1-1.1 0.9-2.1 1.8-3.3 2.5"/>
	<path class="st7" d="m372.5 309.1c1 1.1 2 2.1 3.1 3.1 1 0.9 2.2 1.5 2.9 2.7 1.6 2.4 4.4 4 5.7 6.7 0.7 1.5 2.2 2.4 2.8 3.9 0.6 1 0.9 2.3 1.8 3 1.3 0.1 2.5 0.3 3.8 0.6-0.2-1.1-0.8-2-1.4-2.9-1.3-2.9-2.7-5.7-4.5-8.3-3.3-2.1-6.8-3.9-10.1-6-1-1.5-2.7-1.9-4.1-2.8"/>
	<path class="st7" d="m162 314.9c-3.2 0.6-5.9 2.7-9.2 3-1.5 0.1-2.7 1-4.2 1.1-1.3 0.1-2.5 0.2-3.8 0.3-0.5 1.3-1.3 2.4-2.1 3.4 1.2 0.3 2.4 0 3.6-0.1 3 0 5.9-0.4 8.8-0.9 3.2-2.2 6.2-4.8 9.4-7.1 1.7-0.4 2.9-1.9 4.3-2.9-2.3 0.8-4.5 2.1-6.8 3.2"/>
	<path class="st7" d="m339.1 343.2c0.8 2.5 2 4.7 3.2 7 0.6 3.2 2.7 5.9 2.9 9.1 0.1 1.5 1 2.7 1.1 4.2 0.1 1.3 0.2 2.5 0.3 3.8 1.3 0.5 2.4 1.3 3.5 2.1 0.4-1.5-0.2-2.9-0.2-4.4 0.1-2.2-0.4-4.3-0.6-6.4-0.1-0.7-0.1-1.5-0.6-2.1-2.2-3-4.6-5.9-6.8-9-0.3-1.7-1.8-2.8-2.8-4.3"/>
	<path class="st7" d="m198.2 350.4c-1.9 1.3-3.5 3-5.1 4.7-1.2 1.3-2.9 1.8-4.1 3-1.4 1.5-3.5 2-5.1 3.2 0 1.3-0.3 2.7-0.6 3.9 1.5-0.2 2.6-1.3 3.9-1.8 2.1-0.9 4.1-2.1 6.1-3.3 0.4-0.3 1-0.5 1.3-1 2-3.3 3.8-6.7 5.8-9.9 1.4-1 1.9-2.7 2.7-4.1-1.8 1.6-3.4 3.4-4.9 5.3"/>
	<path class="st7" d="m295.3 362c-0.1 1.4-0.1 2.8 0 4.2 0 1.4 0.6 2.8 0.2 4.3-0.7 3 0.3 6.1-0.7 9-0.5 1.4 0 2.9-0.6 4.3-0.4 1.2-0.9 2.4-0.9 3.6 0.9 1 1.6 2 2.2 3.1 1-1.3 1-3.1 1.7-4.5 0.9-2.4 1.6-4.9 2.1-7.4-0.8-3.9-2.1-7.7-3-11.6 0.2-1.8-0.7-3.4-1-5"/>
	<path class="st7" d="m244.9 369.8c-1.2 1.9-2 4.1-2.9 6.1-0.6 1.6-2.1 2.8-2.7 4.4-0.7 1.9-2.4 3.1-3.5 4.8 0.6 1.2 0.8 2.6 0.9 3.9 1.4-1 2.2-2.6 3.5-3.7 1.7-1.8 3.2-3.8 4.6-5.9 0.8-3.9 1-7.9 1.8-11.9 0.9-1.5 0.6-3.3 0.9-4.9-1 2.3-1.9 4.7-2.6 7.2"/>


	<path class="st8" d="m280.7 88.7c-2.2 1.6-4 3.7-5.2 6.1 0.2 0.9 0.7 1.7 1.1 2.5 1.3 2.3 1.9 5 3.1 7.4 1.5 3.3 2 6.9 3.1 10.4 2.3-3.2 4.3-6.6 6.7-9.6 0.5-0.8 1.4-1.5 1.4-2.5 0-2.6 0.1-5.3 0-7.9-0.8-2-1.7-4-3.1-5.7-1.7-2.1-4.9-1.9-7.1-0.7"/>
	<path class="st8" d="m221.1 96.2c-1.5 2.3-2.3 5-2.6 7.8 0.6 0.6 1.3 1.2 2 1.7 2.1 1.7 3.8 4 5.8 5.8 2.6 2.4 4.4 5.6 6.7 8.3 0.6-1.9 0.8-3.9 1.3-5.9 0.5-2.6 1.2-5.1 1.8-7.6-0.8-2.5-1.8-4.9-2.9-7.3-0.4-1-1.3-1.7-2.1-2.4-1.2-1-2.5-2.2-4-2.7-2.2-0.7-4.6 0.6-6 2.3"/>
	<path class="st8" d="m331.4 108.3c0.1 2.1 0.6 4.1 0.3 6.2-0.3 2.6 0.1 5.3-0.3 7.9 0 2.4-0.9 4.8-0.9 7.3 3.6-2.3 7.1-4.8 10.9-6.9 1.1-0.4 1.4-1.7 1.9-2.6 0.8-2 1.8-3.9 2.4-6 0-2.2-0.1-4.4-0.8-6.5-1-2.4-4-3.4-6.4-3.1-2.6 0.6-5 2-7.1 3.7"/>
	<path class="st8" d="m168.8 125.9c-0.5 2.7-0.3 5.6 0.7 8.2 1 0.5 2.1 0.7 3.2 1.1 2.3 0.8 4.5 2.1 6.8 2.9 3.4 1.3 6.3 3.4 9.5 5.1-0.7-4.5-1.8-9-2.3-13.6-1.9-2.3-4-4.4-6.2-6.3-2-0.9-4.1-1.6-6.2-1.8-2.7-0.1-4.7 2.1-5.5 4.4"/>
	<path class="st8" d="m378.3 142c-0.5 0.6-0.6 1.4-0.9 2.1-0.7 2.8-2.3 5.3-3.3 8-1.3 3.4-3.4 6.2-5 9.4 4.5-0.7 9-1.8 13.5-2.3 2.3-1.9 4.4-3.9 6.3-6.2 0.9-2 1.6-4.1 1.9-6.3 0-2.5-2.1-4.5-4.3-5.3-2.7-0.6-5.6-0.2-8.2 0.6"/>
	<path class="st8" d="m135.3 167.2c-2.6 0.8-3.7 4-3.4 6.5 0.6 2.6 2 5 3.6 7.1 2 0 4-0.5 5.9-0.3 2.7 0.2 5.5-0.1 8.2 0.3 2.5 0.1 4.9 0.8 7.4 0.9-1.9-3.3-4.3-6.2-6.1-9.6-0.6-0.9-1-2.3-2.2-2.7-2.4-1.1-4.8-2.2-7.3-3-1.9 0.1-4.1 0.2-6.1 0.8"/>
	<path class="st8" d="m408.3 191.1c-0.7 0.7-1.3 1.5-1.9 2.2-1.7 2.1-3.9 3.6-5.7 5.6-2.4 2.6-5.5 4.4-8.2 6.7 2.9 0.8 6 1.2 8.9 1.9 1.6 0.3 3.2 1 4.8 1.1 2.4-0.7 4.7-1.8 7-2.8 1-0.4 1.7-1.3 2.4-2.1 1-1.2 2.2-2.5 2.7-4 0.6-2.2-0.6-4.5-2.1-6-2.3-1.5-5.1-2.3-7.9-2.6"/>
	<path class="st8" d="m116.8 224.4c-2.1 1.7-1.9 4.9-0.7 7.1 1.5 2.2 3.7 4 6.1 5.2 0.7 0 1.4-0.5 2-0.8 2.6-1.5 5.5-2.2 8.2-3.4 3.2-1.4 6.7-1.9 10.1-3-2.2-1.7-4.6-3-6.8-4.7-1.6-1-3-2.4-4.6-3.3-2.8-0.3-5.7-0.1-8.5-0.1-2.1 0.7-4.1 1.7-5.8 3"/>
	<path class="st8" d="m413.2 250.1c-1.9 0.8-3.8 1.3-5.7 2.2-3.3 1.5-6.9 2-10.3 3.1 1.9 1.6 4.1 2.8 6.1 4.2 1.8 1.2 3.4 2.6 5.3 3.8 2.1 0.2 4.2 0.1 6.3 0.1 1-0.1 2.2 0.2 3.1-0.4 1.9-0.9 3.9-1.7 5.4-3.3 1.4-1.8 1.2-4.4 0.3-6.4-1.5-2.4-3.8-4.1-6.3-5.5-1.4 0.7-2.7 1.6-4.2 2.2"/>
	<path class="st8" d="m132.8 276.4c-2.4 0.9-4.8 1.8-7.1 3-1.6 1.4-3 3.1-4.1 4.9-1.3 2.4 0.1 5.3 2 6.9 2.3 1.5 5.1 2.3 7.8 2.6 2.5-3.3 5.7-5.8 8.5-8.8 2.3-2.1 4.9-3.8 7.3-5.8-3.6-0.9-7.2-1.4-10.8-2.4-1.2-0.2-2.4-0.9-3.6-0.4"/>
	<path class="st8" d="m382.5 303.2c1.3 2.3 3 4.4 4.4 6.7 1.1 1.7 2 3.5 3.1 5.1 1.9 1 4 1.8 6 2.7 0.9 0.3 1.8 0.8 2.8 0.7 2-0.1 4.1-0.1 6.1-0.9 2.2-1.1 3-3.7 2.9-6-0.5-2.8-2-5.3-3.8-7.5-1 0-1.9 0.2-2.9 0.3-2.4 0.3-4.7-0.2-7.1-0.1-1.8 0.1-3.6-0.1-5.4-0.2-2.1-0.2-4-0.8-6.1-0.8"/>
	<path class="st8" d="m158 325.5c-1.3 0-2.1 1.2-3 1.9-1.4 1.4-3 2.8-4.3 4.4-0.9 2-1.6 4.1-1.8 6.2-0.1 2.6 2.2 4.6 4.5 5.4 2.7 0.5 5.4 0.3 8-0.6 0.6-0.5 0.6-1.4 0.9-2.1 0.7-2.8 2.3-5.3 3.3-8 1.3-3.3 3.4-6.2 5-9.4-4.2 0.6-8.4 1.8-12.6 2.2"/>
	<path class="st8" d="m350.8 341.7c0.1 2.1 0.7 4.1 1.1 6.1 0.5 2.5 0.8 4.9 1.2 7.4 1 1.6 2.5 2.8 3.8 4.2 1 0.9 1.9 2.2 3.3 2.6 1.8 0.6 3.6 1.3 5.6 1.4 2.5-0.2 4.4-2.3 5.1-4.5 0.5-2.7 0.3-5.5-0.6-8-0.6-0.5-1.4-0.6-2.1-0.8-1.7-0.4-3.3-1.2-4.8-1.9-2-1-4.3-1.6-6.2-2.8-2.3-1.1-4.2-2.7-6.4-3.7"/>
	<path class="st8" d="m204.5 358.2c-2.1 1.4-4.3 2.7-6.5 4-0.9 0.4-1.1 1.4-1.5 2.2-0.9 2.1-1.8 4.1-2.5 6.2 0 2.1 0.1 4.2 0.7 6.3 0.8 2.5 3.7 3.6 6.2 3.4 2.8-0.5 5.3-1.9 7.5-3.7 0-2-0.5-3.9-0.3-5.9 0.2-2.6-0.1-5.3 0.2-7.9 0.1-2.6 0.8-5.1 1-7.6-1.8 0.8-3.3 2-4.8 3"/>
	<path class="st8" d="m306.6 365.1c-0.9 3.1-1.2 6.4-2.1 9.5-0.3 1.4-0.9 2.8-0.9 4.3 0.7 2.4 1.8 4.7 2.7 7 0.4 1.1 1.4 1.8 2.3 2.6 1.2 1 2.3 2 3.8 2.6 2.3 0.6 4.7-0.6 6.2-2.3 1.5-2.3 2.3-5.1 2.6-7.8-1.1-1-2.4-1.9-3.4-3-1.5-1.5-2.8-3.2-4.4-4.6-2.7-2.6-4.5-5.7-6.8-8.3"/>
	<path class="st8" d="m250.7 378.6c-0.7 1.2-2.1 2.1-2 3.7-0.1 2.3 0 4.5 0 6.8 0 1.2 0.8 2.3 1.2 3.4 0.9 1.6 1.8 3.6 3.6 4.3 2.4 0.9 5.4 0.1 7.1-1.9 1.5-1.3 2.7-3 3.6-4.7-0.2-0.8-0.6-1.6-1-2.3-1.4-2.4-2-5.2-3.2-7.7-1.5-3.3-2-6.9-3.1-10.3-2.2 2.7-3.9 5.9-6.2 8.7"/>


	<path class="st9" d="m250.4 97c1.6 2.1 3.3 4.1 4.8 6.3 0.8 1.1 1.8 2 2.4 3.3 0.9 1.7 2.5 2.9 3.3 4.6 0.5 1.2 1.3 2.2 2.1 3.3 0.9-2.3 1.3-4.8 2.5-7-0.1-1.4-0.9-2.7-1.4-4-1.2-2.6-1.5-5.6-3.2-8.1-1.1-2.9-1.9-5.9-3.5-8.6-3.4 2.5-5.9 6.1-7 10.2"/>
	<path class="st9" d="m307.6 100.6c1 3.4 1.8 6.9 2.8 10.4 0.1 2.5 1.4 4.8 1.5 7.3 0.1 1.1 0.4 2.1 0.6 3.2 1.7-1.8 3.1-3.8 5-5.4 0.6-1.2 0.3-2.8 0.3-4.1-0.1-2.9 0.8-5.8 0.2-8.7 0.1-3.1 0.6-6.2 0.1-9.3-4.2 0.9-8 3.3-10.5 6.6"/>
	<path class="st9" d="m196.4 115.5c2.4 1.5 4.9 2.8 7.4 4.3 1.8 0.8 3.1 2.2 4.8 3 2.2 1 3.8 2.8 5.9 4-0.1-2.5-0.5-4.9-0.4-7.4-0.5-1.4-1.9-2.2-2.9-3.3-2-1.8-3.3-4.3-5.5-5.8-1-0.7-1.7-1.8-2.6-2.7-1.4-1.5-2.8-3-4.4-4.3-2 3.7-3.2 8.1-2.3 12.2"/>
	<path class="st9" d="m359 125.8c-0.4 3.6-1 7.3-1.4 10.9-0.7 2-0.6 4-1.1 6-0.5 1.4-0.8 2.8-1 4.3 2.3-1.1 4.5-2.4 6.9-3.3 0.9-1.3 1.3-2.9 2-4.4 0.8-1.8 1.9-3.5 2.6-5.3 0.8-3.7 3.4-6.8 4.1-10.5-4.2-0.5-8.5 0.3-12.1 2.3"/>
	<path class="st9" d="m150.9 141.2c-0.5 4.2 0.2 8.4 2.3 12.1 2.4 0.3 4.8 0.6 7.2 1 1.5 0.3 3.1 0.2 4.5 0.7 1.9 0.6 3.9 0.4 5.8 1 1.2 0.4 2.5 0.6 3.7 0.9-1-2.3-2.4-4.4-3.2-6.7-0.8-0.9-2.1-1.2-3.2-1.7-3-1-5.5-3.1-8.7-3.7-2.7-1.4-5.4-3-8.4-3.6"/>
	<path class="st9" d="m393.8 174c-1.1 1.7-1.8 3.6-3.1 5.1-1.2 1.4-1.7 3.2-2.9 4.6-0.9 1-1.6 2.2-2.4 3.3 2.6-0.2 5.1-0.5 7.7-0.4 1.8-1.3 3-3.1 4.7-4.4s3.3-2.7 4.5-4.5c2.2-2 4.6-3.9 6.5-6.4-3.5-2.1-7.8-3.1-11.9-2.6-1.2 1.7-2 3.7-3.1 5.3"/>
	<path class="st9" d="m121.2 194.3c1.1 4.1 3.4 7.8 6.8 10.4 3.3-1 6.6-1.7 9.9-2.7 0.6-0.2 1.2-0.2 1.8-0.3 1.8-0.2 3.4-1.1 5.2-1.2 1.3-0.1 2.7-0.4 4-0.7-1.5-1.6-3.5-2.7-4.9-4.4-0.8-1.2-2.3-0.8-3.5-0.8-3.4 0.3-6.8-0.8-10.2-0.1-3-0.3-6.1-0.6-9.1-0.2"/>
	<path class="st9" d="m407.1 229.4c-1.1 0.8-2.4 1.3-3.4 2.3-1.7 1.6-4 2.4-5.9 3.9 1.7 0.8 3.6 1.1 5.3 1.8 0.9 0.3 1.8 1.1 2.7 0.6 2.5-1 4.9-2.1 7.5-2.7 1.9-0.4 3.3-1.8 5.1-2.2 2.4-0.7 4.8-1.6 7-2.9-2.5-3.4-6.1-5.9-10.2-7-2.6 2-5.4 4-8.1 6.2"/>
	<path class="st9" d="m130.9 248.2c-2.6 1.2-5.7 1.5-8.1 3.2-2.9 1.1-5.9 1.9-8.5 3.5 2.5 3.4 6.1 5.9 10.2 7l5.4-4.2c1.4-1 2.6-2.2 4.1-3 1.7-0.9 2.9-2.5 4.6-3.3 1.2-0.5 2.2-1.3 3.2-2-2.3-0.9-4.8-1.4-7-2.6-1.4 0.1-2.6 0.9-3.9 1.4"/>
	<path class="st9" d="m400.9 283c-2.3 0.1-4.3 1.3-6.6 1.4-1.2 0.1-2.4 0.4-3.6 0.6 1.8 1.7 3.8 3.1 5.4 5 1.1 0.6 2.5 0.3 3.7 0.3 3.1-0.1 6.3 0.8 9.4 0.1 3 0.2 6 0.6 9.1 0.1-1.1-4-3.4-7.9-6.9-10.3-3.4 0.9-7 2-10.5 2.8"/>
	<path class="st9" d="m146.5 298.2c-1.4 0.9-2.3 2.3-3.5 3.4-1.2 1.2-2.6 2.2-3.8 3.3-1 0.9-1.6 2.1-2.6 3-2.1 1.7-4.1 3.5-5.7 5.6 3.6 2.2 7.9 3.2 12.1 2.6 1.8-3.2 3.6-6.3 5.4-9.5 1.7-1.8 2.3-4.3 4.1-6.1 0.7-0.8 1.2-1.7 1.8-2.6-2.7 0-5.2 0.5-7.8 0.3"/>
	<path class="st9" d="m365.3 328.1c0.8 2.1 2.2 3.9 2.9 6.1 0.3 1.3 1.8 1.5 2.8 2 2.5 0.8 4.8 2.3 7.2 3.4 3.7 0.8 6.8 3.4 10.6 4.1 0.5-4.2-0.2-8.5-2.3-12.1-4.6-0.6-9.2-1-13.7-2-2.6-0.1-5-1.2-7.5-1.5"/>
	<path class="st9" d="m177.3 341.1c-0.9 1.1-1.2 2.6-1.8 3.9-0.8 2-2 3.8-2.8 5.8-0.8 3.7-3.4 6.8-4.1 10.5 4.1 0.5 8.4-0.2 12.1-2.3 0.7-4.5 1-9.1 2-13.6 0-2.6 1.1-5 1.5-7.5-2.4 1-4.5 2.4-6.9 3.2"/>
	<path class="st9" d="m325.2 358.1c0.1 2.6 0.5 5.1 0.4 7.6 1.3 1.8 3.2 3.2 4.6 4.9 1.3 1.6 2.6 3.2 4.3 4.3 2 2.2 3.9 4.6 6.4 6.5 2.2-3.6 3.2-7.9 2.6-12.1-2.1-1.2-4.3-2.4-6.4-3.7-1.2-0.8-2.6-1.3-3.7-2.3-1.5-1.3-3.6-1.8-5-3.2-1.1-0.7-2.2-1.3-3.2-2"/>
	<path class="st9" d="m222.6 368.5c-1 0.8-0.6 2.2-0.7 3.3 0.3 3.4-0.8 6.8-0.1 10.2-0.2 3-0.5 6.1-0.1 9.1 4.1-1.1 7.8-3.4 10.4-6.8-1-3.3-1.7-6.6-2.7-9.9-0.2-0.6-0.2-1.2-0.3-1.8-0.2-1.8-1.1-3.4-1.2-5.2-0.1-1.3-0.4-2.6-0.7-3.9-1.6 1.5-2.8 3.5-4.6 5"/>
	<path class="st9" d="m276.8 370.5c-0.9 2.3-1.4 4.8-2.5 7-0.1 1.2 0.7 2.3 1.1 3.5 1.4 2.8 1.6 6 3.4 8.6 1.1 2.9 1.9 5.9 3.5 8.6 3.4-2.5 5.9-6.1 7-10.2-1.6-2-3.2-4-4.7-6.1-0.8-1.1-1.8-2-2.4-3.2-0.9-1.8-2.6-3.1-3.4-4.9-0.5-1.3-1.3-2.3-2-3.3"/>


	<path class="st1" d="m261.6 86.2c0.6 1.2 0.9 2.6 1.6 3.8 1.1 1.9 1.6 4.1 2.7 6 1 1.7 0.9 3.9 1.8 5.7 1-2.5 2.6-4.6 3.9-6.9-1.2-1.9-2.3-3.8-3.7-5.6-1.6-1.9-4.1-2.5-6.3-3"/>
	<path class="st1" d="m322 94.9c0.1 1.4-0.1 2.8 0 4.2 0.2 2.2-0.1 4.4 0.2 6.5 0.3 2-0.7 3.9-0.5 5.9 1.9-1.9 4.2-3.2 6.2-4.9-0.3-2.2-0.7-4.4-1.3-6.5-0.7-2.3-2.8-3.8-4.6-5.2"/>
	<path class="st1" d="m202.5 101.2c1.1 0.9 1.9 2.1 3 3 1.6 1.3 2.8 2.9 4.4 4.2 1.8 1.2 2.5 3.4 4.1 4.8-0.1-2.6 0.7-5.1 0.9-7.7-0.4-0.6-1.1-1-1.7-1.4-2-1.2-3.9-3-6.3-3.2-1.5-0.1-3 0.1-4.4 0.3"/>
	<path class="st1" d="m372.9 130.1c-0.6 2-1.7 3.8-2.2 5.8s-2.1 3.4-2.8 5.4c2.4-1 5.1-1.3 7.6-2.2 0.5-2.1 1-4.2 1.3-6.3 0.4-2.5-1-4.7-2.3-6.7-0.5 1.5-1.3 2.6-1.6 4"/>
	<path class="st1" d="m153.6 137.8c1.4 0.4 2.6 1.3 4 1.6 2 0.6 3.9 1.7 5.9 2.3 2 0.5 3.3 2.1 5.3 2.7-1.1-2.4-1.3-5.1-2.2-7.6-2.1-0.5-4.2-1-6.3-1.3-2.5-0.3-4.7 1-6.7 2.3"/>
	<path class="st1" d="m408 178.1c-1.3 1.7-3.1 3-4.4 4.6-1.2 1.6-3.3 2.2-4.5 3.8 1.7 0.1 3.4 0.2 5 0.5 0.9 0.1 1.9 0.4 2.8 0.2 1.3-1.7 2.4-3.4 3.5-5.2 1.3-2.2 0.9-4.8 0.5-7.1-0.8 1.3-2 2.1-2.9 3.2"/>
	<path class="st1" d="m127.6 185.6c-2.4 0.6-3.8 2.7-5.2 4.6 1.4-0.1 2.8 0.2 4.2 0 2.1-0.3 4.3 0.1 6.4-0.2 2-0.3 4 0.7 6 0.5-1.9-1.9-3.2-4.2-4.9-6.2-2.2 0.4-4.4 0.8-6.5 1.3"/>
	<path class="st1" d="m422.2 235.8c-1.9 1.1-4 1.6-5.9 2.7-1.7 1-3.9 0.9-5.6 1.8 2.4 1 4.5 2.6 6.9 3.8 1.9-1.2 3.8-2.3 5.5-3.7 1.9-1.5 2.5-3.9 3-6.1-1.3 0.5-2.7 0.8-3.9 1.5"/>
	<path class="st1" d="m116.6 244.5c-1.9 1.5-2.4 3.9-3 6.2 1.2-0.6 2.6-0.9 3.8-1.6 1.8-1 3.9-1.6 5.7-2.6 1.8-1.1 4-1 5.9-1.9-2.5-1-4.5-2.7-6.9-3.8-1.8 1.1-3.7 2.3-5.5 3.7"/>
	<path class="st1" d="m400.7 294.3c1.9 1.9 3.2 4.2 4.9 6.2 2.2-0.3 4.4-0.7 6.5-1.3 2.4-0.6 3.8-2.7 5.2-4.6-1.4 0.1-2.8-0.2-4.3 0-2.2 0.2-4.3-0.1-6.5 0.2-1.9 0.3-3.8-0.7-5.8-0.5"/>
	<path class="st1" d="m131.5 299.1c-1 1.6-2.3 3.1-2.9 5-0.7 1.9-0.2 3.8 0.1 5.7 0.9-1.1 2.2-1.9 3-3 1.3-1.7 3.1-2.9 4.4-4.6 1.2-1.6 3.2-2.3 4.5-3.8-2.3 0-4.6-0.5-6.9-0.9-1.1-0.3-1.6 0.9-2.2 1.6"/>
	<path class="st1" d="m370.9 340.5c1 2.4 1.4 5.1 2.1 7.6 2.1 0.6 4.2 1 6.3 1.3 2.5 0.4 4.8-1 6.8-2.3-1.4-0.4-2.6-1.3-4-1.6-2-0.6-3.8-1.6-5.7-2.2-2.1-0.5-3.5-2.2-5.5-2.8"/>
	<path class="st1" d="m164.2 345.7c-0.6 2.8-1.5 5.6-1.2 8.5 0.4 1.6 1.3 3.1 2.2 4.5 0.4-1.4 1.3-2.6 1.6-4 0.6-2 1.7-3.9 2.3-5.9 0.5-1.9 2.1-3.3 2.7-5.2-2.4 1-5.1 1.2-7.6 2.1"/>
	<path class="st1" d="m325.7 371.6c0 2.7-0.8 5.2-0.8 7.9 1.7 1.3 3.6 2.6 5.5 3.7 2.1 1.2 4.6 0.7 6.9 0.4-1.1-0.9-1.9-2.2-3.1-3-1.6-1.3-2.8-2.9-4.4-4.2-1.8-1.2-2.5-3.4-4.1-4.8"/>
	<path class="st1" d="m211.8 378.2c0.2 2.2 0.7 4.3 1.2 6.5 0.6 2.4 2.7 3.9 4.6 5.3-0.1-1.4 0.2-2.8 0-4.2-0.2-2.1 0.1-4.3-0.2-6.4-0.3-2 0.6-3.9 0.5-6-1.8 1.8-4.1 3.1-6.1 4.8"/>
	<path class="st1" d="m272 383.2c-1 2.5-2.7 4.5-3.8 6.9 1.1 1.9 2.3 3.8 3.7 5.5 1.5 1.9 4 2.5 6.2 3-0.6-1.3-0.9-2.7-1.6-3.9-1-1.8-1.6-3.9-2.6-5.7-1.1-1.7-1-3.9-1.9-5.8"/>


	<path class="st10" d="m285.5 78.5c-1.7 2.2-3.4 4.4-5 6.8 1.6-0.3 3.3-1 5-0.8 1.4 0.3 2.8 0.9 3.9 1.8 2.3 2.4 4 5.3 5.3 8.4 0.1 1.4 0 2.8 0.1 4.3 2.2-2.4 4.2-4.9 6.5-7.3-1.1-2-1.4-4.3-2.7-6.2-1.3-3.5-3.1-6.7-5.2-9.8-0.9-1.4-1.6-2.9-2.8-4-2 1.9-3.7 4.3-5.1 6.8"/>
	<path class="st10" d="m223.6 76.6c-1 2.6-1.7 5.4-2 8.2-0.7 2.8-1.5 5.6-2.1 8.4 1.6-1.1 3.1-2.8 5.2-2.8 1.3 0 2.7-0.2 3.9 0.4 2.9 1.3 5.4 3.3 7.6 5.5 0.7 1.2 1.2 2.6 1.7 4 1.1-3.1 2-6.2 3.2-9.3-1.8-1.3-2.9-3.4-4.8-4.6-2.5-2.6-5.2-4.8-8.1-6.8-1.5-1.1-2.9-2.3-4.6-3"/>
	<path class="st10" d="m347.1 96.9c-2.4 1.4-4.9 2.8-7.3 4.4 1.9 0.4 4.1 0.3 5.6 1.7 0.9 0.8 1.8 1.6 2.3 2.7 1.2 3.1 1.6 6.4 1.7 9.7-0.4 1.4-1 2.7-1.6 4.1 2.9-1.4 5.8-3 8.8-4.2 0-1-0.2-1.9 0-2.9 0.3-2.1-0.3-4.2-0.1-6.4-0.2-4.5-0.9-9-2-13.4-2.7 1-5.1 2.6-7.4 4.3"/>
	<path class="st10" d="m163.7 106.9c0 2.9 0.5 5.7 1.3 8.5 0.4 2.8 0.7 5.6 1.3 8.3 1.1-1.6 1.8-3.6 3.6-4.5 1-0.5 2-0.9 3.2-1.1 3.4 0 6.6 0.9 9.7 2.1 1.2 0.8 2.2 2 3.2 3.1-0.1-3.3-0.5-6.5-0.5-9.8-2-0.5-3.7-1.9-5.7-2.3-1.5-0.4-2.9-1.2-4.4-1.6-3.8-1.2-7.7-2.3-11.7-2.7"/>
	<path class="st10" d="m399.2 137c-3.5 1-7.1 1.1-10.7 1.9 1.4 0.9 3 1.6 4 2.9 0.8 1.2 1.3 2.6 1.6 4 0 2.9-0.7 5.8-1.7 8.5-0.4 1.9-2.2 2.9-3.4 4.3 3.2 0 6.4-0.5 9.6-0.5 0.4-1.2 0.9-2.4 1.5-3.5s0.8-2.4 1.3-3.6c1.5-3.4 2.4-7 3.2-10.6 0.3-1.3 0.7-2.7 0.7-4.1-2 0-4.1 0.2-6.1 0.7"/>
	<path class="st10" d="m125.2 156.7c-1.8 0.4-3.6 0.5-5.3 1.2 1.2 2.6 2.7 5.1 4.5 7.3 1.5 2.4 2.8 4.9 4.4 7.3 0.4-1.8 0.3-3.9 1.5-5.4 1-1.2 2.2-2.5 3.8-2.9 2.8-0.9 5.7-1.2 8.6-1.3 1.4 0.3 2.8 1 4.1 1.6-1.4-3-3-5.9-4.3-8.9-2.2 0.4-4.4-0.3-6.6 0.2-3.6-0.1-7.2 0.2-10.7 0.9"/>
	<path class="st10" d="m419.1 192.2c0.9 1.1 1.8 2.2 2.4 3.5 0.6 1.5 0.5 3.3 0.2 4.8-1.3 3.2-3.4 6-5.8 8.4-1.2 0.7-2.5 1.1-3.8 1.7 3 1.2 6.1 2 9.1 3.2 1.2-1.7 3.1-2.6 4.2-4.4 0.8-1.1 1.9-1.9 2.7-2.9 1.5-1.8 3.1-3.7 4.4-5.7 1-1.5 2.3-3 3-4.7-1.9-0.7-3.9-1.3-6-1.7-3.4-0.3-6.8-1.6-10.4-2.2"/>
	<path class="st10" d="m115.6 212.3c-1.2 0.3-2.2 1.1-3.3 1.6-3.5 1.3-6.7 3.2-9.8 5.2-1.2 0.8-2.5 1.5-3.6 2.5 1.5 1.5 3.2 2.8 5 4 3.1 1.7 5.7 4.2 8.7 6.1-0.4-1.9-1.3-3.8-0.6-5.7 0.4-1.3 1-2.7 2-3.6 2.4-2.1 5.1-3.7 8-4.9 1.4-0.1 2.8 0 4.2-0.1-2.4-2.2-4.9-4.2-7.2-6.4-1.1 0.5-2.2 1-3.4 1.3"/>
	<path class="st10" d="m427 253.1c0.3 1 0.6 2.1 0.8 3.1 0.4 2.1-0.5 4.2-1.8 5.8-2.4 2.3-5.3 4.1-8.4 5.3-1.4 0.1-2.8 0-4.2 0 2.4 2.2 5 4.2 7.3 6.5 2-1.1 4.3-1.4 6.2-2.7 3.4-1.3 6.6-3 9.6-5 1.4-1 3-1.7 4.3-3-2-1.9-4.3-3.6-6.7-5-2.5-1.5-4.7-3.4-7.1-5"/>
	<path class="st10" d="m115.8 273.6c-1 0.8-1.6 1.9-2.5 2.8-2.9 2.7-5.2 5.9-7.4 9.1-0.7 1-1.4 2-1.9 3.1 2.6 1 5.4 1.7 8.2 2 2.8 0.7 5.5 1.5 8.3 2-1.1-1.6-2.8-3.1-2.8-5.2 0-1.3-0.2-2.7 0.4-3.9 1.4-2.8 3.3-5.4 5.5-7.6 1.2-0.7 2.6-1.2 4-1.7-3.1-1.1-6.2-2-9.3-3.2-0.7 1-1.5 1.9-2.5 2.6"/>
	<path class="st10" d="m410.9 312.4c-0.2 1.4-0.3 2.9-0.8 4.3-0.7 1.5-1.9 2.6-3.2 3.5-3.1 1.4-6.6 1.7-9.9 1.8-1.4-0.4-2.8-1-4.1-1.6 1.4 3 3 5.9 4.3 8.9 2.2-0.4 4.4 0.3 6.5-0.2 5.4 0 10.8-0.7 16.1-2.1-1.1-2.7-2.7-5.1-4.5-7.4-1.4-2.4-2.8-4.8-4.4-7.2"/>
	<path class="st10" d="m140.9 326.8c-0.3 1-0.7 2-1.2 2.9-1 1.6-1.1 3.5-2 5.1-1.2 3-2 6.1-2.7 9.3-0.3 1.4-0.7 2.8-0.7 4.3 2.1 0 4.1-0.2 6.1-0.7 3.5-1 7.1-1.1 10.7-1.9-1.5-1-3.4-1.7-4.4-3.4-0.6-1.1-1-2.2-1.2-3.4 0-3.4 0.9-6.6 2.1-9.7 0.9-1.3 2-2.3 3.2-3.3-3.3 0.5-6.6 0.6-9.9 0.8"/>
	<path class="st10" d="m369.8 365.6c-1 0.5-2.1 0.9-3.2 1.1-3.4 0-6.6-0.9-9.7-2.1-1.2-0.8-2.2-2-3.2-3.1 0.2 3.3 0.4 6.5 0.6 9.8 2 0.5 3.6 1.8 5.6 2.3 1.5 0.4 2.9 1.2 4.4 1.6 3.8 1.2 7.7 2.3 11.7 2.7 0.1-2.8-0.4-5.6-1.2-8.3-0.5-2.9-0.7-5.7-1.3-8.6-1.1 1.7-1.9 3.7-3.7 4.6"/>
	<path class="st10" d="m183 369.7c0.4 2.2-0.3 4.4 0.2 6.5 0 3.6 0.3 7.2 1 10.8 0.4 1.8 0.5 3.6 1.2 5.3 2.6-1.1 5.1-2.7 7.3-4.5 2.4-1.4 4.9-2.9 7.3-4.4-1.9-0.3-4.1-0.3-5.7-1.7-1-0.9-2-1.9-2.5-3.2-1.1-2.9-1.4-6-1.5-9.1 0.3-1.4 1-2.7 1.5-4-3 1.4-5.9 3-8.8 4.3"/>
	<path class="st10" d="m301.6 384.7c-1.1 3-2 6.1-3.2 9.1 1.7 1.2 2.6 3.1 4.3 4.2 1.3 1 2.2 2.3 3.5 3.3 1.6 1.3 3.2 2.6 4.9 3.8 1.6 1.1 3.1 2.4 4.9 3.2 1-2.7 1.7-5.5 2-8.4 0.7-2.7 1.5-5.4 2-8.2-1.1 0.8-2.1 1.7-3.3 2.3-1.5 0.7-3.3 0.5-4.9 0.3-3.2-1.2-6.1-3.4-8.5-5.8-0.7-1.2-1.1-2.5-1.7-3.8"/>
	<path class="st10" d="m238.3 393.2c0.5 1.1 1 2.3 1.4 3.5 0.3 1.2 1.1 2.2 1.6 3.3 1.3 3.5 3.2 6.7 5.2 9.8 0.8 1.2 1.5 2.5 2.5 3.6 1.4-1.5 2.7-3.1 3.9-4.8 1.7-3.2 4.3-5.8 6.2-8.9-2 0.4-4 1.3-6 0.5-1.3-0.5-2.6-1-3.5-2.1-1.6-1.9-3.1-4.1-4.1-6.4-1.1-1.6-0.5-3.7-0.7-5.5-2.3 2.2-4.2 4.8-6.5 7"/>


	<path class="st11" d="m252 77.5c-2.2 4.5-4.6 8.8-6.5 13.5 0.8 1 1.6 2 2.5 3 0.8-1.7 1.8-3.2 2.9-4.6 1.2-2 3-3.5 4.8-5-1.2-2.2-2.5-4.3-3.2-6.7-0.2-0.2-0.4-0.2-0.5-0.2"/>
	<path class="st11" d="m305.3 93.2c0.4 1.2 0.8 2.5 1.2 3.7 3.2-2.7 6.8-4.8 10.8-6-0.4-2.6-0.6-5.3-0.5-7.9-3.9 3.3-7.9 6.6-11.5 10.2"/>
	<path class="st11" d="m190.3 96.4c-0.4 5.1-1 10.3-0.9 15.4 1.2 0.6 2.3 1.1 3.4 1.7 0.1-2.6 0.9-5 1.4-7.5 0.6-1.5 1.2-3 2-4.4-2.1-1.5-4.1-3.3-5.9-5.2"/>
	<path class="st11" d="m359.7 118.2c-0.1 1.3-0.2 2.5-0.3 3.8 4-1.3 8.2-1.8 12.3-1.4 0.6-2.6 1.5-5.1 2.6-7.5-4.9 1.6-9.9 3-14.6 5.1"/>
	<path class="st11" d="m140.5 138c1.5 4.9 3.1 9.8 5 14.6l3.9 0.3c-1.3-4-1.8-8.2-1.4-12.3-2.6-0.6-5.1-1.6-7.5-2.6"/>
	<path class="st11" d="m400.4 162c-0.6 1.1-1.1 2.3-1.7 3.4 4.1 0.4 8.2 1.4 11.9 3.4 1.6-2.1 3.3-4.1 5.3-5.9-4.7-0.5-9.3-0.7-14-1-0.6 0-1 0.1-1.5 0.1"/>
	<path class="st11" d="m110.3 195.4c3.3 3.9 6.6 7.9 10.2 11.5 1.2-0.4 2.5-0.8 3.7-1.2-1.3-1.4-2.3-3-3.3-4.7-1.3-1.8-2-4-2.7-6.1-2.5 0.5-5.2 0.6-7.9 0.5"/>
	<path class="st11" d="m418.3 220.6c3.7 1.9 7 4.5 9.7 7.7 2-1.1 4-2.3 6.2-3 0.5-0.1 0.6-0.3 0.5-0.7-4.5-2.2-8.8-4.6-13.4-6.5-1 0.8-2 1.6-3 2.5"/>
	<path class="st11" d="m105.4 259.6c-0.4 0.1-0.6 0.3-0.5 0.7 4.1 2.1 8.2 4.1 12.3 6.1 0.3 0.1 0.7 0.2 1.1 0.3 1.1-0.6 2-1.6 3-2.4-1.7-0.8-3.2-1.8-4.6-2.9-2-1.2-3.5-3.1-5-4.7-2.1 1-4 2.3-6.3 2.9"/>
	<path class="st11" d="m415.4 279.1c1.7 1.8 2.8 4 4.1 6 0.7 1.6 1.3 3.2 1.9 4.8 2.6-0.3 5.3-0.6 7.9-0.4-3.3-3.9-6.6-7.9-10.2-11.6-1.3 0.4-2.5 0.8-3.7 1.2"/>
	<path class="st11" d="m123.8 322c5.1 0.4 10.3 0.9 15.4 0.9 0.6-1.2 1.2-2.3 1.8-3.5-2 0-3.8-0.5-5.7-1-2.2-0.4-4.2-1.4-6.2-2.4-1.6 2.2-3.4 4.1-5.3 6"/>
	<path class="st11" d="m390.3 332c0.9 2.3 1.1 4.8 1.5 7.2 0 1.7-0.1 3.5-0.1 5.2 2.6 0.6 5 1.5 7.4 2.6-1.5-4.9-3-9.9-5-14.6-1.3-0.2-2.5-0.3-3.8-0.4"/>
	<path class="st11" d="m174.8 364.1c-2.2 0.6-4.6 0.2-6.8 0.2-0.6 2.6-1.5 5-2.6 7.4 4.9-1.5 9.8-3.1 14.6-5l0.3-3.9c-1.8 0.8-3.7 1-5.5 1.3"/>
	<path class="st11" d="m346.8 371.2c0 2.5-0.8 4.9-1.3 7.3-0.6 1.6-1.3 3.1-2.1 4.7 2.2 1.6 4.1 3.4 6 5.3 0.4-5.1 0.9-10.2 0.9-15.4-1.2-0.6-2.3-1.2-3.5-1.9"/>
	<path class="st11" d="m227.2 392.1c-1.6 0.7-3.2 1.3-4.8 1.8 0.4 2.6 0.5 5.3 0.5 7.9 4-3.3 7.9-6.6 11.6-10.2-0.4-1.2-0.8-2.4-1.2-3.7-1.9 1.8-4.1 2.9-6.1 4.2"/>
	<path class="st11" d="m291.7 390.9c-1 2.3-2.6 4.1-4 6.2-1.2 1.2-2.4 2.4-3.7 3.5 1.3 2.3 2.5 4.7 3.4 7.2 2.4-4.6 4.8-9.1 6.7-13.8-0.8-1.1-1.6-2.1-2.4-3.1"/>


	<path class="st5" d="m268.1 59.9c-1.1 0.5-1.9 1.4-2.9 2-2.4 1.5-4.3 3.7-6.4 5.6-1.9 2.1-3.8 4.3-5 6.9 2 2.6 3.9 5.2 5.6 7.9 1.9 0 3.9-0.3 5.6 0.6 2.2 1.1 4.4 2.3 5.9 4.2 1 1.2 1.7 2.6 2.5 3.9 1.1-1.1 1.3-2.6 2.1-3.8 1.6-2.4 2.7-5.2 4.6-7.4 2.1-2.7 3.3-6.1 5.9-8.3 1-0.8 1.8-1.7 2.5-2.6-1.8-2-3.6-4-5.6-5.7-2.6-2.4-5.7-4.2-8.7-6-2.2 0.5-4.1 1.8-6.1 2.7"/>
	<path class="st5" d="m202.9 69.7c-1.9 1.5-3.3 3.5-4.9 5.3-1.1 1.9-2.5 3.6-3.3 5.6-1.7 4.1-3.6 8.2-3.9 12.7 2.6 1.9 5.6 3.4 8.2 5.3 1.8-0.7 3.6-1.8 5.6-1.6 2.3 0.2 4.6 0.4 6.7 1.5 1.5 0.7 2.7 1.9 4 2.7 0.4-1.4 0.2-2.8 0.4-4.2 0.4-2.5 0.5-5 1-7.4 1.3-3.7 0.9-7.8 2.7-11.3 0.6-1.1 1-2.2 1.3-3.4-4.3-2.2-8.9-4.1-13.8-4.8-1.3-0.1-2.6-0.6-4-0.4"/>
	<path class="st5" d="m332.1 74.5c-4.5 1.7-9.1 3.4-12.8 6.6 0.9 3.1 1.5 6.4 2.2 9.5 1.6 0.8 3.6 1.2 4.8 2.6 1.5 1.8 3.1 3.7 3.8 5.9 0.5 1.5 0.6 3.2 0.9 4.8 1.4-0.7 2.3-2 3.6-2.9 2.3-1.6 4.3-3.6 6.7-4.9 2.1-1.2 3.9-2.9 6-4.2 1.9-1.2 4.2-1.6 6.1-2.7-1.8-5.9-4.7-11.4-8.6-16.1-1.6-0.7-3.4-0.2-5-0.1-2.5 0.1-5.1 0.8-7.7 1.5"/>
	<path class="st5" d="m142.1 108.3c-1.1 1.4-1.4 3.2-2 4.8-0.9 2.3-1.1 4.7-1.6 7.1-0.3 4.9-0.4 10.1 1.2 14.8 3.2 0.4 6.4 0.9 9.6 1.6 1.3-1.3 2.5-2.9 4.4-3.6 2.1-0.7 4.4-1.4 6.6-1.2 1.7 0 3.3 0.6 5 1 0-0.5-0.1-0.9-0.2-1.4-1.1-2.6-1.5-5.4-2.4-8.1-0.5-1.6-0.5-3.2-0.9-4.8-0.6-2.8-1.7-5.6-1.4-8.6 0.2-1.2 0-2.4-0.1-3.6-6.1-0.4-12.3 0.1-18.2 2"/>
	<path class="st5" d="m377.3 112.3c-0.4 3.2-0.9 6.4-1.6 9.6 1.3 1.3 2.9 2.5 3.5 4.4 0.7 2 1.3 4.1 1.2 6.3 0 1.8-0.6 3.6-1 5.4 1.6 0 3-1 4.5-1.3 2.7-0.6 5.4-1.7 8.2-2 3.4-0.4 6.7-2 10.2-1.7 1.2 0.2 2.4 0 3.6-0.1 0.6-6.2 0.1-12.4-1.8-18.3-1.9-1.4-4.3-1.7-6.4-2.5-2.2-0.4-4.4-0.9-6.6-1.1-4.7-0.1-9.4-0.2-13.8 1.3"/>
	<path class="st5" d="m100.4 167.5c-0.5 2.3 0.2 4.6 0.2 7 0.6 2.8 1.1 5.7 2.3 8.3 1.4 3.6 2.9 7.3 5.7 10.1 3.1-0.9 6.3-1.4 9.4-2.2 0.8-1.7 1.2-3.6 2.6-4.8 1.6-1.4 3.4-2.9 5.5-3.6 1.7-0.7 3.5-0.8 5.2-1-0.5-1.3-1.8-2.1-2.6-3.3-1.7-2.5-4-4.7-5.4-7.4-1.7-2.8-4.2-5.2-5.2-8.3-0.4-1.2-0.9-2.4-1.5-3.5-5.9 1.8-11.5 4.6-16.2 8.7"/>
	<path class="st5" d="m413.7 171.6c0.7 1.7 1.7 3.3 1.6 5.2-0.1 1.7-0.3 3.3-0.7 4.9-0.6 2.3-2.1 4.2-3.6 6.1 0.5 0.2 1.1 0.4 1.6 0.3 2.4 0 4.7 0.5 7 0.8 1.2 0.1 2.5 0.2 3.6 0.6 3.5 1.1 7.3 0.8 10.6 2.5 1.1 0.6 2.3 1 3.4 1.4 2.1-4.3 4-8.8 4.7-13.5 0.2-1.4 0.7-2.9 0.5-4.3-1.2-1.7-3-2.8-4.5-4.2-0.9-0.9-2.1-1.4-3.1-2.1-1.7-1.3-3.7-2.2-5.7-2.9-3.2-1.5-6.7-2.6-10.3-2.9-1.5 2.7-3.2 5.4-5.1 8.1"/>
	<path class="st5" d="m87.3 233.5c-0.9 1.5-1.9 2.9-2.7 4.4 0.3 2.1 1.6 3.8 2.4 5.7 0.5 1.4 1.6 2.4 2.4 3.6 1.5 2.4 3.6 4.1 5.5 6.1 2.1 1.9 4.3 3.8 6.9 5 2.6-2 5.2-3.9 7.9-5.6 0.1-1.8-0.3-3.7 0.5-5.4 0.7-1.6 1.6-3.1 2.7-4.5 1.4-1.9 3.6-3 5.6-4.1-1.2-1.1-2.8-1.4-4.1-2.3-2.4-1.5-5-2.6-7.2-4.4-1.9-1.5-4.2-2.5-6.2-4-1.8-1.3-2.9-3.2-4.8-4.5-3.2 3.1-6.5 6.3-8.9 10"/>
	<path class="st5" d="m429.9 232c-0.1 1.9 0.3 3.9-0.6 5.6-0.9 1.8-1.9 3.7-3.4 5.2-1.3 1.4-3 2.2-4.6 3.2 1 1.1 2.6 1.3 3.8 2.1 2.4 1.6 5.2 2.7 7.4 4.6 2.7 2.1 6.1 3.3 8.3 5.9 0.8 0.9 1.7 1.8 2.6 2.5 1.5-1.4 3.1-2.7 4.5-4.2 2.9-3 5.2-6.5 7.3-10.1-0.7-2.4-2-4.5-3.1-6.7-1.7-2.3-3.1-4.8-5.3-6.7-2.6-2.8-5.5-5.4-8.9-7.1-2.6 2.1-5.3 4-8 5.7"/>
	<path class="st5" d="m102.3 291.6c-2.8 5.5-4.9 11.6-5.3 17.8 1.4 1.9 3.4 3.1 5 4.8 1.9 1.2 3.8 2.6 5.8 3.5 4.1 1.7 8.3 3.7 12.8 3.9 1.6-2.8 3.3-5.6 5.2-8.2-0.7-1.8-1.8-3.6-1.6-5.6 0.2-2.3 0.5-4.6 1.6-6.7 0.7-1.5 1.8-2.6 2.7-4-1.5-0.5-3.1-0.2-4.7-0.5-2.3-0.4-4.7-0.5-7-1-2.7-0.9-5.5-1-8.2-1.6-2.1-0.5-4-1.9-6.3-2.4"/>
	<path class="st5" d="m421.7 294c-0.7 1.8-1.3 3.9-2.9 5.2-1.7 1.4-3.4 2.8-5.5 3.5-1.6 0.6-3.3 0.7-5 1 0.6 1.4 1.9 2.2 2.7 3.4 1.7 2.4 3.8 4.5 5.2 7.2 1.7 2.8 4.1 5.1 5.2 8.2 0.4 1.3 0.9 2.5 1.5 3.7 2.6-0.9 5.2-1.8 7.7-3.1 3.1-1.5 5.9-3.6 8.7-5.7 0.2-5.5-0.6-11.1-3-16.2-1.2-3.3-2.9-6.5-5.2-9.3-3 0.8-6.2 1.7-9.4 2.1"/>
	<path class="st5" d="m158.7 347.3c-2.4 1-5.1 1.4-7.6 2.2-1.7 0.6-3.6 0.6-5.3 1-1.5 0.3-3 0.8-4.6 1.1-2.4 0.5-4.9 0-7.4 0.3 0 1.4-0.1 2.8-0.2 4.2-0.1 4.8 0.6 9.5 2 14.1 0.6 0.8 1.8 1 2.7 1.4 1.9 0.5 3.7 1.5 5.8 1.6 2.5 0.5 5 0.9 7.6 0.7 3.6 0.2 7.3-0.2 10.7-1.3 0.4-3.2 0.9-6.4 1.6-9.6-1.4-1.3-2.9-2.5-3.6-4.4-0.7-2.2-1.4-4.4-1.2-6.7 0-1.7 0.6-3.3 1-4.9-0.5 0-1 0-1.5 0.3"/>
	<path class="st5" d="m390.3 348.2c-1.3 1.4-2.6 2.9-4.4 3.6-2 0.7-4.1 1.3-6.3 1.2-1.8 0-3.6-0.6-5.3-1 0.1 1.6 1 2.9 1.3 4.4 0.6 2.8 1.7 5.4 2 8.2 0.4 3.3 1.9 6.4 1.7 9.8-0.1 1.3-0.1 2.6 0 4 6.2 0.6 12.4 0.1 18.3-1.8 1-1.3 1.4-2.9 1.9-4.5 1.1-2.7 1.4-5.5 1.8-8.4 0.1-4.6 0.3-9.4-1.3-13.9-3.3-0.3-6.5-0.9-9.7-1.6"/>
	<path class="st5" d="m205.4 383.5c-2 1.4-3.9 3.1-6 4.5-2.5 1.3-4.6 3.2-6.9 4.7-1.9 1.3-4.3 1.7-6.3 2.9 1.8 5.9 4.7 11.6 8.8 16.3 1.1 0.2 2.2 0.2 3.3 0.1 1.8-0.3 3.6-0.1 5.4-0.6 2.4-0.4 4.8-1 7-2.1 3.5-1.3 6.9-2.9 9.7-5.4-0.5-3.2-1.6-6.3-2-9.6-1.7-0.7-3.7-1.2-5-2.7-1.6-1.8-3-3.7-3.8-5.9-0.5-1.5-0.6-3.1-0.9-4.7-1.4 0.4-2.2 1.7-3.3 2.5"/>
	<path class="st5" d="m324.5 383.6c-0.1 0.4-0.2 0.9-0.3 1.3-0.1 3.3-0.8 6.5-1.1 9.8-0.9 2.7-1.1 5.6-1.6 8.4-0.4 2.4-1.9 4.4-2.5 6.8 5.5 2.8 11.6 5 17.8 5.3 1.7-1.2 2.8-3 4.2-4.5 0.9-0.9 1.4-2.1 2.1-3.1 1.3-1.7 2.2-3.7 2.9-5.7 1.5-3.3 2.7-6.8 2.8-10.4-2.8-1.6-5.6-3.3-8.2-5.2-1.8 0.7-3.6 1.8-5.6 1.6-2.3-0.2-4.6-0.4-6.7-1.5-1.4-0.7-2.6-1.8-3.8-2.8"/>
	<path class="st5" d="m264.1 397.6c-1.6 2.4-2.7 5.2-4.6 7.4-1.5 1.9-2.5 4.2-4 6.2-1.3 1.8-3.2 3-4.5 4.8 1.1 1.2 2.2 2.5 3.4 3.7 3.1 3.3 6.9 5.8 10.9 8 2.4-0.6 4.4-2 6.7-3 2.4-1.8 4.9-3.3 6.9-5.5 2.7-2.5 5.3-5.4 6.9-8.8-2-2.6-3.9-5.2-5.6-8h-3c-2.2 0.1-4-1.3-5.8-2.4-2.4-1.5-3.9-3.9-5.2-6.3-1 1.2-1.2 2.7-2.1 3.9"/>


	<path class="st12" d="m230.5 66.6c-2.2 1.9-3.7 4.4-5.2 6.8 2.8 1.9 5.7 3.7 8.1 6 3.3 2.4 6.2 5.4 9.1 8.3 1.5-5.1 4.3-9.6 7-14.1-1.2-1-2.3-2.1-3.2-3.4-3.1-3.5-7.3-5.9-11.8-7.3-1.3 1.2-2.8 2.3-4 3.7"/>
	<path class="st12" d="m300.5 65c-2.7 0.9-4.9 2.6-7.2 4.1 1 1.5 2 3 3 4.6 1.4 1.9 2.1 4.3 3.5 6.2 1.4 3 2.8 5.9 4 9 3.3-4.1 7.7-7.2 11.9-10.4-0.7-1.3-1.2-2.7-1.6-4.2-1.5-4.5-4.5-8.3-8.2-11.3-1.8 0.6-3.6 1.2-5.4 2"/>
	<path class="st12" d="m166.1 95.2c-1.3 2.5-1.6 5.3-2.2 8.1 3.3 0.7 6.6 1.2 9.7 2.4 4.1 1 7.9 2.7 11.8 4.2-0.6-5.3 0.4-10.5 1-15.8-1.3-0.4-2.6-0.9-3.7-1.6-4.3-2.3-9.3-2.9-14.2-2.5-0.8 1.7-1.7 3.4-2.4 5.2"/>
	<path class="st12" d="m357.9 91.4c0.5 2.5 0.9 5 1.4 7.5-0.1 2.6 0.8 5.2 0.6 7.8 0.1 2.3 0.2 4.7 0.1 7 4.6-2.6 9.9-3.7 14.9-5.1-0.1-1.3-0.1-2.6 0-3.8 0.5-4.9-0.8-9.9-3.1-14.3-1.9-0.1-3.7-0.3-5.6-0.2-2.8-0.3-5.6 0.5-8.3 1.1"/>
	<path class="st12" d="m409 136.5c-0.3 1.8-0.7 3.6-1.1 5.4-0.3 2.5-1.6 4.7-2 7.1-1.1 3-2.2 6.1-3.5 9 5.3-0.7 10.5 0.4 15.7 1 0.4-1.3 0.9-2.5 1.6-3.7 2.3-4.3 2.9-9.4 2.5-14.2-2.3-1.2-4.7-2.2-7-3.2-2.1-0.6-4.2-1-6.2-1.4"/>
	<path class="st12" d="m117.9 140.6c-0.2 1.8-0.3 3.6-0.2 5.4-0.2 2.8 0.5 5.6 1.1 8.4 2.5-0.6 5-0.9 7.5-1.4 1.8 0 3.7-0.3 5.5-0.5 3.1 0 6.2-0.3 9.3-0.2-2.5-4.6-3.7-9.8-5.1-14.9-2.8 0.2-5.6-0.5-8.3-0.1-3.4 0.5-6.9 1.4-9.8 3.3"/>
	<path class="st12" d="m99.2 199.3c-3.3 1.7-6.5 4.1-8.7 7.1 0.6 2.4 1.6 4.6 2.5 6.9 1 2 2.3 3.8 3.5 5.6 2.7-1.8 5.4-3.8 8.5-5.1 3.6-2.2 7.5-3.7 11.4-5.4-4.1-3.3-7.2-7.7-10.4-11.8-2.2 1.2-4.7 1.5-6.8 2.7"/>
	<path class="st12" d="m434.5 204.2c-1.2 1.3-2.3 2.7-3.4 4.1-2.2 2.3-4.2 4.6-6.5 6.8 1.8 0.7 3.6 1.2 5.4 2.1 2.9 1.4 5.7 3.2 8.6 4.8 0.9-0.4 1.4-1.5 2.2-2 4.2-3.2 7-7.9 8.5-12.8-1.7-2-3.5-3.9-5.4-5.7-1.6-1.3-3.3-2.4-5.1-3.5-1.3 2-2.8 4.1-4.3 6.2"/>
	<path class="st12" d="m97.4 266.1c-3.4 3.1-5.7 7.2-7.1 11.6 1.2 1.4 2.3 2.8 3.7 4 1.9 2.2 4.4 3.7 6.8 5.2 1.4-2.2 2.9-4.3 4.4-6.3 1.2-1.3 2.3-2.7 3.4-4.1 2.2-2.3 4.2-4.6 6.5-6.8-5.1-1.5-9.6-4.3-14.1-7-1.1 1.3-2.3 2.4-3.6 3.4"/>
	<path class="st12" d="m436.4 270.3c-2.2 0.8-4 2.3-6.2 3.2-2.3 1-4.6 2.1-6.9 3 4.1 3.3 7.2 7.7 10.4 11.8 1.3-0.7 2.7-1.2 4.2-1.6 4.5-1.5 8.4-4.5 11.4-8.2-0.8-2.5-1.7-4.9-2.7-7.2-1-1.8-2.2-3.6-3.4-5.3-2.3 1.5-4.5 2.9-6.8 4.3"/>
	<path class="st12" d="m120.2 329c-2.5 4.4-3.2 9.7-2.8 14.7 1.7 0.9 3.4 1.7 5.2 2.4 2.5 1.3 5.4 1.6 8.1 2.2 0.3-1.7 0.6-3.4 1.1-5.1 0.3-2.5 1.6-4.8 2-7.4 1.2-3 2.1-6 3.5-9-5.3 0.5-10.5-0.4-15.8-1-0.3 1.1-0.7 2.2-1.3 3.2"/>
	<path class="st12" d="m413.4 331.8c-1.9 0-3.7 0.3-5.6 0.6-3.1 0-6.2 0.3-9.3 0.2 2.6 4.6 3.7 9.9 5.1 14.9 1.1 0 2.2-0.1 3.3 0 5.1 0.6 10.3-0.7 14.9-3.1 0.2-2.7 0.4-5.4 0.2-8.1-0.2-2-0.6-3.9-1.1-5.8-2.5 0.5-5 0.9-7.5 1.3"/>
	<path class="st12" d="m164.8 376.2c0.1 2.3-0.3 4.5-0.2 6.8 0.2 4 1.4 7.8 3.3 11.3 2.7 0.2 5.4 0.4 8.1 0.2 2-0.2 3.9-0.6 5.8-1.1-0.6-3.3-1.5-6.7-1.5-10.1-0.1-1.4-0.5-2.7-0.5-4.1 0.1-2.7-0.3-5.4-0.1-8.2-4.6 2.7-9.8 3.8-14.9 5.2"/>
	<path class="st12" d="m354.3 374.9c0.5 5.3-0.4 10.5-1 15.8 1.3 0.4 2.5 0.9 3.7 1.6 4.3 2.3 9.4 2.9 14.2 2.5 1.2-2.3 2.2-4.6 3.2-6.9 0.6-2.1 1-4.2 1.4-6.3-2.5-0.4-5-1.1-7.6-1.6-1.7-0.7-3.4-1.1-5.2-1.6-2.9-1.2-5.9-2.1-8.7-3.5"/>
	<path class="st12" d="m224 406.3c0.4 0.9 0.9 1.7 1.2 2.7 1.3 5.1 4.6 9.5 8.6 12.8 2.5-0.7 4.9-1.7 7.2-2.7 1.8-1 3.6-2.2 5.3-3.4-1.8-2.8-3.8-5.4-5.1-8.5-2.2-3.6-3.7-7.5-5.3-11.3-3.4 4.1-7.8 7.2-11.9 10.4"/>
	<path class="st12" d="m297.1 397.2c-1.5 5.1-4.3 9.6-7 14.1 1.1 1 2.2 2.1 3.2 3.3 3.1 3.5 7.3 5.9 11.8 7.3 1.4-1.2 2.8-2.3 4-3.7 2.2-1.9 3.7-4.4 5.2-6.8-2.2-1.4-4.3-2.9-6.4-4.4-1.3-1.3-2.7-2.3-4.1-3.4-2.2-2.1-4.5-4.1-6.7-6.4"/>


	<path class="st13" d="m258.2 54.1c-2.9 0.1-5.7 0.5-8.6 0.9-2.8 0.7-5.3 2.1-8 3.2-1 0.4-1.9 1-2.9 1.6 1.2 0.8 1.8 2.2 3 2.9 3.4 2.4 6.6 5.3 9.3 8.4 1.6-2.1 3.3-4.3 5.1-6.2 1.2-1.1 2.1-2.6 3.4-3.7 2.8-2.4 5.8-4.7 9-6.6-2-0.9-4.2-0.5-6.3-0.9-1.3-0.3-2.7 0.4-4 0.4"/>
	<path class="st13" d="m311.1 61.8c0.7 1.2 0.8 2.7 1.6 3.9 2.2 3.6 4.1 7.3 5.4 11.3 2.7-1.6 5.5-3.2 8.4-4.4 3-1.8 6.4-2.5 9.7-3.4 1.5-0.4 3-0.6 4.4-0.8-1.6-1.6-3.8-2.2-5.7-3.3-1.5-0.9-3.3-0.7-4.9-1.5-2.6-0.8-5.2-1.6-7.8-2.2-3.6-0.1-7.4-0.2-11.1 0.4"/>
	<path class="st13" d="m190.7 70.9c-1.4 0.3-2.4 1.4-3.7 2-2.1 0.9-4.2 2.1-6.2 3.3-2.3 1.1-3.9 3-5.6 4.8-1.3 1.5-2.8 2.9-4 4.5 1.4 0.4 2.5 1.4 4 1.7 4.1 0.9 8 2.3 11.7 4.2 0.7-3 1.6-6 2.8-8.9 0.9-3.5 2.9-6.5 4.6-9.6 0.7-1.2 1.6-2.3 2.4-3.5-2.1-0.1-4 1.1-6 1.5"/>
	<path class="st13" d="m377.1 91.3c0.1 1.4-0.4 2.8-0.1 4.1 0.7 4.2 0.9 8.4 0.6 12.6 3.1-0.4 6.3-0.8 9.5-0.8 3.5-0.5 7 0.2 10.5 0.7 1.4 0.2 2.7 0.6 4.1 0.9-0.8-2.1-2.7-3.4-3.9-5.3-0.8-1-2-1.5-2.9-2.3-1.8-1.6-3.6-3.2-5.5-4.6-1.6-1.5-3.8-2.3-5.9-3.1-2.1-0.7-4.2-1.7-6.4-2.2"/>
	<path class="st13" d="m131.1 114.2c-1.5 1-2 2.9-3.4 4.1-2.3 2.9-5 5.6-6.3 9.1-0.9 2.6-2.1 5.1-2.7 7.9 1.4-0.2 2.8 0.3 4.1-0.1 4.2-0.7 8.4-0.9 12.6-0.6-0.7-4-0.8-8.1-1-12.2 0.2-4 0.7-8 1.8-11.9-2.1 0.7-3.3 2.5-5.1 3.7"/>
	<path class="st13" d="m426.7 143.8c-0.3 1.4-1.3 2.4-1.5 3.8-0.9 4.1-2.4 8.2-4.2 12 3.1 0.7 6.2 1.7 9.1 2.8 3.3 0.8 6.2 2.7 9.1 4.4 1.3 0.7 2.5 1.7 3.7 2.6 0-2.5-1.3-4.7-1.9-7.1-1.9-2.7-3-5.9-4.8-8.7-1-2.2-2.7-3.8-4.4-5.4-1.7-1.4-3.3-3-5.1-4.4"/>
	<path class="st13" d="m92.5 177.3c-0.7 1.1-0.7 2.5-1.1 3.8-1.1 2.7-1.7 5.5-2.5 8.3-0.4 2.7-0.1 5.4-0.1 8.1 0 1.3 0.2 2.5 0.4 3.7 1.3-0.6 2.7-0.8 3.9-1.6 3.5-2.2 7.4-4 11.3-5.4-1.6-2.7-3.2-5.5-4.4-8.4-1.7-2.9-2.4-6.2-3.3-9.4-0.4-1.5-0.6-3.1-0.8-4.6-1.7 1.4-2.2 3.6-3.4 5.5"/>
	<path class="st13" d="m449.6 214.4c-2.4 3.4-5.2 6.5-8.4 9.3 3.3 2.4 6.3 5.2 9.4 7.9 2.7 3 5.1 6.2 7.1 9.6 0.9-2 0.5-4.2 0.9-6.3 0.3-1.4-0.4-2.7-0.5-4.1-0.1-2.2-0.2-4.5-0.6-6.7-0.1-2.4-1.1-4.6-2.1-6.8-1-2-1.7-4.1-2.9-5.9-0.9 1.1-2.2 1.8-2.9 3"/>
	<path class="st13" d="m82 243.7c-1 2.2-0.5 4.7-1 7 0.8 4.1 0.7 8.4 1.5 12.5 0.8 2.6 2 5 3.1 7.4 0.4 1 1 2 1.6 2.9 0.8-1.2 2.2-1.8 2.9-3 2.4-3.4 5.2-6.6 8.4-9.3-3.4-2.4-6.4-5.2-9.4-8-2.6-2.9-5.1-6.1-7.1-9.5"/>
	<path class="st13" d="m446.6 285.3c-3.5 2.2-7.3 4.1-11.3 5.4 2.2 3.5 3.9 7.2 5.6 10.9 1.3 3.8 2.4 7.7 2.9 11.6 0.8-0.8 1.5-1.7 1.9-2.8 0.7-1.8 2.1-3.3 2.2-5.3 1.2-4.5 3.3-8.8 3.1-13.5-0.2-2.6 0-5.2-0.4-7.8-1.3 0.5-2.8 0.7-4 1.5"/>
	<path class="st13" d="m96.8 315.5c-0.2 2.2 1.1 4 1.5 6.1 0.4 1.8 1.9 3 2.5 4.7 1.7 3.2 3.1 6.6 5.9 9.1 2.1 1.9 4 3.9 6.2 5.6 0.4-1.4 1.5-2.6 1.7-4.1 0.9-4 2.3-8 4.2-11.7-4-0.9-7.8-2.3-11.7-3.7-3.6-1.6-7.1-3.6-10.3-6"/>
	<path class="st13" d="m404.2 350.3c0.4 2.9 0.8 5.8 0.8 8.7 0.5 5.1-0.3 10.3-1.5 15.3 2-0.7 3.3-2.6 5-3.8 1.5-1 2-2.9 3.4-4.1 1.8-2.1 3.6-4.2 5.1-6.5 1.6-3.3 2.9-6.8 3.9-10.3-1.4 0.1-2.8-0.4-4.2-0.1-4 0.8-8.3 1.1-12.5 0.8"/>
	<path class="st13" d="m137.9 376.1c0.8 2.1 2.7 3.4 3.9 5.2 0.8 1.1 2.1 1.6 3.1 2.5 2.1 2 4.3 3.7 6.6 5.4 2.4 1.5 5.2 2.3 7.8 3.3 1.1 0.4 2.2 0.7 3.3 1-0.2-1.4 0.3-2.8-0.1-4.2-0.7-4.2-0.9-8.4-0.6-12.6-2.9 0.4-5.8 0.8-8.8 0.8-5 0.7-10.2-0.2-15.2-1.4"/>
	<path class="st13" d="m352.7 393.5c-0.9 4-2.3 7.8-3.7 11.7-1.7 3.6-3.7 7.1-6.2 10.3 2.2 0.1 4.1-1.1 6.2-1.6 1.6-0.4 2.8-1.8 4.4-2.4 2.5-1.2 4.9-2.5 7.2-4 2.8-2.5 5.4-5.3 7.8-8.2-1.5-0.4-2.6-1.4-4.2-1.7-3.9-0.8-7.8-2.3-11.5-4.1"/>
	<path class="st13" d="m210.7 413.5c-3.7 1.3-7.6 2.4-11.6 2.9 1.4 1.6 3.5 2.1 5.3 3.2 1.6 1.1 3.7 0.8 5.3 1.7 3.7 1.1 7.4 2.6 11.3 2.3 2.5-0.3 5 0 7.5-0.5-0.6-1.3-0.8-2.8-1.6-3.9-2.2-3.5-4.1-7.3-5.3-11.3-3.5 2.2-7.2 3.9-10.9 5.6"/>
	<path class="st13" d="m280.7 423.1c-3 2.7-6.1 5.1-9.6 7.1 1.1 0.5 2.4 0.7 3.6 0.7 1.6-0.1 3.3 0.6 4.9 0.1 2.7-0.7 5.5-0.3 8.2-0.9 2.5-0.1 4.9-1.1 7.1-2.1 2-1 4.1-1.7 6-3-1.2-0.8-1.8-2.2-3.1-2.9-3.4-2.4-6.5-5.3-9.3-8.4-2.3 3.4-5.1 6.4-7.8 9.4"/>


	<path class="st14" d="m279.5 55.7c4.5 2.9 8.4 6.7 11.9 10.8 2.5-1.7 4.9-3.6 7.6-4.8 1.2-0.4 2.5-0.7 3.6-1.3-3.1-2.1-6.7-3.4-10.3-4.5-2.5-0.8-5.1-0.4-7.6-0.5-1.7 0-3.5-0.1-5.2 0.3"/>
	<path class="st14" d="m215.1 62.8c-2.6 1.2-5.4 1.8-7.7 3.5 5.3 1.1 10.4 2.9 15.1 5.4 1.3-1.9 2.4-4 3.9-5.8 1.1-1.7 2.8-2.7 4.2-4.1-1.2-0.2-2.3-0.4-3.5-0.5-4.1 0-8.3-0.3-12 1.5"/>
	<path class="st14" d="m350.2 73.7c2 3.2 4 6.4 5.2 10 0.5 1.5 1.3 2.9 1.6 4.5 2.3-0.4 4.6-1.2 6.9-1.4 1.9-0.4 3.9 0.1 5.8 0.1-0.7-1-1.4-1.9-2.1-2.8-2.9-2.8-5.7-6-9.5-7.4-2.5-1-5-2.6-7.9-3"/>
	<path class="st14" d="m159.3 92.1c-1.9 0.5-3.6 1.6-5.4 2.5-2.3 1.2-3.9 3.4-5.8 5.1-1.3 1.2-2.5 2.4-3.5 3.9 3.7-0.6 7.4-1.2 11.2-1 1.6 0.1 3.3-0.1 4.9 0.2 0.5-2.3 0.7-4.8 1.4-7.1 0.3-1.9 1.6-3.5 2.3-5.3-1.7 0.5-3.6 0.8-5.1 1.7"/>
	<path class="st14" d="m408.7 117.3c1 5.3 1.3 10.7 0.8 16 2.3 0.5 4.7 0.7 7 1.4 1.9 0.3 3.5 1.6 5.3 2.3-0.4-1.6-0.6-3.2-1.4-4.6-0.4-0.7-0.6-1.5-0.8-2.2-1.3-2.3-2.2-4.8-4.2-6.6-2.3-2.1-4.1-4.7-6.7-6.3"/>
	<path class="st14" d="m110.4 145.6c-2.6 2.5-5.2 5.1-6.4 8.6-1 2.6-2.5 5-3 7.8 3.2-2 6.5-4 10.1-5.2 1.5-0.5 2.9-1.3 4.5-1.6-0.6-3-1.5-6-1.5-9.2 0.1-1.2 0.3-2.4 0.2-3.6-1.4 1-2.9 1.9-3.9 3.2"/>
	<path class="st14" d="m446 180c-1 5.3-2.9 10.3-5.4 15.1 2 1.4 4.2 2.5 6 4.1 1.6 1 2.6 2.8 3.9 4.1 0.3-1.8 0.8-3.6 0.5-5.4 0.2-2-0.2-3.9-0.3-5.8-0.2-2.6-1.6-4.9-2.5-7.3-0.5-1.8-1.2-3.4-2.2-4.8"/>
	<path class="st14" d="m83.5 219.5c-0.9 2.7-0.5 5.5-0.6 8.3-0.1 1.7-0.1 3.3 0.3 5 2.2-3.1 4.5-6.2 7.4-8.8 1.1-1 2.1-2.2 3.4-3.2-1.2-1.9-2.8-3.7-3.8-5.7-1.2-1.7-1.5-3.7-2.2-5.6-2.3 3-3.4 6.5-4.5 10"/>
	<path class="st14" d="m445.7 264c1.3 2 2.9 3.8 3.9 5.9 1.1 1.6 1.4 3.6 2.1 5.4 1.1-1.6 2.1-3.2 2.6-5.1 0.8-1.3 1.1-2.9 1.6-4.4 0.5-1.6 0.8-3.3 0.7-5-0.1-2.9 0.4-5.8-0.3-8.7-2.7 4.5-6.5 8.4-10.6 11.9"/>
	<path class="st14" d="m89.1 281.7c-0.3 1.6-0.7 3.3-0.5 5 0 3.5 0 7.3 1.5 10.6 1.2 2.6 1.8 5.4 3.5 7.7 0.6-2.9 1.4-5.8 2.4-8.6 0.9-2.2 2-4.4 2.9-6.6-2.5-1.6-5.2-3.1-7.4-5.2-0.7-1-1.5-2-2.4-2.9"/>
	<path class="st14" d="m428.5 328c-1.5 0.5-2.9 1.3-4.4 1.6 0.4 2.3 1.2 4.6 1.4 6.9 0.4 2-0.1 3.9-0.1 5.9 1.5-1.1 3.1-2.1 4.3-3.6 1.5-1.1 2.5-2.7 3.8-4.1 1.6-2 2.3-4.5 3.4-6.7 0.8-1.7 1.5-3.4 1.8-5.2-3.3 2.1-6.6 4-10.2 5.2"/>
	<path class="st14" d="m117.9 347.9c0.4 1.8 0.8 3.7 1.7 5.4 0.4 1.8 1.5 3.3 2.3 4.9 1.3 2.5 3.6 4.2 5.4 6.2 1.1 1.2 2.3 2.4 3.7 3.3-1-5.3-1.3-10.7-0.8-16-3-0.6-6-0.9-8.8-2-1.2-0.7-2.3-1.4-3.5-1.8"/>
	<path class="st14" d="m379 382.1c-0.5 2.3-0.7 4.7-1.4 7-0.3 1.9-1.6 3.5-2.3 5.3 1.3-0.3 2.6-0.5 3.9-1 0.9-0.5 1.9-0.9 3-1.2 2.3-1.3 4.8-2.2 6.6-4.2 2-2.3 4.6-4 6.3-6.7-5.4 1-10.8 1.2-16.1 0.8"/>
	<path class="st14" d="m175.7 398.1c-1.9 0.4-3.9-0.1-5.9-0.1 0.6 1 1.3 1.9 2 2.8 2.9 2.7 5.6 6 9.5 7.4 2.7 1 5.2 2.6 8.1 3-3-4.4-5.3-9.4-6.8-14.5-2.3 0.4-4.6 1.2-6.9 1.4"/>
	<path class="st14" d="m317.2 413.2c-1.4 2-2.5 4.2-4.1 6-1 1.6-2.8 2.5-4.1 3.9 1.1 0.2 2.2 0.3 3.3 0.5 3 0 6 0 8.9-0.5 2.1-0.4 4-1.5 6-2.2 1.8-0.6 3.5-1.3 5-2.4-5.2-0.9-10.2-2.8-15-5.3"/>
	<path class="st14" d="m242.3 422.3c-1.6 1.1-3.6 1.4-5.4 2.1 1.4 0.9 2.8 2 4.4 2.4 3.3 1.4 6.8 2.8 10.4 2.6 2.8-0.1 5.6 0.4 8.4-0.3-2.8-1.9-5.6-4-7.9-6.4-1.3-1.5-2.8-2.8-4-4.3-1.9 1.2-3.7 2.8-5.9 3.9z"/>

</svg>
	