<svg id="visual" viewBox="0 0 900 600" width="900" height="600" xmlns="http://www.w3.org/2000/svg" xmlns:xlink="http://www.w3.org/1999/xlink" version="1.1"><g stroke-width="1" stroke-linejoin="bevel"><path d="M487.9 308L549.7 316L507.9 242Z" fill="#0c2435" stroke="#0c2435"></path><path d="M626.5 251L555.7 189L507.9 242Z" fill="#0c2435" stroke="#0c2435"></path><path d="M555.7 189L499.9 178L507.9 242Z" fill="#205a7a" stroke="#205a7a"></path><path d="M507.9 242L442.1 204L487.9 308Z" fill="#112e42" stroke="#112e42"></path><path d="M549.7 316L626.5 251L507.9 242Z" fill="#1d4e6b" stroke="#1d4e6b"></path><path d="M499.9 178L442.1 204L507.9 242Z" fill="#205a7a" stroke="#205a7a"></path><path d="M442.1 204L415.1 320L487.9 308Z" fill="#205a7a" stroke="#205a7a"></path><path d="M487.9 308L502.9 398L549.7 316Z" fill="#277297" stroke="#277297"></path><path d="M415.1 320L502.9 398L487.9 308Z" fill="#0c2435" stroke="#0c2435"></path><path d="M549.7 316L632.5 335L626.5 251Z" fill="#205a7a" stroke="#205a7a"></path><path d="M578.7 396L632.5 335L549.7 316Z" fill="#0c2435" stroke="#0c2435"></path><path d="M502.9 398L578.7 396L549.7 316Z" fill="#19435d" stroke="#19435d"></path><path d="M578.7 396L636.5 342L632.5 335Z" fill="#19435d" stroke="#19435d"></path><path d="M632.5 335L756.4 247L626.5 251Z" fill="#19435d" stroke="#19435d"></path><path d="M502.9 398L554.7 417L578.7 396Z" fill="#112e42" stroke="#112e42"></path><path d="M721.4 156L622.5 168L626.5 251Z" fill="#15384f" stroke="#15384f"></path><path d="M626.5 251L622.5 168L555.7 189Z" fill="#297ea6" stroke="#297ea6"></path><path d="M564.7 59L472.9 108L499.9 178Z" fill="#297ea6" stroke="#297ea6"></path><path d="M622.5 168L603.7 148L555.7 189Z" fill="#15384f" stroke="#15384f"></path><path d="M343.3 407L394.1 391L415.1 320Z" fill="#112e42" stroke="#112e42"></path><path d="M415.1 320L394.1 391L502.9 398Z" fill="#277297" stroke="#277297"></path><path d="M502.9 398L515.9 482L554.7 417Z" fill="#0c2435" stroke="#0c2435"></path><path d="M564.7 59L499.9 178L555.7 189Z" fill="#205a7a" stroke="#205a7a"></path><path d="M499.9 178L436.1 113L442.1 204Z" fill="#15384f" stroke="#15384f"></path><path d="M319.3 127L340.3 250L442.1 204Z" fill="#19435d" stroke="#19435d"></path><path d="M442.1 204L340.3 250L415.1 320Z" fill="#081a28" stroke="#081a28"></path><path d="M472.9 108L436.1 113L499.9 178Z" fill="#246688" stroke="#246688"></path><path d="M390.1 487L515.9 482L502.9 398Z" fill="#246688" stroke="#246688"></path><path d="M554.7 417L619.5 482L578.7 396Z" fill="#19435d" stroke="#19435d"></path><path d="M578.7 396L715.4 401L636.5 342Z" fill="#297ea6" stroke="#297ea6"></path><path d="M272.5 275L309.3 270L252.5 188Z" fill="#0c2435" stroke="#0c2435"></path><path d="M340.3 250L309.3 270L415.1 320Z" fill="#1d4e6b" stroke="#1d4e6b"></path><path d="M309.3 270L343.3 407L415.1 320Z" fill="#19435d" stroke="#19435d"></path><path d="M394.1 391L390.1 487L502.9 398Z" fill="#081a28" stroke="#081a28"></path><path d="M515.9 482L619.5 482L554.7 417Z" fill="#15384f" stroke="#15384f"></path><path d="M619.5 482L715.4 401L578.7 396Z" fill="#297ea6" stroke="#297ea6"></path><path d="M636.5 342L756.4 247L632.5 335Z" fill="#0c2435" stroke="#0c2435"></path><path d="M668.5 59L564.7 59L603.7 148Z" fill="#112e42" stroke="#112e42"></path><path d="M603.7 148L564.7 59L555.7 189Z" fill="#246688" stroke="#246688"></path><path d="M472.9 108L399.1 75L436.1 113Z" fill="#1d4e6b" stroke="#1d4e6b"></path><path d="M756.4 247L721.4 156L626.5 251Z" fill="#1d4e6b" stroke="#1d4e6b"></path><path d="M622.5 168L668.5 59L603.7 148Z" fill="#15384f" stroke="#15384f"></path><path d="M773.4 328L756.4 247L636.5 342Z" fill="#112e42" stroke="#112e42"></path><path d="M476.9 0L399.1 75L472.9 108Z" fill="#112e42" stroke="#112e42"></path><path d="M436.1 113L319.3 127L442.1 204Z" fill="#0c2435" stroke="#0c2435"></path><path d="M351.3 476L390.1 487L394.1 391Z" fill="#19435d" stroke="#19435d"></path><path d="M597.7 557L647.5 500L619.5 482Z" fill="#19435d" stroke="#19435d"></path><path d="M252.5 188L309.3 270L340.3 250Z" fill="#15384f" stroke="#15384f"></path><path d="M309.3 270L253.5 357L343.3 407Z" fill="#081a28" stroke="#081a28"></path><path d="M597.7 557L619.5 482L515.9 482Z" fill="#00101c" stroke="#00101c"></path><path d="M619.5 482L647.5 500L715.4 401Z" fill="#277297" stroke="#277297"></path><path d="M715.4 401L773.4 328L636.5 342Z" fill="#0c2435" stroke="#0c2435"></path><path d="M784.2 331L773.4 328L715.4 401Z" fill="#205a7a" stroke="#205a7a"></path><path d="M399.1 75L319.3 127L436.1 113Z" fill="#00101c" stroke="#00101c"></path><path d="M343.3 407L351.3 476L394.1 391Z" fill="#081a28" stroke="#081a28"></path><path d="M215.5 435L351.3 476L343.3 407Z" fill="#205a7a" stroke="#205a7a"></path><path d="M414.1 0L364.3 69L399.1 75Z" fill="#00101c" stroke="#00101c"></path><path d="M399.1 75L364.3 69L319.3 127Z" fill="#0c2435" stroke="#0c2435"></path><path d="M829.2 380L784.2 331L715.4 401Z" fill="#15384f" stroke="#15384f"></path><path d="M773.4 328L814.2 262L756.4 247Z" fill="#00101c" stroke="#00101c"></path><path d="M721.4 156L668.5 59L622.5 168Z" fill="#15384f" stroke="#15384f"></path><path d="M420.1 544L515.9 482L390.1 487Z" fill="#297ea6" stroke="#297ea6"></path><path d="M420.1 544L498.9 556L515.9 482Z" fill="#00101c" stroke="#00101c"></path><path d="M272.5 275L253.5 357L309.3 270Z" fill="#1d4e6b" stroke="#1d4e6b"></path><path d="M336.3 537L420.1 544L390.1 487Z" fill="#205a7a" stroke="#205a7a"></path><path d="M498.9 556L597.7 557L515.9 482Z" fill="#0c2435" stroke="#0c2435"></path><path d="M698.4 600L714.4 494L647.5 500Z" fill="#00101c" stroke="#00101c"></path><path d="M647.5 500L714.4 494L715.4 401Z" fill="#112e42" stroke="#112e42"></path><path d="M568.7 0L476.9 0L564.7 59Z" fill="#1d4e6b" stroke="#1d4e6b"></path><path d="M564.7 59L476.9 0L472.9 108Z" fill="#15384f" stroke="#15384f"></path><path d="M657.5 0L568.7 0L564.7 59Z" fill="#277297" stroke="#277297"></path><path d="M319.3 127L252.5 188L340.3 250Z" fill="#246688" stroke="#246688"></path><path d="M272.5 275L173.6 315L253.5 357Z" fill="#297ea6" stroke="#297ea6"></path><path d="M243.5 114L252.5 188L319.3 127Z" fill="#15384f" stroke="#15384f"></path><path d="M900 288L814.2 262L784.2 331Z" fill="#1d4e6b" stroke="#1d4e6b"></path><path d="M784.2 331L814.2 262L773.4 328Z" fill="#246688" stroke="#246688"></path><path d="M756.4 247L833.2 135L721.4 156Z" fill="#081a28" stroke="#081a28"></path><path d="M721.4 156L722.4 43L668.5 59Z" fill="#00101c" stroke="#00101c"></path><path d="M714.4 494L765.4 447L715.4 401Z" fill="#205a7a" stroke="#205a7a"></path><path d="M476.9 0L414.1 0L399.1 75Z" fill="#15384f" stroke="#15384f"></path><path d="M255.5 39L243.5 114L319.3 127Z" fill="#205a7a" stroke="#205a7a"></path><path d="M816.2 82L722.4 43L721.4 156Z" fill="#00101c" stroke="#00101c"></path><path d="M668.5 59L657.5 0L564.7 59Z" fill="#246688" stroke="#246688"></path><path d="M722.4 43L657.5 0L668.5 59Z" fill="#297ea6" stroke="#297ea6"></path><path d="M267.5 528L336.3 537L351.3 476Z" fill="#112e42" stroke="#112e42"></path><path d="M351.3 476L336.3 537L390.1 487Z" fill="#246688" stroke="#246688"></path><path d="M410.1 600L506.9 600L498.9 556Z" fill="#00101c" stroke="#00101c"></path><path d="M410.1 600L498.9 556L420.1 544Z" fill="#1d4e6b" stroke="#1d4e6b"></path><path d="M498.9 556L557.7 600L597.7 557Z" fill="#246688" stroke="#246688"></path><path d="M506.9 600L557.7 600L498.9 556Z" fill="#112e42" stroke="#112e42"></path><path d="M597.7 557L638.5 600L647.5 500Z" fill="#00101c" stroke="#00101c"></path><path d="M765.4 447L829.2 380L715.4 401Z" fill="#205a7a" stroke="#205a7a"></path><path d="M255.5 39L319.3 127L364.3 69Z" fill="#277297" stroke="#277297"></path><path d="M191.6 388L215.5 435L253.5 357Z" fill="#081a28" stroke="#081a28"></path><path d="M414.1 0L353.3 0L364.3 69Z" fill="#0c2435" stroke="#0c2435"></path><path d="M336.3 537L410.1 600L420.1 544Z" fill="#00101c" stroke="#00101c"></path><path d="M557.7 600L638.5 600L597.7 557Z" fill="#277297" stroke="#277297"></path><path d="M900 477L855.2 414L765.4 447Z" fill="#297ea6" stroke="#297ea6"></path><path d="M765.4 447L855.2 414L829.2 380Z" fill="#15384f" stroke="#15384f"></path><path d="M177.6 242L272.5 275L252.5 188Z" fill="#1d4e6b" stroke="#1d4e6b"></path><path d="M253.5 357L215.5 435L343.3 407Z" fill="#112e42" stroke="#112e42"></path><path d="M336.3 537L326.3 600L410.1 600Z" fill="#0c2435" stroke="#0c2435"></path><path d="M814.2 262L833.2 135L756.4 247Z" fill="#081a28" stroke="#081a28"></path><path d="M900 210L833.2 135L814.2 262Z" fill="#205a7a" stroke="#205a7a"></path><path d="M130.6 112L177.6 242L252.5 188Z" fill="#1d4e6b" stroke="#1d4e6b"></path><path d="M173.6 315L191.6 388L253.5 357Z" fill="#19435d" stroke="#19435d"></path><path d="M177.6 242L173.6 315L272.5 275Z" fill="#277297" stroke="#277297"></path><path d="M215.5 435L267.5 528L351.3 476Z" fill="#246688" stroke="#246688"></path><path d="M833.2 135L816.2 82L721.4 156Z" fill="#1d4e6b" stroke="#1d4e6b"></path><path d="M722.4 43L769.4 0L657.5 0Z" fill="#1d4e6b" stroke="#1d4e6b"></path><path d="M818.2 562L765.4 447L714.4 494Z" fill="#112e42" stroke="#112e42"></path><path d="M829.2 380L900 288L784.2 331Z" fill="#112e42" stroke="#112e42"></path><path d="M276.5 0L255.5 39L364.3 69Z" fill="#19435d" stroke="#19435d"></path><path d="M243.5 114L130.6 112L252.5 188Z" fill="#297ea6" stroke="#297ea6"></path><path d="M191.6 388L196.6 440L215.5 435Z" fill="#15384f" stroke="#15384f"></path><path d="M215.5 435L196.6 440L267.5 528Z" fill="#277297" stroke="#277297"></path><path d="M103.8 433L196.6 440L191.6 388Z" fill="#15384f" stroke="#15384f"></path><path d="M638.5 600L698.4 600L647.5 500Z" fill="#112e42" stroke="#112e42"></path><path d="M267.5 528L326.3 600L336.3 537Z" fill="#246688" stroke="#246688"></path><path d="M353.3 0L276.5 0L364.3 69Z" fill="#1d4e6b" stroke="#1d4e6b"></path><path d="M816.2 82L769.4 0L722.4 43Z" fill="#081a28" stroke="#081a28"></path><path d="M900 397L900 288L829.2 380Z" fill="#1d4e6b" stroke="#1d4e6b"></path><path d="M833.2 135L900 99L816.2 82Z" fill="#112e42" stroke="#112e42"></path><path d="M900 288L900 210L814.2 262Z" fill="#205a7a" stroke="#205a7a"></path><path d="M816.2 82L801.2 0L769.4 0Z" fill="#00101c" stroke="#00101c"></path><path d="M900 210L900 179L833.2 135Z" fill="#0c2435" stroke="#0c2435"></path><path d="M900 477L900 397L855.2 414Z" fill="#205a7a" stroke="#205a7a"></path><path d="M855.2 414L900 397L829.2 380Z" fill="#19435d" stroke="#19435d"></path><path d="M900 0L801.2 0L816.2 82Z" fill="#205a7a" stroke="#205a7a"></path><path d="M698.4 600L818.2 562L714.4 494Z" fill="#19435d" stroke="#19435d"></path><path d="M276.5 0L185.6 50L255.5 39Z" fill="#246688" stroke="#246688"></path><path d="M255.5 39L185.6 50L243.5 114Z" fill="#246688" stroke="#246688"></path><path d="M177.6 242L94.8 324L173.6 315Z" fill="#0c2435" stroke="#0c2435"></path><path d="M196.6 551L249.5 600L267.5 528Z" fill="#205a7a" stroke="#205a7a"></path><path d="M267.5 528L249.5 600L326.3 600Z" fill="#112e42" stroke="#112e42"></path><path d="M900 179L900 99L833.2 135Z" fill="#0c2435" stroke="#0c2435"></path><path d="M196.6 440L196.6 551L267.5 528Z" fill="#277297" stroke="#277297"></path><path d="M106.8 510L196.6 551L196.6 440Z" fill="#246688" stroke="#246688"></path><path d="M698.4 600L801.2 600L818.2 562Z" fill="#15384f" stroke="#15384f"></path><path d="M900 494L900 477L765.4 447Z" fill="#205a7a" stroke="#205a7a"></path><path d="M900 494L765.4 447L818.2 562Z" fill="#00101c" stroke="#00101c"></path><path d="M185.6 50L130.6 112L243.5 114Z" fill="#15384f" stroke="#15384f"></path><path d="M173.6 315L94.8 324L191.6 388Z" fill="#19435d" stroke="#19435d"></path><path d="M69.8 188L94.8 324L177.6 242Z" fill="#0c2435" stroke="#0c2435"></path><path d="M900 600L900 494L818.2 562Z" fill="#15384f" stroke="#15384f"></path><path d="M94.8 324L103.8 433L191.6 388Z" fill="#297ea6" stroke="#297ea6"></path><path d="M130.6 112L76.8 182L177.6 242Z" fill="#297ea6" stroke="#297ea6"></path><path d="M94.8 324L51.8 344L103.8 433Z" fill="#0c2435" stroke="#0c2435"></path><path d="M0 119L69.8 188L76.8 182Z" fill="#00101c" stroke="#00101c"></path><path d="M76.8 182L69.8 188L177.6 242Z" fill="#246688" stroke="#246688"></path><path d="M276.5 0L145.6 0L185.6 50Z" fill="#297ea6" stroke="#297ea6"></path><path d="M185.6 50L145.6 0L130.6 112Z" fill="#277297" stroke="#277297"></path><path d="M130.6 112L71.8 75L76.8 182Z" fill="#0c2435" stroke="#0c2435"></path><path d="M900 99L900 0L816.2 82Z" fill="#081a28" stroke="#081a28"></path><path d="M0 455L106.8 510L103.8 433Z" fill="#277297" stroke="#277297"></path><path d="M103.8 433L106.8 510L196.6 440Z" fill="#277297" stroke="#277297"></path><path d="M196.6 551L162.6 600L249.5 600Z" fill="#081a28" stroke="#081a28"></path><path d="M0 268L51.8 344L94.8 324Z" fill="#0c2435" stroke="#0c2435"></path><path d="M106.8 510L162.6 600L196.6 551Z" fill="#15384f" stroke="#15384f"></path><path d="M801.2 600L900 600L818.2 562Z" fill="#277297" stroke="#277297"></path><path d="M145.6 0L71.8 75L130.6 112Z" fill="#0c2435" stroke="#0c2435"></path><path d="M69.8 188L0 268L94.8 324Z" fill="#00101c" stroke="#00101c"></path><path d="M106.8 510L109.8 600L162.6 600Z" fill="#19435d" stroke="#19435d"></path><path d="M0 600L109.8 600L106.8 510Z" fill="#205a7a" stroke="#205a7a"></path><path d="M0 208L0 268L69.8 188Z" fill="#297ea6" stroke="#297ea6"></path><path d="M51.8 344L0 401L103.8 433Z" fill="#00101c" stroke="#00101c"></path><path d="M0 119L0 208L69.8 188Z" fill="#277297" stroke="#277297"></path><path d="M0 268L0 401L51.8 344Z" fill="#1d4e6b" stroke="#1d4e6b"></path><path d="M0 108L0 119L71.8 75Z" fill="#081a28" stroke="#081a28"></path><path d="M71.8 75L0 119L76.8 182Z" fill="#297ea6" stroke="#297ea6"></path><path d="M0 401L0 455L103.8 433Z" fill="#15384f" stroke="#15384f"></path><path d="M0 0L0 108L71.8 75Z" fill="#081a28" stroke="#081a28"></path><path d="M145.6 0L45.8 0L71.8 75Z" fill="#277297" stroke="#277297"></path><path d="M0 455L0 509L106.8 510Z" fill="#205a7a" stroke="#205a7a"></path><path d="M45.8 0L0 0L71.8 75Z" fill="#112e42" stroke="#112e42"></path><path d="M0 509L0 600L106.8 510Z" fill="#297ea6" stroke="#297ea6"></path></g></svg>